M48
;Layer_Color=9474304
;FILE_FORMAT=2:5
INCH,LZ
;TYPE=PLATED
T01F00S00C0.01200
;TYPE=NON_PLATED
T02F00S00C0.06890
%
T01
X-0059739Y-0067716
X-0014961Y-0070646
Y-0086637
X-0006965Y-0078642
X-0022956
X-0015261Y0007185
X-0011811Y0010635
X-0008361Y0007185
X-0011811Y0003735
X0011811
Y0010635
X0015261Y0007185
X0008361
X0059739Y-0067716
X0063189Y-0071166
X0066639Y-0067716
X0063189Y-0064267
X0083361Y-0067716
X0086811Y-0071166
X0090261Y-0067716
X0086811Y-0064267
X-0063189
X-0066639Y-0067716
X-0063189Y-0071166
X-0086811
X-0090261Y-0067716
X-0083361
X-0086811Y-0064267
Y0078834
X-0090261Y0082284
X-0083361
X-0086811Y0085733
X-0066639Y0082284
X-0063189Y0078834
Y0085733
X-0059739Y0082284
X0059739
X0063189Y0078834
X0066639Y0082284
X0063189Y0085733
X0083361Y0082284
X0086811Y0078834
X0090261Y0082284
X0086811Y0085733
T02
X0Y-0111319
Y-008376
M30
