G04*
G04 #@! TF.GenerationSoftware,Altium Limited,Altium Designer,23.8.1 (32)*
G04*
G04 Layer_Physical_Order=1*
G04 Layer_Color=255*
%FSLAX25Y25*%
%MOIN*%
G70*
G04*
G04 #@! TF.SameCoordinates,69CDD0E5-7439-40E5-B8CE-76B83E1F4441*
G04*
G04*
G04 #@! TF.FilePolarity,Positive*
G04*
G01*
G75*
%ADD12R,0.03937X0.02756*%
%ADD15C,0.03000*%
%ADD16C,0.02500*%
G36*
X119957Y117813D02*
Y-118009D01*
X117911Y-120055D01*
X-117911D01*
X-119957Y-118009D01*
Y117813D01*
X-117911Y119859D01*
X117911D01*
X119957Y117813D01*
D02*
G37*
%LPC*%
G36*
X86811Y87773D02*
X86031Y87617D01*
X85369Y87175D01*
X84927Y86514D01*
X84772Y85733D01*
Y84323D01*
X83361D01*
X82581Y84167D01*
X81919Y83725D01*
X81477Y83064D01*
X81322Y82284D01*
X81477Y81503D01*
X81919Y80841D01*
X82581Y80400D01*
X83361Y80244D01*
X84772D01*
Y78834D01*
X84927Y78053D01*
X85369Y77392D01*
X86031Y76950D01*
X86811Y76794D01*
X87591Y76950D01*
X88253Y77392D01*
X88695Y78053D01*
X88850Y78834D01*
Y80244D01*
X90261D01*
X91041Y80400D01*
X91703Y80841D01*
X92145Y81503D01*
X92300Y82284D01*
X92145Y83064D01*
X91703Y83725D01*
X91041Y84167D01*
X90261Y84323D01*
X88850D01*
Y85733D01*
X88695Y86514D01*
X88253Y87175D01*
X87591Y87617D01*
X86811Y87773D01*
D02*
G37*
G36*
X63189D02*
X62409Y87617D01*
X61747Y87175D01*
X61305Y86514D01*
X61150Y85733D01*
Y84323D01*
X59739D01*
X58959Y84167D01*
X58297Y83725D01*
X57855Y83064D01*
X57700Y82284D01*
X57855Y81503D01*
X58297Y80841D01*
X58959Y80400D01*
X59739Y80244D01*
X61150D01*
Y78834D01*
X61305Y78053D01*
X61747Y77392D01*
X62409Y76950D01*
X63189Y76794D01*
X63969Y76950D01*
X64631Y77392D01*
X65073Y78053D01*
X65228Y78834D01*
Y80244D01*
X66639D01*
X67419Y80400D01*
X68081Y80841D01*
X68523Y81503D01*
X68678Y82284D01*
X68523Y83064D01*
X68081Y83725D01*
X67419Y84167D01*
X66639Y84323D01*
X65228D01*
Y85733D01*
X65073Y86514D01*
X64631Y87175D01*
X63969Y87617D01*
X63189Y87773D01*
D02*
G37*
G36*
X-63189D02*
X-63969Y87617D01*
X-64631Y87175D01*
X-65073Y86514D01*
X-65228Y85733D01*
Y84323D01*
X-66639D01*
X-67419Y84167D01*
X-68081Y83725D01*
X-68523Y83064D01*
X-68678Y82284D01*
X-68523Y81503D01*
X-68081Y80841D01*
X-67419Y80400D01*
X-66639Y80244D01*
X-65228D01*
Y78834D01*
X-65073Y78053D01*
X-64631Y77392D01*
X-63969Y76950D01*
X-63189Y76794D01*
X-62409Y76950D01*
X-61747Y77392D01*
X-61305Y78053D01*
X-61150Y78834D01*
Y80244D01*
X-59739D01*
X-58959Y80400D01*
X-58297Y80841D01*
X-57855Y81503D01*
X-57700Y82284D01*
X-57855Y83064D01*
X-58297Y83725D01*
X-58959Y84167D01*
X-59739Y84323D01*
X-61150D01*
Y85733D01*
X-61305Y86514D01*
X-61747Y87175D01*
X-62409Y87617D01*
X-63189Y87773D01*
D02*
G37*
G36*
X-86811D02*
X-87591Y87617D01*
X-88253Y87175D01*
X-88695Y86514D01*
X-88850Y85733D01*
Y84323D01*
X-90261D01*
X-91041Y84167D01*
X-91703Y83725D01*
X-92145Y83064D01*
X-92300Y82284D01*
X-92145Y81503D01*
X-91703Y80841D01*
X-91041Y80400D01*
X-90261Y80244D01*
X-88850D01*
Y78834D01*
X-88695Y78053D01*
X-88253Y77392D01*
X-87591Y76950D01*
X-86811Y76794D01*
X-86031Y76950D01*
X-85369Y77392D01*
X-84927Y78053D01*
X-84772Y78834D01*
Y80244D01*
X-83361D01*
X-82581Y80400D01*
X-81919Y80841D01*
X-81477Y81503D01*
X-81322Y82284D01*
X-81477Y83064D01*
X-81919Y83725D01*
X-82581Y84167D01*
X-83361Y84323D01*
X-84772D01*
Y85733D01*
X-84927Y86514D01*
X-85369Y87175D01*
X-86031Y87617D01*
X-86811Y87773D01*
D02*
G37*
G36*
X89780Y70095D02*
X87311D01*
Y68217D01*
X89780D01*
Y70095D01*
D02*
G37*
G36*
X86311D02*
X83842D01*
Y68217D01*
X86311D01*
Y70095D01*
D02*
G37*
G36*
X66158D02*
X63689D01*
Y68217D01*
X66158D01*
Y70095D01*
D02*
G37*
G36*
X62689D02*
X60220D01*
Y68217D01*
X62689D01*
Y70095D01*
D02*
G37*
G36*
X-60220D02*
X-62689D01*
Y68217D01*
X-60220D01*
Y70095D01*
D02*
G37*
G36*
X-63689D02*
X-66158D01*
Y68217D01*
X-63689D01*
Y70095D01*
D02*
G37*
G36*
X-83842D02*
X-86311D01*
Y68217D01*
X-83842D01*
Y70095D01*
D02*
G37*
G36*
X-87311D02*
X-89780D01*
Y68217D01*
X-87311D01*
Y70095D01*
D02*
G37*
G36*
X89780Y67216D02*
X87311D01*
Y65339D01*
X89780D01*
Y67216D01*
D02*
G37*
G36*
X86311D02*
X83842D01*
Y65339D01*
X86311D01*
Y67216D01*
D02*
G37*
G36*
X66158D02*
X63689D01*
Y65339D01*
X66158D01*
Y67216D01*
D02*
G37*
G36*
X62689D02*
X60220D01*
Y65339D01*
X62689D01*
Y67216D01*
D02*
G37*
G36*
X-60220D02*
X-62689D01*
Y65339D01*
X-60220D01*
Y67216D01*
D02*
G37*
G36*
X-63689D02*
X-66158D01*
Y65339D01*
X-63689D01*
Y67216D01*
D02*
G37*
G36*
X-83842D02*
X-86311D01*
Y65339D01*
X-83842D01*
Y67216D01*
D02*
G37*
G36*
X-87311D02*
X-89780D01*
Y65339D01*
X-87311D01*
Y67216D01*
D02*
G37*
G36*
X11811Y12674D02*
X11031Y12519D01*
X10369Y12077D01*
X9927Y11415D01*
X9772Y10635D01*
Y9224D01*
X8361D01*
X7581Y9069D01*
X6919Y8627D01*
X6477Y7965D01*
X6322Y7185D01*
X6477Y6405D01*
X6919Y5743D01*
X7581Y5301D01*
X8361Y5146D01*
X9772D01*
Y3735D01*
X9927Y2955D01*
X10369Y2293D01*
X11031Y1851D01*
X11811Y1696D01*
X12591Y1851D01*
X13253Y2293D01*
X13695Y2955D01*
X13850Y3735D01*
Y5146D01*
X15261D01*
X16041Y5301D01*
X16703Y5743D01*
X17145Y6405D01*
X17300Y7185D01*
X17145Y7965D01*
X16703Y8627D01*
X16041Y9069D01*
X15261Y9224D01*
X13850D01*
Y10635D01*
X13695Y11415D01*
X13253Y12077D01*
X12591Y12519D01*
X11811Y12674D01*
D02*
G37*
G36*
X-11811D02*
X-12591Y12519D01*
X-13253Y12077D01*
X-13695Y11415D01*
X-13850Y10635D01*
Y9224D01*
X-15261D01*
X-16041Y9069D01*
X-16703Y8627D01*
X-17145Y7965D01*
X-17300Y7185D01*
X-17145Y6405D01*
X-16703Y5743D01*
X-16041Y5301D01*
X-15261Y5146D01*
X-13850D01*
Y3735D01*
X-13695Y2955D01*
X-13253Y2293D01*
X-12591Y1851D01*
X-11811Y1696D01*
X-11031Y1851D01*
X-10369Y2293D01*
X-9927Y2955D01*
X-9772Y3735D01*
Y5146D01*
X-8361D01*
X-7581Y5301D01*
X-6919Y5743D01*
X-6477Y6405D01*
X-6322Y7185D01*
X-6477Y7965D01*
X-6919Y8627D01*
X-7581Y9069D01*
X-8361Y9224D01*
X-9772D01*
Y10635D01*
X-9927Y11415D01*
X-10369Y12077D01*
X-11031Y12519D01*
X-11811Y12674D01*
D02*
G37*
G36*
X14780Y-5004D02*
X12311D01*
Y-6882D01*
X14780D01*
Y-5004D01*
D02*
G37*
G36*
X11311D02*
X8843D01*
Y-6882D01*
X11311D01*
Y-5004D01*
D02*
G37*
G36*
X-8843D02*
X-11311D01*
Y-6882D01*
X-8843D01*
Y-5004D01*
D02*
G37*
G36*
X-12311D02*
X-14780D01*
Y-6882D01*
X-12311D01*
Y-5004D01*
D02*
G37*
G36*
X14780Y-7882D02*
X12311D01*
Y-9760D01*
X14780D01*
Y-7882D01*
D02*
G37*
G36*
X11311D02*
X8843D01*
Y-9760D01*
X11311D01*
Y-7882D01*
D02*
G37*
G36*
X-8843D02*
X-11311D01*
Y-9760D01*
X-8843D01*
Y-7882D01*
D02*
G37*
G36*
X-12311D02*
X-14780D01*
Y-9760D01*
X-12311D01*
Y-7882D01*
D02*
G37*
G36*
X-14461Y-68418D02*
Y-70146D01*
X-12732D01*
X-13053Y-69372D01*
X-13686Y-68739D01*
X-14461Y-68418D01*
D02*
G37*
G36*
X-15461D02*
X-16235Y-68739D01*
X-16868Y-69372D01*
X-17189Y-70146D01*
X-15461D01*
Y-68418D01*
D02*
G37*
G36*
X-12732Y-71146D02*
X-14461D01*
Y-72874D01*
X-13686Y-72554D01*
X-13053Y-71921D01*
X-12732Y-71146D01*
D02*
G37*
G36*
X-15461D02*
X-17189D01*
X-16868Y-71921D01*
X-16235Y-72554D01*
X-15461Y-72874D01*
Y-71146D01*
D02*
G37*
G36*
X86811Y-62227D02*
X86031Y-62383D01*
X85369Y-62825D01*
X84927Y-63486D01*
X84772Y-64267D01*
Y-65677D01*
X83361D01*
X82581Y-65833D01*
X81919Y-66275D01*
X81477Y-66936D01*
X81322Y-67716D01*
X81477Y-68497D01*
X81919Y-69159D01*
X82581Y-69600D01*
X83361Y-69756D01*
X84772D01*
Y-71166D01*
X84927Y-71947D01*
X85369Y-72608D01*
X86031Y-73050D01*
X86811Y-73206D01*
X87591Y-73050D01*
X88253Y-72608D01*
X88695Y-71947D01*
X88850Y-71166D01*
Y-69756D01*
X90261D01*
X91041Y-69600D01*
X91703Y-69159D01*
X92145Y-68497D01*
X92300Y-67716D01*
X92145Y-66936D01*
X91703Y-66275D01*
X91041Y-65833D01*
X90261Y-65677D01*
X88850D01*
Y-64267D01*
X88695Y-63486D01*
X88253Y-62825D01*
X87591Y-62383D01*
X86811Y-62227D01*
D02*
G37*
G36*
X63189D02*
X62409Y-62383D01*
X61747Y-62825D01*
X61305Y-63486D01*
X61150Y-64267D01*
Y-65677D01*
X59739D01*
X58959Y-65833D01*
X58297Y-66275D01*
X57855Y-66936D01*
X57700Y-67716D01*
X57855Y-68497D01*
X58297Y-69159D01*
X58959Y-69600D01*
X59739Y-69756D01*
X61150D01*
Y-71166D01*
X61305Y-71947D01*
X61747Y-72608D01*
X62409Y-73050D01*
X63189Y-73206D01*
X63969Y-73050D01*
X64631Y-72608D01*
X65073Y-71947D01*
X65228Y-71166D01*
Y-69756D01*
X66639D01*
X67419Y-69600D01*
X68081Y-69159D01*
X68523Y-68497D01*
X68678Y-67716D01*
X68523Y-66936D01*
X68081Y-66275D01*
X67419Y-65833D01*
X66639Y-65677D01*
X65228D01*
Y-64267D01*
X65073Y-63486D01*
X64631Y-62825D01*
X63969Y-62383D01*
X63189Y-62227D01*
D02*
G37*
G36*
X-63189D02*
X-63969Y-62383D01*
X-64631Y-62825D01*
X-65073Y-63486D01*
X-65228Y-64267D01*
Y-65677D01*
X-66639D01*
X-67419Y-65833D01*
X-68081Y-66275D01*
X-68523Y-66936D01*
X-68678Y-67716D01*
X-68523Y-68497D01*
X-68081Y-69159D01*
X-67419Y-69600D01*
X-66639Y-69756D01*
X-65228D01*
Y-71166D01*
X-65073Y-71947D01*
X-64631Y-72608D01*
X-63969Y-73050D01*
X-63189Y-73206D01*
X-62409Y-73050D01*
X-61747Y-72608D01*
X-61305Y-71947D01*
X-61150Y-71166D01*
Y-69756D01*
X-59739D01*
X-58959Y-69600D01*
X-58297Y-69159D01*
X-57855Y-68497D01*
X-57700Y-67716D01*
X-57855Y-66936D01*
X-58297Y-66275D01*
X-58959Y-65833D01*
X-59739Y-65677D01*
X-61150D01*
Y-64267D01*
X-61305Y-63486D01*
X-61747Y-62825D01*
X-62409Y-62383D01*
X-63189Y-62227D01*
D02*
G37*
G36*
X-86811D02*
X-87591Y-62383D01*
X-88253Y-62825D01*
X-88695Y-63486D01*
X-88850Y-64267D01*
Y-65677D01*
X-90261D01*
X-91041Y-65833D01*
X-91703Y-66275D01*
X-92145Y-66936D01*
X-92300Y-67716D01*
X-92145Y-68497D01*
X-91703Y-69159D01*
X-91041Y-69600D01*
X-90261Y-69756D01*
X-88850D01*
Y-71166D01*
X-88695Y-71947D01*
X-88253Y-72608D01*
X-87591Y-73050D01*
X-86811Y-73206D01*
X-86031Y-73050D01*
X-85369Y-72608D01*
X-84927Y-71947D01*
X-84772Y-71166D01*
Y-69756D01*
X-83361D01*
X-82581Y-69600D01*
X-81919Y-69159D01*
X-81477Y-68497D01*
X-81322Y-67716D01*
X-81477Y-66936D01*
X-81919Y-66275D01*
X-82581Y-65833D01*
X-83361Y-65677D01*
X-84772D01*
Y-64267D01*
X-84927Y-63486D01*
X-85369Y-62825D01*
X-86031Y-62383D01*
X-86811Y-62227D01*
D02*
G37*
G36*
X-6465Y-76414D02*
Y-78142D01*
X-4737D01*
X-5058Y-77367D01*
X-5691Y-76734D01*
X-6465Y-76414D01*
D02*
G37*
G36*
X-7465D02*
X-8240Y-76734D01*
X-8873Y-77367D01*
X-9193Y-78142D01*
X-7465D01*
Y-76414D01*
D02*
G37*
G36*
X-22456D02*
Y-78142D01*
X-20728D01*
X-21049Y-77367D01*
X-21682Y-76734D01*
X-22456Y-76414D01*
D02*
G37*
G36*
X-23456D02*
X-24231Y-76734D01*
X-24864Y-77367D01*
X-25185Y-78142D01*
X-23456D01*
Y-76414D01*
D02*
G37*
G36*
X-4737Y-79142D02*
X-6465D01*
Y-80870D01*
X-5691Y-80549D01*
X-5058Y-79916D01*
X-4737Y-79142D01*
D02*
G37*
G36*
X-7465D02*
X-9193D01*
X-8873Y-79916D01*
X-8240Y-80549D01*
X-7465Y-80870D01*
Y-79142D01*
D02*
G37*
G36*
X-20728D02*
X-22456D01*
Y-80870D01*
X-21682Y-80549D01*
X-21049Y-79916D01*
X-20728Y-79142D01*
D02*
G37*
G36*
X-23456D02*
X-25185D01*
X-24864Y-79916D01*
X-24231Y-80549D01*
X-23456Y-80870D01*
Y-79142D01*
D02*
G37*
G36*
X89780Y-79905D02*
X87311D01*
Y-81783D01*
X89780D01*
Y-79905D01*
D02*
G37*
G36*
X86311D02*
X83842D01*
Y-81783D01*
X86311D01*
Y-79905D01*
D02*
G37*
G36*
X66158D02*
X63689D01*
Y-81783D01*
X66158D01*
Y-79905D01*
D02*
G37*
G36*
X62689D02*
X60220D01*
Y-81783D01*
X62689D01*
Y-79905D01*
D02*
G37*
G36*
X-60220D02*
X-62689D01*
Y-81783D01*
X-60220D01*
Y-79905D01*
D02*
G37*
G36*
X-63689D02*
X-66158D01*
Y-81783D01*
X-63689D01*
Y-79905D01*
D02*
G37*
G36*
X-83842D02*
X-86311D01*
Y-81783D01*
X-83842D01*
Y-79905D01*
D02*
G37*
G36*
X-87311D02*
X-89780D01*
Y-81783D01*
X-87311D01*
Y-79905D01*
D02*
G37*
G36*
X89780Y-82784D02*
X87311D01*
Y-84661D01*
X89780D01*
Y-82784D01*
D02*
G37*
G36*
X86311D02*
X83842D01*
Y-84661D01*
X86311D01*
Y-82784D01*
D02*
G37*
G36*
X66158D02*
X63689D01*
Y-84661D01*
X66158D01*
Y-82784D01*
D02*
G37*
G36*
X62689D02*
X60220D01*
Y-84661D01*
X62689D01*
Y-82784D01*
D02*
G37*
G36*
X-60220D02*
X-62689D01*
Y-84661D01*
X-60220D01*
Y-82784D01*
D02*
G37*
G36*
X-63689D02*
X-66158D01*
Y-84661D01*
X-63689D01*
Y-82784D01*
D02*
G37*
G36*
X-83842D02*
X-86311D01*
Y-84661D01*
X-83842D01*
Y-82784D01*
D02*
G37*
G36*
X-87311D02*
X-89780D01*
Y-84661D01*
X-87311D01*
Y-82784D01*
D02*
G37*
G36*
X-14461Y-84409D02*
Y-86137D01*
X-12732D01*
X-13053Y-85363D01*
X-13686Y-84730D01*
X-14461Y-84409D01*
D02*
G37*
G36*
X-15461D02*
X-16235Y-84730D01*
X-16868Y-85363D01*
X-17189Y-86137D01*
X-15461D01*
Y-84409D01*
D02*
G37*
G36*
X552Y-79565D02*
X-552D01*
X-1619Y-79851D01*
X-2576Y-80403D01*
X-3357Y-81184D01*
X-3909Y-82141D01*
X-4195Y-83208D01*
Y-84312D01*
X-3909Y-85379D01*
X-3357Y-86336D01*
X-2576Y-87117D01*
X-1619Y-87669D01*
X-552Y-87955D01*
X552D01*
X1619Y-87669D01*
X2576Y-87117D01*
X3357Y-86336D01*
X3909Y-85379D01*
X4195Y-84312D01*
Y-83208D01*
X3909Y-82141D01*
X3357Y-81184D01*
X2576Y-80403D01*
X1619Y-79851D01*
X552Y-79565D01*
D02*
G37*
G36*
X-12732Y-87137D02*
X-14461D01*
Y-88866D01*
X-13686Y-88545D01*
X-13053Y-87912D01*
X-12732Y-87137D01*
D02*
G37*
G36*
X-15461D02*
X-17189D01*
X-16868Y-87912D01*
X-16235Y-88545D01*
X-15461Y-88866D01*
Y-87137D01*
D02*
G37*
G36*
X552Y-107124D02*
X-552D01*
X-1619Y-107410D01*
X-2576Y-107962D01*
X-3357Y-108743D01*
X-3909Y-109700D01*
X-4195Y-110767D01*
Y-111871D01*
X-3909Y-112938D01*
X-3357Y-113895D01*
X-2576Y-114676D01*
X-1619Y-115228D01*
X-552Y-115514D01*
X552D01*
X1619Y-115228D01*
X2576Y-114676D01*
X3357Y-113895D01*
X3909Y-112938D01*
X4195Y-111871D01*
Y-110767D01*
X3909Y-109700D01*
X3357Y-108743D01*
X2576Y-107962D01*
X1619Y-107410D01*
X552Y-107124D01*
D02*
G37*
%LPD*%
D12*
X86811Y-82284D02*
D03*
X63189D02*
D03*
X86811Y-67716D02*
D03*
X63189D02*
D03*
X-63189Y-82284D02*
D03*
X-86811D02*
D03*
X-63189Y-67716D02*
D03*
X-86811D02*
D03*
X86811Y67716D02*
D03*
X63189D02*
D03*
X86811Y82284D02*
D03*
X63189D02*
D03*
X-63189Y67716D02*
D03*
X-86811D02*
D03*
X-63189Y82284D02*
D03*
X-86811D02*
D03*
X11811Y-7382D02*
D03*
X-11811D02*
D03*
X11811Y7185D02*
D03*
X-11811D02*
D03*
D15*
X-86811Y-67716D02*
X-83361D01*
X-90261D02*
X-86811D01*
Y-64267D01*
Y-71166D02*
Y-67716D01*
X-63189D02*
X-59739D01*
X-66639D02*
X-63189D01*
Y-64267D01*
Y-71166D02*
Y-67716D01*
X63189D02*
X66639D01*
X59739D02*
X63189D01*
Y-64267D01*
Y-71166D02*
Y-67716D01*
X86811D02*
X90261D01*
X83361D02*
X86811D01*
Y-64267D01*
Y-71166D02*
Y-67716D01*
X-86811Y82284D02*
X-83361D01*
X-90261D02*
X-86811D01*
Y85733D01*
Y78834D02*
Y82284D01*
X-63189D02*
X-59739D01*
X-66639D02*
X-63189D01*
Y85733D01*
Y78834D02*
Y82284D01*
X63189D02*
X66639D01*
X59739D02*
X63189D01*
Y85733D01*
Y78834D02*
Y82284D01*
X86811D02*
X90261D01*
X83361D02*
X86811D01*
Y85733D01*
Y78834D02*
Y82284D01*
X11811Y3735D02*
Y7185D01*
Y10635D01*
X8361Y7185D02*
X11811D01*
X15261D01*
X-11811D02*
X-8361D01*
X-15261D02*
X-11811D01*
Y10635D01*
Y3735D02*
Y7185D01*
D16*
X-90261Y-67716D02*
D03*
X-86811Y-71166D02*
D03*
X-83361Y-67716D02*
D03*
X-86811Y-64267D02*
D03*
X-66639Y-67716D02*
D03*
X-63189Y-71166D02*
D03*
X-59739Y-67716D02*
D03*
X-63189Y-64267D02*
D03*
X59739Y-67716D02*
D03*
X63189Y-71166D02*
D03*
X66639Y-67716D02*
D03*
X63189Y-64267D02*
D03*
X83361Y-67716D02*
D03*
X86811Y-71166D02*
D03*
X90261Y-67716D02*
D03*
X86811Y-64267D02*
D03*
X-90261Y82284D02*
D03*
X-86811Y78834D02*
D03*
X-83361Y82284D02*
D03*
X-86811Y85733D02*
D03*
X-66639Y82284D02*
D03*
X-63189Y78834D02*
D03*
X-59739Y82284D02*
D03*
X-63189Y85733D02*
D03*
X59739Y82284D02*
D03*
X63189Y78834D02*
D03*
X66639Y82284D02*
D03*
X63189Y85733D02*
D03*
X83361Y82284D02*
D03*
X86811Y78834D02*
D03*
X90261Y82284D02*
D03*
X86811Y85733D02*
D03*
X-14961Y-70646D02*
D03*
Y-86637D02*
D03*
X-6965Y-78642D02*
D03*
X-22956D02*
D03*
X11811Y10635D02*
D03*
X15261Y7185D02*
D03*
X11811Y3735D02*
D03*
X8361Y7185D02*
D03*
X-15261D02*
D03*
X-11811Y10635D02*
D03*
X-8361Y7185D02*
D03*
X-11811Y3735D02*
D03*
M02*
