G04*
G04 #@! TF.GenerationSoftware,Altium Limited,Altium Designer,23.8.1 (32)*
G04*
G04 Layer_Physical_Order=2*
G04 Layer_Color=16711680*
%FSLAX25Y25*%
%MOIN*%
G70*
G04*
G04 #@! TF.SameCoordinates,69CDD0E5-7439-40E5-B8CE-76B83E1F4441*
G04*
G04*
G04 #@! TF.FilePolarity,Positive*
G04*
G01*
G75*
%ADD15C,0.03000*%
%ADD16C,0.02500*%
%ADD17R,0.11024X0.08661*%
%ADD18R,0.10236X0.11024*%
G36*
X119957Y117813D02*
Y-118009D01*
X117911Y-120055D01*
X-8055D01*
Y-116150D01*
X-14567D01*
X-21079D01*
Y-120055D01*
X-117911D01*
X-119957Y-118009D01*
Y117813D01*
X-117911Y119859D01*
X117911D01*
X119957Y117813D01*
D02*
G37*
%LPC*%
G36*
X87311Y87962D02*
Y86234D01*
X89039D01*
X88718Y87008D01*
X88086Y87641D01*
X87311Y87962D01*
D02*
G37*
G36*
X86311D02*
X85536Y87641D01*
X84904Y87008D01*
X84583Y86234D01*
X86311D01*
Y87962D01*
D02*
G37*
G36*
X63689D02*
Y86234D01*
X65417D01*
X65096Y87008D01*
X64464Y87641D01*
X63689Y87962D01*
D02*
G37*
G36*
X62689D02*
X61914Y87641D01*
X61282Y87008D01*
X60961Y86234D01*
X62689D01*
Y87962D01*
D02*
G37*
G36*
X-62689D02*
Y86234D01*
X-60961D01*
X-61282Y87008D01*
X-61914Y87641D01*
X-62689Y87962D01*
D02*
G37*
G36*
X-63689D02*
X-64464Y87641D01*
X-65096Y87008D01*
X-65417Y86234D01*
X-63689D01*
Y87962D01*
D02*
G37*
G36*
X-86311D02*
Y86234D01*
X-84583D01*
X-84904Y87008D01*
X-85536Y87641D01*
X-86311Y87962D01*
D02*
G37*
G36*
X-87311D02*
X-88086Y87641D01*
X-88718Y87008D01*
X-89039Y86234D01*
X-87311D01*
Y87962D01*
D02*
G37*
G36*
X89039Y85233D02*
X84583D01*
X84822Y84655D01*
X84440Y84272D01*
X83861Y84512D01*
Y82284D01*
Y80055D01*
X84440Y80295D01*
X84822Y79912D01*
X84583Y79334D01*
X89039D01*
X88800Y79912D01*
X89182Y80295D01*
X89761Y80055D01*
Y82284D01*
Y84512D01*
X89182Y84272D01*
X88800Y84655D01*
X89039Y85233D01*
D02*
G37*
G36*
X65417D02*
X60961D01*
X61200Y84655D01*
X60818Y84272D01*
X60239Y84512D01*
Y82284D01*
Y80055D01*
X60818Y80295D01*
X61200Y79912D01*
X60961Y79334D01*
X65417D01*
X65178Y79912D01*
X65560Y80295D01*
X66139Y80055D01*
Y82284D01*
Y84512D01*
X65560Y84272D01*
X65178Y84655D01*
X65417Y85233D01*
D02*
G37*
G36*
X-60961D02*
X-65417D01*
X-65178Y84655D01*
X-65560Y84272D01*
X-66139Y84512D01*
Y82284D01*
Y80055D01*
X-65560Y80295D01*
X-65178Y79912D01*
X-65417Y79334D01*
X-60961D01*
X-61200Y79912D01*
X-60818Y80295D01*
X-60239Y80055D01*
Y82284D01*
Y84512D01*
X-60818Y84272D01*
X-61200Y84655D01*
X-60961Y85233D01*
D02*
G37*
G36*
X-84583D02*
X-89039D01*
X-88800Y84655D01*
X-89182Y84272D01*
X-89761Y84512D01*
Y82284D01*
Y80055D01*
X-89182Y80295D01*
X-88800Y79912D01*
X-89039Y79334D01*
X-84583D01*
X-84822Y79912D01*
X-84440Y80295D01*
X-83861Y80055D01*
Y82284D01*
Y84512D01*
X-84440Y84272D01*
X-84822Y84655D01*
X-84583Y85233D01*
D02*
G37*
G36*
X90761Y84512D02*
Y82784D01*
X92489D01*
X92168Y83558D01*
X91536Y84191D01*
X90761Y84512D01*
D02*
G37*
G36*
X82861D02*
X82086Y84191D01*
X81454Y83558D01*
X81133Y82784D01*
X82861D01*
Y84512D01*
D02*
G37*
G36*
X67139D02*
Y82784D01*
X68867D01*
X68546Y83558D01*
X67914Y84191D01*
X67139Y84512D01*
D02*
G37*
G36*
X59239D02*
X58464Y84191D01*
X57832Y83558D01*
X57511Y82784D01*
X59239D01*
Y84512D01*
D02*
G37*
G36*
X-59239D02*
Y82784D01*
X-57511D01*
X-57832Y83558D01*
X-58464Y84191D01*
X-59239Y84512D01*
D02*
G37*
G36*
X-67139D02*
X-67914Y84191D01*
X-68546Y83558D01*
X-68867Y82784D01*
X-67139D01*
Y84512D01*
D02*
G37*
G36*
X-82861D02*
Y82784D01*
X-81133D01*
X-81454Y83558D01*
X-82086Y84191D01*
X-82861Y84512D01*
D02*
G37*
G36*
X-90761D02*
X-91536Y84191D01*
X-92168Y83558D01*
X-92489Y82784D01*
X-90761D01*
Y84512D01*
D02*
G37*
G36*
X92489Y81783D02*
X90761D01*
Y80055D01*
X91536Y80376D01*
X92168Y81009D01*
X92489Y81783D01*
D02*
G37*
G36*
X82861D02*
X81133D01*
X81454Y81009D01*
X82086Y80376D01*
X82861Y80055D01*
Y81783D01*
D02*
G37*
G36*
X68867D02*
X67139D01*
Y80055D01*
X67914Y80376D01*
X68546Y81009D01*
X68867Y81783D01*
D02*
G37*
G36*
X59239D02*
X57511D01*
X57832Y81009D01*
X58464Y80376D01*
X59239Y80055D01*
Y81783D01*
D02*
G37*
G36*
X-57511D02*
X-59239D01*
Y80055D01*
X-58464Y80376D01*
X-57832Y81009D01*
X-57511Y81783D01*
D02*
G37*
G36*
X-67139D02*
X-68867D01*
X-68546Y81009D01*
X-67914Y80376D01*
X-67139Y80055D01*
Y81783D01*
D02*
G37*
G36*
X-81133D02*
X-82861D01*
Y80055D01*
X-82086Y80376D01*
X-81454Y81009D01*
X-81133Y81783D01*
D02*
G37*
G36*
X-90761D02*
X-92489D01*
X-92168Y81009D01*
X-91536Y80376D01*
X-90761Y80055D01*
Y81783D01*
D02*
G37*
G36*
X89039Y78333D02*
X87311D01*
Y76605D01*
X88086Y76926D01*
X88718Y77559D01*
X89039Y78333D01*
D02*
G37*
G36*
X86311D02*
X84583D01*
X84904Y77559D01*
X85536Y76926D01*
X86311Y76605D01*
Y78333D01*
D02*
G37*
G36*
X65417D02*
X63689D01*
Y76605D01*
X64464Y76926D01*
X65096Y77559D01*
X65417Y78333D01*
D02*
G37*
G36*
X62689D02*
X60961D01*
X61282Y77559D01*
X61914Y76926D01*
X62689Y76605D01*
Y78333D01*
D02*
G37*
G36*
X-60961D02*
X-62689D01*
Y76605D01*
X-61914Y76926D01*
X-61282Y77559D01*
X-60961Y78333D01*
D02*
G37*
G36*
X-63689D02*
X-65417D01*
X-65096Y77559D01*
X-64464Y76926D01*
X-63689Y76605D01*
Y78333D01*
D02*
G37*
G36*
X-84583D02*
X-86311D01*
Y76605D01*
X-85536Y76926D01*
X-84904Y77559D01*
X-84583Y78333D01*
D02*
G37*
G36*
X-87311D02*
X-89039D01*
X-88718Y77559D01*
X-88086Y76926D01*
X-87311Y76605D01*
Y78333D01*
D02*
G37*
G36*
X12311Y12863D02*
Y11135D01*
X14039D01*
X13719Y11909D01*
X13086Y12542D01*
X12311Y12863D01*
D02*
G37*
G36*
X11311D02*
X10537Y12542D01*
X9904Y11909D01*
X9583Y11135D01*
X11311D01*
Y12863D01*
D02*
G37*
G36*
X-11311D02*
Y11135D01*
X-9583D01*
X-9904Y11909D01*
X-10537Y12542D01*
X-11311Y12863D01*
D02*
G37*
G36*
X-12311D02*
X-13085Y12542D01*
X-13719Y11909D01*
X-14039Y11135D01*
X-12311D01*
Y12863D01*
D02*
G37*
G36*
X14039Y10135D02*
X9583D01*
X9822Y9556D01*
X9440Y9174D01*
X8861Y9413D01*
Y7185D01*
Y4957D01*
X9440Y5196D01*
X9822Y4814D01*
X9583Y4235D01*
X14039D01*
X13800Y4814D01*
X14182Y5196D01*
X14761Y4957D01*
Y7185D01*
Y9413D01*
X14182Y9174D01*
X13800Y9556D01*
X14039Y10135D01*
D02*
G37*
G36*
X-9583D02*
X-14039D01*
X-13800Y9556D01*
X-14182Y9174D01*
X-14761Y9413D01*
Y7185D01*
Y4957D01*
X-14182Y5196D01*
X-13800Y4814D01*
X-14039Y4235D01*
X-9583D01*
X-9822Y4814D01*
X-9440Y5196D01*
X-8861Y4957D01*
Y7185D01*
Y9413D01*
X-9440Y9174D01*
X-9822Y9556D01*
X-9583Y10135D01*
D02*
G37*
G36*
X15761Y9413D02*
Y7685D01*
X17489D01*
X17168Y8460D01*
X16535Y9093D01*
X15761Y9413D01*
D02*
G37*
G36*
X7861D02*
X7086Y9093D01*
X6454Y8460D01*
X6133Y7685D01*
X7861D01*
Y9413D01*
D02*
G37*
G36*
X-7861D02*
Y7685D01*
X-6133D01*
X-6454Y8460D01*
X-7086Y9093D01*
X-7861Y9413D01*
D02*
G37*
G36*
X-15761D02*
X-16535Y9093D01*
X-17168Y8460D01*
X-17489Y7685D01*
X-15761D01*
Y9413D01*
D02*
G37*
G36*
X17489Y6685D02*
X15761D01*
Y4957D01*
X16535Y5278D01*
X17168Y5911D01*
X17489Y6685D01*
D02*
G37*
G36*
X7861D02*
X6133D01*
X6454Y5911D01*
X7086Y5278D01*
X7861Y4957D01*
Y6685D01*
D02*
G37*
G36*
X-6133D02*
X-7861D01*
Y4957D01*
X-7086Y5278D01*
X-6454Y5911D01*
X-6133Y6685D01*
D02*
G37*
G36*
X-15761D02*
X-17489D01*
X-17168Y5911D01*
X-16535Y5278D01*
X-15761Y4957D01*
Y6685D01*
D02*
G37*
G36*
X14039Y3235D02*
X12311D01*
Y1507D01*
X13086Y1828D01*
X13719Y2461D01*
X14039Y3235D01*
D02*
G37*
G36*
X11311D02*
X9583D01*
X9904Y2461D01*
X10537Y1828D01*
X11311Y1507D01*
Y3235D01*
D02*
G37*
G36*
X-9583D02*
X-11311D01*
Y1507D01*
X-10537Y1828D01*
X-9904Y2461D01*
X-9583Y3235D01*
D02*
G37*
G36*
X-12311D02*
X-14039D01*
X-13719Y2461D01*
X-13085Y1828D01*
X-12311Y1507D01*
Y3235D01*
D02*
G37*
G36*
X87311Y-62038D02*
Y-63766D01*
X89039D01*
X88718Y-62992D01*
X88086Y-62359D01*
X87311Y-62038D01*
D02*
G37*
G36*
X86311D02*
X85536Y-62359D01*
X84904Y-62992D01*
X84583Y-63766D01*
X86311D01*
Y-62038D01*
D02*
G37*
G36*
X63689D02*
Y-63766D01*
X65417D01*
X65096Y-62992D01*
X64464Y-62359D01*
X63689Y-62038D01*
D02*
G37*
G36*
X62689D02*
X61914Y-62359D01*
X61282Y-62992D01*
X60961Y-63766D01*
X62689D01*
Y-62038D01*
D02*
G37*
G36*
X-62689D02*
Y-63766D01*
X-60961D01*
X-61282Y-62992D01*
X-61914Y-62359D01*
X-62689Y-62038D01*
D02*
G37*
G36*
X-63689D02*
X-64464Y-62359D01*
X-65096Y-62992D01*
X-65417Y-63766D01*
X-63689D01*
Y-62038D01*
D02*
G37*
G36*
X-86311D02*
Y-63766D01*
X-84583D01*
X-84904Y-62992D01*
X-85536Y-62359D01*
X-86311Y-62038D01*
D02*
G37*
G36*
X-87311D02*
X-88086Y-62359D01*
X-88718Y-62992D01*
X-89039Y-63766D01*
X-87311D01*
Y-62038D01*
D02*
G37*
G36*
X89039Y-64767D02*
X84583D01*
X84822Y-65345D01*
X84440Y-65728D01*
X83861Y-65488D01*
Y-67716D01*
Y-69945D01*
X84440Y-69705D01*
X84822Y-70088D01*
X84583Y-70666D01*
X89039D01*
X88800Y-70088D01*
X89182Y-69705D01*
X89761Y-69945D01*
Y-67716D01*
Y-65488D01*
X89182Y-65728D01*
X88800Y-65345D01*
X89039Y-64767D01*
D02*
G37*
G36*
X65417D02*
X60961D01*
X61200Y-65345D01*
X60818Y-65728D01*
X60239Y-65488D01*
Y-67716D01*
Y-69945D01*
X60818Y-69705D01*
X61200Y-70088D01*
X60961Y-70666D01*
X65417D01*
X65178Y-70088D01*
X65560Y-69705D01*
X66139Y-69945D01*
Y-67716D01*
Y-65488D01*
X65560Y-65728D01*
X65178Y-65345D01*
X65417Y-64767D01*
D02*
G37*
G36*
X-60961D02*
X-65417D01*
X-65178Y-65345D01*
X-65560Y-65728D01*
X-66139Y-65488D01*
Y-67716D01*
Y-69945D01*
X-65560Y-69705D01*
X-65178Y-70088D01*
X-65417Y-70666D01*
X-60961D01*
X-61200Y-70088D01*
X-60818Y-69705D01*
X-60239Y-69945D01*
Y-67716D01*
Y-65488D01*
X-60818Y-65728D01*
X-61200Y-65345D01*
X-60961Y-64767D01*
D02*
G37*
G36*
X-84583D02*
X-89039D01*
X-88800Y-65345D01*
X-89182Y-65728D01*
X-89761Y-65488D01*
Y-67716D01*
Y-69945D01*
X-89182Y-69705D01*
X-88800Y-70088D01*
X-89039Y-70666D01*
X-84583D01*
X-84822Y-70088D01*
X-84440Y-69705D01*
X-83861Y-69945D01*
Y-67716D01*
Y-65488D01*
X-84440Y-65728D01*
X-84822Y-65345D01*
X-84583Y-64767D01*
D02*
G37*
G36*
X90761Y-65488D02*
Y-67216D01*
X92489D01*
X92168Y-66442D01*
X91536Y-65809D01*
X90761Y-65488D01*
D02*
G37*
G36*
X82861D02*
X82086Y-65809D01*
X81454Y-66442D01*
X81133Y-67216D01*
X82861D01*
Y-65488D01*
D02*
G37*
G36*
X67139D02*
Y-67216D01*
X68867D01*
X68546Y-66442D01*
X67914Y-65809D01*
X67139Y-65488D01*
D02*
G37*
G36*
X59239D02*
X58464Y-65809D01*
X57832Y-66442D01*
X57511Y-67216D01*
X59239D01*
Y-65488D01*
D02*
G37*
G36*
X-59239D02*
Y-67216D01*
X-57511D01*
X-57832Y-66442D01*
X-58464Y-65809D01*
X-59239Y-65488D01*
D02*
G37*
G36*
X-67139D02*
X-67914Y-65809D01*
X-68546Y-66442D01*
X-68867Y-67216D01*
X-67139D01*
Y-65488D01*
D02*
G37*
G36*
X-82861D02*
Y-67216D01*
X-81133D01*
X-81454Y-66442D01*
X-82086Y-65809D01*
X-82861Y-65488D01*
D02*
G37*
G36*
X-90761D02*
X-91536Y-65809D01*
X-92168Y-66442D01*
X-92489Y-67216D01*
X-90761D01*
Y-65488D01*
D02*
G37*
G36*
X92489Y-68217D02*
X90761D01*
Y-69945D01*
X91536Y-69624D01*
X92168Y-68991D01*
X92489Y-68217D01*
D02*
G37*
G36*
X82861D02*
X81133D01*
X81454Y-68991D01*
X82086Y-69624D01*
X82861Y-69945D01*
Y-68217D01*
D02*
G37*
G36*
X68867D02*
X67139D01*
Y-69945D01*
X67914Y-69624D01*
X68546Y-68991D01*
X68867Y-68217D01*
D02*
G37*
G36*
X59239D02*
X57511D01*
X57832Y-68991D01*
X58464Y-69624D01*
X59239Y-69945D01*
Y-68217D01*
D02*
G37*
G36*
X-57511D02*
X-59239D01*
Y-69945D01*
X-58464Y-69624D01*
X-57832Y-68991D01*
X-57511Y-68217D01*
D02*
G37*
G36*
X-67139D02*
X-68867D01*
X-68546Y-68991D01*
X-67914Y-69624D01*
X-67139Y-69945D01*
Y-68217D01*
D02*
G37*
G36*
X-81133D02*
X-82861D01*
Y-69945D01*
X-82086Y-69624D01*
X-81454Y-68991D01*
X-81133Y-68217D01*
D02*
G37*
G36*
X-90761D02*
X-92489D01*
X-92168Y-68991D01*
X-91536Y-69624D01*
X-90761Y-69945D01*
Y-68217D01*
D02*
G37*
G36*
X89039Y-71667D02*
X87311D01*
Y-73395D01*
X88086Y-73074D01*
X88718Y-72441D01*
X89039Y-71667D01*
D02*
G37*
G36*
X86311D02*
X84583D01*
X84904Y-72441D01*
X85536Y-73074D01*
X86311Y-73395D01*
Y-71667D01*
D02*
G37*
G36*
X65417D02*
X63689D01*
Y-73395D01*
X64464Y-73074D01*
X65096Y-72441D01*
X65417Y-71667D01*
D02*
G37*
G36*
X62689D02*
X60961D01*
X61282Y-72441D01*
X61914Y-73074D01*
X62689Y-73395D01*
Y-71667D01*
D02*
G37*
G36*
X-60961D02*
X-62689D01*
Y-73395D01*
X-61914Y-73074D01*
X-61282Y-72441D01*
X-60961Y-71667D01*
D02*
G37*
G36*
X-63689D02*
X-65417D01*
X-65096Y-72441D01*
X-64464Y-73074D01*
X-63689Y-73395D01*
Y-71667D01*
D02*
G37*
G36*
X-84583D02*
X-86311D01*
Y-73395D01*
X-85536Y-73074D01*
X-84904Y-72441D01*
X-84583Y-71667D01*
D02*
G37*
G36*
X-87311D02*
X-89039D01*
X-88718Y-72441D01*
X-88086Y-73074D01*
X-87311Y-73395D01*
Y-71667D01*
D02*
G37*
G36*
X552Y-79565D02*
X-552D01*
X-1619Y-79851D01*
X-2576Y-80403D01*
X-3357Y-81184D01*
X-3909Y-82141D01*
X-4195Y-83208D01*
Y-84312D01*
X-3909Y-85379D01*
X-3357Y-86336D01*
X-2576Y-87117D01*
X-1619Y-87669D01*
X-552Y-87955D01*
X552D01*
X1619Y-87669D01*
X2576Y-87117D01*
X3357Y-86336D01*
X3909Y-85379D01*
X4195Y-84312D01*
Y-83208D01*
X3909Y-82141D01*
X3357Y-81184D01*
X2576Y-80403D01*
X1619Y-79851D01*
X552Y-79565D01*
D02*
G37*
G36*
X-14961Y-68607D02*
X-15741Y-68762D01*
X-16402Y-69204D01*
X-16845Y-69866D01*
X-17000Y-70646D01*
Y-72630D01*
X-20579D01*
Y-76603D01*
X-22956D01*
X-23737Y-76758D01*
X-24398Y-77200D01*
X-24840Y-77861D01*
X-24995Y-78642D01*
X-24840Y-79422D01*
X-24398Y-80084D01*
X-23737Y-80526D01*
X-22956Y-80681D01*
X-20579D01*
Y-84654D01*
X-17000D01*
Y-86637D01*
X-16845Y-87418D01*
X-16402Y-88079D01*
X-15741Y-88521D01*
X-14961Y-88677D01*
X-14180Y-88521D01*
X-13519Y-88079D01*
X-13077Y-87418D01*
X-12921Y-86637D01*
Y-84654D01*
X-9342D01*
Y-80681D01*
X-6965D01*
X-6185Y-80526D01*
X-5523Y-80084D01*
X-5081Y-79422D01*
X-4926Y-78642D01*
X-5081Y-77861D01*
X-5523Y-77200D01*
X-6185Y-76758D01*
X-6965Y-76603D01*
X-9342D01*
Y-72630D01*
X-12921D01*
Y-70646D01*
X-13077Y-69866D01*
X-13519Y-69204D01*
X-14180Y-68762D01*
X-14961Y-68607D01*
D02*
G37*
G36*
X21079Y-102445D02*
X15067D01*
Y-107276D01*
X21079D01*
Y-102445D01*
D02*
G37*
G36*
X14067D02*
X8055D01*
Y-107276D01*
X14067D01*
Y-102445D01*
D02*
G37*
G36*
X21079Y-108276D02*
X15067D01*
Y-113106D01*
X21079D01*
Y-108276D01*
D02*
G37*
G36*
X14067D02*
X8055D01*
Y-113106D01*
X14067D01*
Y-108276D01*
D02*
G37*
G36*
X-8055Y-110319D02*
X-14067D01*
Y-115150D01*
X-8055D01*
Y-110319D01*
D02*
G37*
G36*
X-15067D02*
X-21079D01*
Y-115150D01*
X-15067D01*
Y-110319D01*
D02*
G37*
G36*
X552Y-107124D02*
X-552D01*
X-1619Y-107410D01*
X-2576Y-107962D01*
X-3357Y-108743D01*
X-3909Y-109700D01*
X-4195Y-110767D01*
Y-111871D01*
X-3909Y-112938D01*
X-3357Y-113895D01*
X-2576Y-114676D01*
X-1619Y-115228D01*
X-552Y-115514D01*
X552D01*
X1619Y-115228D01*
X2576Y-114676D01*
X3357Y-113895D01*
X3909Y-112938D01*
X4195Y-111871D01*
Y-110767D01*
X3909Y-109700D01*
X3357Y-108743D01*
X2576Y-107962D01*
X1619Y-107410D01*
X552Y-107124D01*
D02*
G37*
%LPD*%
D15*
X-14961Y-78642D02*
X-6965D01*
X-22956D02*
X-14961D01*
Y-70646D01*
Y-86637D02*
Y-78642D01*
D16*
X-90261Y-67716D02*
D03*
X-86811Y-71166D02*
D03*
X-83361Y-67716D02*
D03*
X-86811Y-64267D02*
D03*
X-66639Y-67716D02*
D03*
X-63189Y-71166D02*
D03*
X-59739Y-67716D02*
D03*
X-63189Y-64267D02*
D03*
X59739Y-67716D02*
D03*
X63189Y-71166D02*
D03*
X66639Y-67716D02*
D03*
X63189Y-64267D02*
D03*
X83361Y-67716D02*
D03*
X86811Y-71166D02*
D03*
X90261Y-67716D02*
D03*
X86811Y-64267D02*
D03*
X-90261Y82284D02*
D03*
X-86811Y78834D02*
D03*
X-83361Y82284D02*
D03*
X-86811Y85733D02*
D03*
X-66639Y82284D02*
D03*
X-63189Y78834D02*
D03*
X-59739Y82284D02*
D03*
X-63189Y85733D02*
D03*
X59739Y82284D02*
D03*
X63189Y78834D02*
D03*
X66639Y82284D02*
D03*
X63189Y85733D02*
D03*
X83361Y82284D02*
D03*
X86811Y78834D02*
D03*
X90261Y82284D02*
D03*
X86811Y85733D02*
D03*
X-14961Y-70646D02*
D03*
Y-86637D02*
D03*
X-6965Y-78642D02*
D03*
X-22956D02*
D03*
X11811Y10635D02*
D03*
X15261Y7185D02*
D03*
X11811Y3735D02*
D03*
X8361Y7185D02*
D03*
X-15261D02*
D03*
X-11811Y10635D02*
D03*
X-8361Y7185D02*
D03*
X-11811Y3735D02*
D03*
D17*
X14567Y-107776D02*
D03*
X-14567Y-115650D02*
D03*
D18*
X-14961Y-78642D02*
D03*
M02*
