G04*
G04 #@! TF.GenerationSoftware,Altium Limited,Altium Designer,23.8.1 (32)*
G04*
G04 Layer_Color=65535*
%FSLAX25Y25*%
%MOIN*%
G70*
G04*
G04 #@! TF.SameCoordinates,69CDD0E5-7439-40E5-B8CE-76B83E1F4441*
G04*
G04*
G04 #@! TF.FilePolarity,Positive*
G04*
G01*
G75*
%ADD10C,0.00700*%
%ADD11C,0.01000*%
D10*
X82874Y-74902D02*
G03*
X82874Y-74902I-7874J0D01*
G01*
X-67126D02*
G03*
X-67126Y-74902I-7874J0D01*
G01*
X82874Y75098D02*
G03*
X82874Y75098I-7874J0D01*
G01*
X-67126D02*
G03*
X-67126Y75098I-7874J0D01*
G01*
X7874Y0D02*
G03*
X7874Y0I-7874J0D01*
G01*
X64764Y-64567D02*
X85236D01*
X85236Y-64567D01*
Y-85236D02*
Y-64567D01*
X64764Y-85236D02*
X85236D01*
X64764Y-85236D02*
X64764Y-85236D01*
X64764Y-85236D02*
Y-64567D01*
X-85236D02*
X-64764D01*
X-64764Y-64567D01*
Y-85236D02*
Y-64567D01*
X-85236Y-85236D02*
X-64764D01*
X-85236Y-85236D02*
X-85236Y-85236D01*
X-85236Y-85236D02*
Y-64567D01*
X64764Y85433D02*
X85236D01*
X85236Y85433D01*
Y64764D02*
Y85433D01*
X64764Y64764D02*
X85236D01*
X64764Y64764D02*
X64764Y64764D01*
X64764Y64764D02*
Y85433D01*
X-85236D02*
X-64764D01*
X-64764Y85433D01*
Y64764D02*
Y85433D01*
X-85236Y64764D02*
X-64764D01*
X-85236Y64764D02*
X-85236Y64764D01*
X-85236Y64764D02*
Y85433D01*
X-10236Y10335D02*
X10236D01*
X10236Y10335D01*
Y-10335D02*
Y10335D01*
X-10236Y-10335D02*
X10236D01*
X-10236Y-10335D02*
X-10236Y-10335D01*
X-10236Y-10335D02*
Y10335D01*
D11*
X-21993Y99691D02*
X-20993Y100690D01*
X-18994D01*
X-17994Y99691D01*
Y95692D01*
X-18994Y94692D01*
X-20993D01*
X-21993Y95692D01*
Y99691D01*
X-15995Y94692D02*
X-13995D01*
X-14995D01*
Y100690D01*
X-15995Y99691D01*
X-10996Y94692D02*
X-6998Y98691D01*
X-4998Y94692D02*
X-2999D01*
X-3999D01*
Y100690D01*
X-4998Y99691D01*
X0D02*
X1000Y100690D01*
X2999D01*
X3999Y99691D01*
Y95692D01*
X2999Y94692D01*
X1000D01*
X0Y95692D01*
Y99691D01*
X5998Y94692D02*
X9997Y98691D01*
X15995Y94692D02*
X11996D01*
X15995Y98691D01*
Y99691D01*
X14995Y100690D01*
X12996D01*
X11996Y99691D01*
X21993Y100690D02*
X17994D01*
Y97691D01*
X19994Y98691D01*
X20993D01*
X21993Y97691D01*
Y95692D01*
X20993Y94692D01*
X18994D01*
X17994Y95692D01*
X-20493Y105603D02*
Y110602D01*
Y108602D01*
X-21493D01*
X-19494D01*
X-20493D01*
Y110602D01*
X-19494Y111601D01*
X-16495Y105603D02*
X-13496D01*
X-12496Y106603D01*
X-13496Y107603D01*
X-15495D01*
X-16495Y108602D01*
X-15495Y109602D01*
X-12496D01*
X-10497Y111601D02*
Y105603D01*
Y108602D01*
X-9497Y109602D01*
X-7498D01*
X-6498Y108602D01*
Y105603D01*
X1500Y109602D02*
X3499Y105603D01*
X5498Y109602D01*
X7498Y105603D02*
X9497D01*
X8497D01*
Y111601D01*
X7498Y110602D01*
X12496Y105603D02*
Y106603D01*
X13496D01*
Y105603D01*
X12496D01*
X17494Y110602D02*
X18494Y111601D01*
X20493D01*
X21493Y110602D01*
Y106603D01*
X20493Y105603D01*
X18494D01*
X17494Y106603D01*
Y110602D01*
M02*
