G04*
G04 #@! TF.GenerationSoftware,Altium Limited,Altium Designer,23.8.1 (32)*
G04*
G04 Layer_Color=65535*
%FSLAX25Y25*%
%MOIN*%
G70*
G04*
G04 #@! TF.SameCoordinates,B00BB811-4D84-4737-8C1C-C2D0D2789402*
G04*
G04*
G04 #@! TF.FilePolarity,Positive*
G04*
G01*
G75*
%ADD10C,0.05000*%
%ADD11C,0.02362*%
%ADD12C,0.00984*%
%ADD13C,0.00787*%
%ADD14C,0.00591*%
%ADD15C,0.01000*%
D10*
X75000Y0D02*
G03*
X75000Y0I-75000J0D01*
G01*
X125000D02*
G03*
X125000Y0I-125000J0D01*
G01*
D11*
X-44181Y-235595D02*
G03*
X-44181Y-235595I-1181J0D01*
G01*
X38394Y-247114D02*
G03*
X38394Y-247114I-1181J0D01*
G01*
X14587Y-200398D02*
G03*
X14587Y-200398I-1181J0D01*
G01*
D12*
X-53236Y-230654D02*
G03*
X-53236Y-230654I-492J0D01*
G01*
X-9783Y-179283D02*
G03*
X-9783Y-179283I-492J0D01*
G01*
X41839Y-239240D02*
G03*
X41839Y-239240I-492J0D01*
G01*
X90476Y-183811D02*
G03*
X90476Y-183811I-492J0D01*
G01*
D13*
X141748Y-227500D02*
G03*
X141748Y-227500I-15748J0D01*
G01*
X82248Y-196500D02*
G03*
X82248Y-196500I-15748J0D01*
G01*
X141748Y-173500D02*
G03*
X141748Y-173500I-15748J0D01*
G01*
X-49299Y-251343D02*
X-36701D01*
X-49299Y-231658D02*
X-36701D01*
Y-251343D02*
Y-231658D01*
X-49299Y-251343D02*
Y-231658D01*
X-16772Y-178102D02*
X-13228D01*
X-16772Y-165898D02*
X-13228D01*
Y-178102D02*
Y-165898D01*
X-16772Y-178102D02*
Y-165898D01*
X95398Y-210189D02*
X107602D01*
X95398Y-183811D02*
X107602D01*
Y-210189D02*
Y-183811D01*
X95398Y-210189D02*
Y-183811D01*
X-83500Y-244685D02*
X-73500D01*
Y-264685D02*
Y-244685D01*
X-83500Y-264685D02*
X-73500D01*
X-83500D02*
Y-244685D01*
Y-172185D02*
X-73500D01*
Y-192185D02*
Y-172185D01*
X-83500Y-192185D02*
X-73500D01*
X-83500D02*
Y-172185D01*
X143000Y-214500D02*
X153000D01*
X143000D02*
Y-194500D01*
X153000D01*
Y-214500D02*
Y-194500D01*
X-10000Y-163000D02*
Y-153000D01*
X10000D01*
Y-163000D02*
Y-153000D01*
X-10000Y-163000D02*
X10000D01*
X155000Y-10000D02*
X165000D01*
X155000D02*
Y10000D01*
X165000D01*
Y-10000D02*
Y10000D01*
X-10000Y155000D02*
Y165000D01*
X10000D01*
Y155000D02*
Y165000D01*
X-10000Y155000D02*
X10000D01*
X-165000Y-10000D02*
X-155000D01*
X-165000D02*
Y10000D01*
X-155000D01*
Y-10000D02*
Y10000D01*
X-32500Y-272500D02*
Y-262500D01*
X-52500Y-272500D02*
X-32500D01*
X-52500D02*
Y-262500D01*
X-32500D01*
X-40500Y-190000D02*
X-20500D01*
X-40500Y-220000D02*
X-20500D01*
X-40500D02*
Y-190000D01*
X-20500Y-220000D02*
Y-190000D01*
Y-209167D02*
Y-190000D01*
X123500Y-207500D02*
X128500D01*
X126000Y-210000D02*
Y-205000D01*
X64000Y-216500D02*
X69000D01*
X66500Y-219000D02*
Y-214000D01*
X106000Y-176000D02*
Y-171000D01*
X103500Y-173500D02*
X108500D01*
D14*
X34819Y-166335D02*
X37181D01*
X34819Y-170665D02*
X37181D01*
X-79681Y-266835D02*
X-77319D01*
X-79681Y-271165D02*
X-77319D01*
X-79681Y-194335D02*
X-77319D01*
X-79681Y-198665D02*
X-77319D01*
X-61681Y-265335D02*
X-59319D01*
X-61681Y-269665D02*
X-59319D01*
X-30181Y-227165D02*
X-27819D01*
X-30181Y-222835D02*
X-27819D01*
X-5165Y-173181D02*
Y-170819D01*
X-835Y-173181D02*
Y-170819D01*
X-25835Y-172681D02*
Y-170319D01*
X-30165Y-172681D02*
Y-170319D01*
X-68835Y-237681D02*
Y-235319D01*
X-73165Y-237681D02*
Y-235319D01*
X31319Y-233165D02*
X33681D01*
X31319Y-228835D02*
X33681D01*
X31335Y-179681D02*
Y-177319D01*
X35665Y-179681D02*
Y-177319D01*
X23335Y-160181D02*
Y-157819D01*
X27665Y-160181D02*
Y-157819D01*
X-47665Y-219681D02*
Y-217319D01*
X-43335Y-219681D02*
Y-217319D01*
X80319Y-177165D02*
X82681D01*
X80319Y-172835D02*
X82681D01*
X95319Y-177165D02*
X97681D01*
X95319Y-172835D02*
X97681D01*
D15*
X25402Y-256169D02*
X40677D01*
X25402Y-243571D02*
X40677D01*
Y-256169D02*
Y-243571D01*
X25402Y-256169D02*
Y-243571D01*
X27209Y-178874D02*
Y-174150D01*
X16185D02*
X27209D01*
X16185Y-178874D02*
Y-174150D01*
Y-178874D02*
X27209D01*
X-17028Y-212287D02*
X16969D01*
X-17028D02*
Y-197130D01*
X16969D01*
Y-212287D02*
Y-197130D01*
X11811Y-279839D02*
Y-222752D01*
X-11811Y-279839D02*
Y-222752D01*
X11811D01*
X-11811Y-279839D02*
X11811D01*
X9843Y-290862D02*
Y-281020D01*
X-9843Y-290862D02*
Y-281020D01*
X9843D01*
X-9843Y-290862D02*
X9843D01*
X-23329Y3332D02*
X-16665D01*
X-19997D01*
Y-6664D01*
X-8334Y3332D02*
X-11666D01*
X-13332Y1666D01*
Y-4998D01*
X-11666Y-6664D01*
X-8334D01*
X-6668Y-4998D01*
Y1666D01*
X-8334Y3332D01*
X-3336D02*
Y-4998D01*
X-1669Y-6664D01*
X1663D01*
X3329Y-4998D01*
Y3332D01*
X13326Y1666D02*
X11660Y3332D01*
X8327D01*
X6661Y1666D01*
Y-4998D01*
X8327Y-6664D01*
X11660D01*
X13326Y-4998D01*
X16658Y3332D02*
Y-6664D01*
Y-1666D01*
X23323D01*
Y3332D01*
Y-6664D01*
X-19500Y-222000D02*
Y-221000D01*
X-18500D01*
Y-222000D01*
X-19500D01*
X27815Y-170425D02*
X28815D01*
Y-171425D01*
X27815D01*
Y-170425D01*
X17575Y-193425D02*
X18575D01*
Y-194425D01*
X17575D01*
Y-193425D01*
M02*
