M48
;Layer_Color=9474304
;FILE_FORMAT=2:5
INCH,LZ
;TYPE=PLATED
T01F00S00C0.01200
T02F00S00C0.03000
T03F00S00C0.03543
T04F00S00C0.14370
;TYPE=NON_PLATED
T05F00S00C0.06890
%
T01
X-01085Y-02085
X-0071Y-02285
X-00585Y-0244
Y-0249
X-00275Y-0249
X-0009961Y-021
X-0015Y-02
X-00025Y-01885
X0019Y-02115
X0024504Y-023924
X00745Y-0175
X0073807Y-01665
X00215Y-0167504
X00105Y-01685
X001776Y-01775
X-0003Y-0165
X-00195Y-01795
X-0028Y-01785
T02
X-013Y-0253819
X-012
X-011
X0147992Y-0242402
Y-0188898
X-011Y-0181319
X-012
X-013
T03
X-00785Y-0259685
Y-0249685
X-00475Y-02675
X-00375
X-00355Y-0215
X-00255
Y-0205
X-00355
Y-0195
X-00255
X-00785Y-0187185
X00665Y-018961
Y-020339
X0126Y-022061
Y-023439
X0148Y-02095
Y-01995
X013289Y-01735
X011911
X0005Y-0158
X-0005
X-00785Y-0177185
X-016Y-0005
Y0005
X016
Y-0005
X0005Y016
X-0005
T04
X0045Y-0215
T05
X-0Y-0266059
Y-02385
M30
