G04*
G04 #@! TF.GenerationSoftware,Altium Limited,Altium Designer,23.8.1 (32)*
G04*
G04 Layer_Color=8388736*
%FSLAX25Y25*%
%MOIN*%
G70*
G04*
G04 #@! TF.SameCoordinates,B00BB811-4D84-4737-8C1C-C2D0D2789402*
G04*
G04*
G04 #@! TF.FilePolarity,Negative*
G04*
G01*
G75*
G04:AMPARAMS|DCode=32|XSize=55.12mil|YSize=33.86mil|CornerRadius=5.71mil|HoleSize=0mil|Usage=FLASHONLY|Rotation=90.000|XOffset=0mil|YOffset=0mil|HoleType=Round|Shape=RoundedRectangle|*
%AMROUNDEDRECTD32*
21,1,0.05512,0.02244,0,0,90.0*
21,1,0.04370,0.03386,0,0,90.0*
1,1,0.01142,0.01122,0.02185*
1,1,0.01142,0.01122,-0.02185*
1,1,0.01142,-0.01122,-0.02185*
1,1,0.01142,-0.01122,0.02185*
%
%ADD32ROUNDEDRECTD32*%
%ADD33O,0.06102X0.02756*%
%ADD34R,0.04331X0.03150*%
G04:AMPARAMS|DCode=35|XSize=64.57mil|YSize=27.56mil|CornerRadius=7.87mil|HoleSize=0mil|Usage=FLASHONLY|Rotation=270.000|XOffset=0mil|YOffset=0mil|HoleType=Round|Shape=RoundedRectangle|*
%AMROUNDEDRECTD35*
21,1,0.06457,0.01181,0,0,270.0*
21,1,0.04882,0.02756,0,0,270.0*
1,1,0.01575,-0.00591,-0.02441*
1,1,0.01575,-0.00591,0.02441*
1,1,0.01575,0.00591,0.02441*
1,1,0.01575,0.00591,-0.02441*
%
%ADD35ROUNDEDRECTD35*%
G04:AMPARAMS|DCode=36|XSize=47.24mil|YSize=27.56mil|CornerRadius=7.87mil|HoleSize=0mil|Usage=FLASHONLY|Rotation=270.000|XOffset=0mil|YOffset=0mil|HoleType=Round|Shape=RoundedRectangle|*
%AMROUNDEDRECTD36*
21,1,0.04724,0.01181,0,0,270.0*
21,1,0.03150,0.02756,0,0,270.0*
1,1,0.01575,-0.00591,-0.01575*
1,1,0.01575,-0.00591,0.01575*
1,1,0.01575,0.00591,0.01575*
1,1,0.01575,0.00591,-0.01575*
%
%ADD36ROUNDEDRECTD36*%
%ADD37R,0.02756X0.04724*%
%ADD38R,0.08858X0.12992*%
%ADD39R,0.08858X0.04331*%
G04:AMPARAMS|DCode=40|XSize=27.56mil|YSize=64.96mil|CornerRadius=7.87mil|HoleSize=0mil|Usage=FLASHONLY|Rotation=180.000|XOffset=0mil|YOffset=0mil|HoleType=Round|Shape=RoundedRectangle|*
%AMROUNDEDRECTD40*
21,1,0.02756,0.04921,0,0,180.0*
21,1,0.01181,0.06496,0,0,180.0*
1,1,0.01575,-0.00591,0.02461*
1,1,0.01575,0.00591,0.02461*
1,1,0.01575,0.00591,-0.02461*
1,1,0.01575,-0.00591,-0.02461*
%
%ADD40ROUNDEDRECTD40*%
%ADD41R,0.02756X0.06496*%
G04:AMPARAMS|DCode=42|XSize=55.12mil|YSize=33.86mil|CornerRadius=5.71mil|HoleSize=0mil|Usage=FLASHONLY|Rotation=180.000|XOffset=0mil|YOffset=0mil|HoleType=Round|Shape=RoundedRectangle|*
%AMROUNDEDRECTD42*
21,1,0.05512,0.02244,0,0,180.0*
21,1,0.04370,0.03386,0,0,180.0*
1,1,0.01142,-0.02185,0.01122*
1,1,0.01142,0.02185,0.01122*
1,1,0.01142,0.02185,-0.01122*
1,1,0.01142,-0.02185,-0.01122*
%
%ADD42ROUNDEDRECTD42*%
%ADD43R,0.11417X0.09055*%
%ADD44R,0.10630X0.11417*%
%ADD45R,0.05118X0.05906*%
%ADD46R,0.05906X0.05118*%
%ADD47C,0.06394*%
%ADD48C,0.00394*%
%ADD49R,0.06299X0.06299*%
%ADD50C,0.06299*%
%ADD51R,0.06299X0.06299*%
%ADD52C,0.05906*%
%ADD53R,0.05906X0.05906*%
%ADD54R,0.05906X0.05906*%
%ADD55C,0.02794*%
D32*
X32457Y-168500D02*
D03*
X39504D02*
D03*
X-82043Y-269000D02*
D03*
X-74996D02*
D03*
X-82043Y-196500D02*
D03*
X-74996D02*
D03*
X-64043Y-267500D02*
D03*
X-56996D02*
D03*
X-25457Y-225000D02*
D03*
X-32504D02*
D03*
X36043Y-231000D02*
D03*
X28996D02*
D03*
X85043Y-175000D02*
D03*
X77996D02*
D03*
X100043D02*
D03*
X92996D02*
D03*
D33*
X-32272Y-249000D02*
D03*
Y-244000D02*
D03*
Y-239000D02*
D03*
Y-234000D02*
D03*
X-53728Y-249000D02*
D03*
Y-244000D02*
D03*
Y-239000D02*
D03*
Y-234000D02*
D03*
D34*
X-10276Y-175740D02*
D03*
Y-172000D02*
D03*
Y-168260D02*
D03*
X-19724D02*
D03*
Y-172000D02*
D03*
Y-175740D02*
D03*
D35*
X28000Y-239240D02*
D03*
X38000D02*
D03*
X28000Y-260500D02*
D03*
X38000D02*
D03*
D36*
X17760Y-182024D02*
D03*
X21500D02*
D03*
X25240D02*
D03*
X17760Y-171000D02*
D03*
X21500D02*
D03*
D37*
X25240D02*
D03*
D38*
X113016Y-197000D02*
D03*
D39*
X89984Y-206055D02*
D03*
Y-197000D02*
D03*
Y-187945D02*
D03*
D40*
X-0Y-194000D02*
D03*
X10000D02*
D03*
X5000D02*
D03*
X-5000D02*
D03*
X-10000D02*
D03*
X-15000D02*
D03*
X15039Y-215260D02*
D03*
X10039D02*
D03*
X5039D02*
D03*
X39D02*
D03*
X-4961D02*
D03*
X-9961D02*
D03*
X-14961D02*
D03*
D41*
X15000Y-194000D02*
D03*
D42*
X-3000Y-175543D02*
D03*
Y-168496D02*
D03*
X-28000Y-167957D02*
D03*
Y-175004D02*
D03*
X-71000Y-232957D02*
D03*
Y-240004D02*
D03*
X33500Y-182043D02*
D03*
Y-174996D02*
D03*
X25500Y-162543D02*
D03*
Y-155496D02*
D03*
X-45500Y-222043D02*
D03*
Y-214996D02*
D03*
D43*
X-14567Y-262516D02*
D03*
X14567Y-270390D02*
D03*
D44*
X14961Y-233382D02*
D03*
D45*
X-49347Y-257500D02*
D03*
X-42654D02*
D03*
X-120000Y-208500D02*
D03*
X-113307D02*
D03*
X85000Y-166500D02*
D03*
X78307D02*
D03*
D46*
X-62500Y-239846D02*
D03*
Y-233154D02*
D03*
X10500Y-179693D02*
D03*
Y-173000D02*
D03*
X23000Y-201153D02*
D03*
Y-207846D02*
D03*
D47*
X-130000Y-253819D02*
D03*
X-120000D02*
D03*
X-110000D02*
D03*
X-130000Y-181319D02*
D03*
X-120000D02*
D03*
X-110000D02*
D03*
X147992Y-242402D02*
D03*
Y-188898D02*
D03*
D48*
X45000Y-215000D02*
D03*
X-0Y-266059D02*
D03*
Y-238500D02*
D03*
D49*
X-78500Y-259685D02*
D03*
Y-187185D02*
D03*
X148000Y-199500D02*
D03*
X160000Y5000D02*
D03*
X-160000D02*
D03*
X-25500Y-215000D02*
D03*
D50*
X-78500Y-249685D02*
D03*
Y-177185D02*
D03*
X148000Y-209500D02*
D03*
X-5000Y-158000D02*
D03*
X160000Y-5000D02*
D03*
X-5000Y160000D02*
D03*
X-160000Y-5000D02*
D03*
X-37500Y-267500D02*
D03*
X-35500Y-215000D02*
D03*
X-25500Y-205000D02*
D03*
X-35500D02*
D03*
X-25500Y-195000D02*
D03*
X-35500D02*
D03*
D51*
X5000Y-158000D02*
D03*
Y160000D02*
D03*
X-47500Y-267500D02*
D03*
D52*
X126000Y-234390D02*
D03*
X66500Y-189610D02*
D03*
X132890Y-173500D02*
D03*
D53*
X126000Y-220610D02*
D03*
X66500Y-203390D02*
D03*
D54*
X119110Y-173500D02*
D03*
D55*
X-108500Y-208500D02*
D03*
X-27500Y-249000D02*
D03*
X-58500Y-249000D02*
D03*
Y-244000D02*
D03*
X24504Y-239240D02*
D03*
X74500Y-175000D02*
D03*
X73807Y-166500D02*
D03*
X19000Y-211500D02*
D03*
X21500Y-167504D02*
D03*
X10500Y-168500D02*
D03*
X-3000Y-165000D02*
D03*
X-28000Y-178500D02*
D03*
X-19500Y-179500D02*
D03*
X-71000Y-228500D02*
D03*
X-2500Y-188500D02*
D03*
X-15000Y-200000D02*
D03*
X-9961Y-210000D02*
D03*
X17760Y-177500D02*
D03*
M02*
