G04*
G04 #@! TF.GenerationSoftware,Altium Limited,Altium Designer,23.8.1 (32)*
G04*
G04 Layer_Physical_Order=1*
G04 Layer_Color=255*
%FSLAX25Y25*%
%MOIN*%
G70*
G04*
G04 #@! TF.SameCoordinates,B00BB811-4D84-4737-8C1C-C2D0D2789402*
G04*
G04*
G04 #@! TF.FilePolarity,Positive*
G04*
G01*
G75*
G04:AMPARAMS|DCode=16|XSize=51.18mil|YSize=29.92mil|CornerRadius=3.74mil|HoleSize=0mil|Usage=FLASHONLY|Rotation=90.000|XOffset=0mil|YOffset=0mil|HoleType=Round|Shape=RoundedRectangle|*
%AMROUNDEDRECTD16*
21,1,0.05118,0.02244,0,0,90.0*
21,1,0.04370,0.02992,0,0,90.0*
1,1,0.00748,0.01122,0.02185*
1,1,0.00748,0.01122,-0.02185*
1,1,0.00748,-0.01122,-0.02185*
1,1,0.00748,-0.01122,0.02185*
%
%ADD16ROUNDEDRECTD16*%
%ADD17C,3.00000*%
%ADD18O,0.05709X0.02362*%
%ADD19R,0.03937X0.02756*%
G04:AMPARAMS|DCode=20|XSize=60.63mil|YSize=23.62mil|CornerRadius=5.91mil|HoleSize=0mil|Usage=FLASHONLY|Rotation=270.000|XOffset=0mil|YOffset=0mil|HoleType=Round|Shape=RoundedRectangle|*
%AMROUNDEDRECTD20*
21,1,0.06063,0.01181,0,0,270.0*
21,1,0.04882,0.02362,0,0,270.0*
1,1,0.01181,-0.00591,-0.02441*
1,1,0.01181,-0.00591,0.02441*
1,1,0.01181,0.00591,0.02441*
1,1,0.01181,0.00591,-0.02441*
%
%ADD20ROUNDEDRECTD20*%
G04:AMPARAMS|DCode=21|XSize=43.31mil|YSize=23.62mil|CornerRadius=5.91mil|HoleSize=0mil|Usage=FLASHONLY|Rotation=270.000|XOffset=0mil|YOffset=0mil|HoleType=Round|Shape=RoundedRectangle|*
%AMROUNDEDRECTD21*
21,1,0.04331,0.01181,0,0,270.0*
21,1,0.03150,0.02362,0,0,270.0*
1,1,0.01181,-0.00591,-0.01575*
1,1,0.01181,-0.00591,0.01575*
1,1,0.01181,0.00591,0.01575*
1,1,0.01181,0.00591,-0.01575*
%
%ADD21ROUNDEDRECTD21*%
%ADD22R,0.02362X0.04331*%
%ADD23R,0.08465X0.12598*%
%ADD24R,0.08465X0.03937*%
G04:AMPARAMS|DCode=25|XSize=23.62mil|YSize=61.02mil|CornerRadius=5.91mil|HoleSize=0mil|Usage=FLASHONLY|Rotation=180.000|XOffset=0mil|YOffset=0mil|HoleType=Round|Shape=RoundedRectangle|*
%AMROUNDEDRECTD25*
21,1,0.02362,0.04921,0,0,180.0*
21,1,0.01181,0.06102,0,0,180.0*
1,1,0.01181,-0.00591,0.02461*
1,1,0.01181,0.00591,0.02461*
1,1,0.01181,0.00591,-0.02461*
1,1,0.01181,-0.00591,-0.02461*
%
%ADD25ROUNDEDRECTD25*%
%ADD26R,0.02362X0.06102*%
G04:AMPARAMS|DCode=27|XSize=51.18mil|YSize=29.92mil|CornerRadius=3.74mil|HoleSize=0mil|Usage=FLASHONLY|Rotation=180.000|XOffset=0mil|YOffset=0mil|HoleType=Round|Shape=RoundedRectangle|*
%AMROUNDEDRECTD27*
21,1,0.05118,0.02244,0,0,180.0*
21,1,0.04370,0.02992,0,0,180.0*
1,1,0.00748,-0.02185,0.01122*
1,1,0.00748,0.02185,0.01122*
1,1,0.00748,0.02185,-0.01122*
1,1,0.00748,-0.02185,-0.01122*
%
%ADD27ROUNDEDRECTD27*%
%ADD28R,0.11024X0.08661*%
%ADD29R,0.10236X0.11024*%
%ADD30R,0.04724X0.05512*%
%ADD31R,0.05512X0.04724*%
%ADD52C,0.05906*%
%ADD53R,0.05906X0.05906*%
%ADD54R,0.05906X0.05906*%
%ADD56C,0.02000*%
%ADD57C,0.04000*%
%ADD58C,0.07874*%
%ADD59C,0.06000*%
%ADD60C,0.05512*%
%ADD61R,0.05512X0.05512*%
%ADD62R,0.05512X0.05512*%
%ADD63C,0.02400*%
G36*
X23559Y-173665D02*
Y-173665D01*
X25538D01*
X25730Y-174127D01*
X23886Y-175971D01*
X18510D01*
X18098Y-175800D01*
X17422D01*
X16797Y-176059D01*
X16319Y-176537D01*
X16060Y-177162D01*
Y-177838D01*
X16230Y-178250D01*
Y-179891D01*
X16142Y-180023D01*
X16057Y-180449D01*
Y-183598D01*
X16142Y-184024D01*
X16383Y-184385D01*
X16744Y-184626D01*
X17169Y-184710D01*
X18350D01*
X18776Y-184626D01*
X19137Y-184385D01*
X19160Y-184351D01*
X19792Y-184294D01*
X19971Y-184475D01*
Y-185471D01*
X14133D01*
X12029Y-183367D01*
Y-182555D01*
X13756D01*
Y-176831D01*
X9286D01*
X9138Y-176801D01*
X8464D01*
X7987Y-176324D01*
X8178Y-175862D01*
X13756D01*
Y-174475D01*
X20173Y-173880D01*
X21562Y-173687D01*
X22091D01*
X22516Y-173602D01*
X22608Y-173541D01*
X23304Y-173444D01*
X23559Y-173665D01*
D02*
G37*
G36*
X159952Y-271838D02*
X156838Y-274952D01*
X20579D01*
Y-271919D01*
X29961D01*
X30546Y-271803D01*
X31042Y-271471D01*
X38460Y-264053D01*
X38591D01*
X39016Y-263968D01*
X39377Y-263727D01*
X39618Y-263366D01*
X39702Y-262941D01*
Y-258059D01*
X39618Y-257634D01*
X39377Y-257273D01*
X39016Y-257032D01*
X38591Y-256947D01*
X37409D01*
X36984Y-257032D01*
X36623Y-257273D01*
X36382Y-257634D01*
X36298Y-258059D01*
Y-261890D01*
X29327Y-268860D01*
X20579D01*
Y-265559D01*
X8555D01*
Y-269724D01*
X2974D01*
X2767Y-269225D01*
X3357Y-268635D01*
X3909Y-267678D01*
X4195Y-266611D01*
Y-265507D01*
X3909Y-264440D01*
X3357Y-263483D01*
X2576Y-262702D01*
X1619Y-262150D01*
X552Y-261864D01*
X-552D01*
X-1619Y-262150D01*
X-2576Y-262702D01*
X-3357Y-263483D01*
X-3909Y-264440D01*
X-4195Y-265507D01*
Y-266611D01*
X-3909Y-267678D01*
X-3357Y-268635D01*
X-2767Y-269225D01*
X-2974Y-269724D01*
X-4014D01*
X-8555Y-265184D01*
Y-257685D01*
X-20579D01*
Y-267347D01*
X-10718D01*
X-5729Y-272335D01*
X-5233Y-272667D01*
X-4648Y-272783D01*
X8555D01*
Y-274952D01*
X-67136D01*
X-67327Y-274490D01*
X-63458Y-270621D01*
X-63428Y-270576D01*
X-62921D01*
X-62580Y-270508D01*
X-62291Y-270315D01*
X-62098Y-270026D01*
X-62030Y-269685D01*
Y-266587D01*
X-54473Y-259029D01*
X-52209D01*
Y-260756D01*
X-46484D01*
Y-254244D01*
X-46971D01*
Y-235500D01*
X-47087Y-234915D01*
X-47419Y-234419D01*
X-48919Y-232919D01*
X-49415Y-232587D01*
X-50000Y-232471D01*
X-51318D01*
X-51399Y-232416D01*
X-52055Y-232286D01*
X-55402D01*
X-56058Y-232416D01*
X-56139Y-232471D01*
X-59244D01*
Y-230291D01*
X-65756D01*
Y-236016D01*
X-59244D01*
Y-235529D01*
X-56138D01*
X-56058Y-235584D01*
X-55402Y-235714D01*
X-52055D01*
X-51399Y-235584D01*
X-51318Y-235529D01*
X-50634D01*
X-50029Y-236134D01*
Y-238174D01*
X-50122Y-238210D01*
X-50529Y-238258D01*
X-50843Y-237788D01*
X-51399Y-237416D01*
X-52055Y-237286D01*
X-55402D01*
X-56058Y-237416D01*
X-56242Y-237540D01*
X-59244D01*
Y-236984D01*
X-65756D01*
Y-238396D01*
X-68089D01*
X-68185Y-238252D01*
X-68474Y-238059D01*
X-68815Y-237991D01*
X-73185D01*
X-73526Y-238059D01*
X-73815Y-238252D01*
X-73911Y-238396D01*
X-116106D01*
X-116692Y-238512D01*
X-117188Y-238844D01*
X-128848Y-250504D01*
X-129539Y-250319D01*
X-130461D01*
X-131351Y-250557D01*
X-132149Y-251018D01*
X-132801Y-251670D01*
X-133262Y-252468D01*
X-133500Y-253358D01*
Y-254280D01*
X-133262Y-255170D01*
X-132801Y-255968D01*
X-132149Y-256620D01*
X-131351Y-257080D01*
X-130461Y-257319D01*
X-129539D01*
X-128649Y-257080D01*
X-127851Y-256620D01*
X-127199Y-255968D01*
X-126739Y-255170D01*
X-126500Y-254280D01*
Y-253358D01*
X-126685Y-252667D01*
X-115473Y-241455D01*
X-74011D01*
X-74008Y-241467D01*
X-73815Y-241756D01*
X-73526Y-241949D01*
X-73185Y-242017D01*
X-68815D01*
X-68474Y-241949D01*
X-68185Y-241756D01*
X-67992Y-241467D01*
X-67989Y-241455D01*
X-65756D01*
Y-242709D01*
X-60266D01*
X-60012Y-243209D01*
X-60200Y-243662D01*
Y-244338D01*
X-59941Y-244963D01*
X-59463Y-245441D01*
X-58838Y-245700D01*
X-58162D01*
X-57750Y-245529D01*
X-56139D01*
X-56058Y-245584D01*
X-55402Y-245714D01*
X-52055D01*
X-51399Y-245584D01*
X-50843Y-245212D01*
X-50529Y-244742D01*
X-50122Y-244790D01*
X-50029Y-244826D01*
Y-248174D01*
X-50122Y-248210D01*
X-50529Y-248257D01*
X-50843Y-247788D01*
X-51399Y-247416D01*
X-52055Y-247286D01*
X-55402D01*
X-56058Y-247416D01*
X-56139Y-247471D01*
X-57750D01*
X-58162Y-247300D01*
X-58838D01*
X-59463Y-247559D01*
X-59941Y-248037D01*
X-60200Y-248662D01*
Y-249338D01*
X-59941Y-249963D01*
X-59463Y-250441D01*
X-58838Y-250700D01*
X-58162D01*
X-57750Y-250529D01*
X-56139D01*
X-56058Y-250584D01*
X-55402Y-250714D01*
X-52055D01*
X-51399Y-250584D01*
X-50843Y-250212D01*
X-50529Y-249743D01*
X-50122Y-249790D01*
X-50029Y-249826D01*
Y-254244D01*
X-52209D01*
Y-255971D01*
X-55106D01*
X-55692Y-256087D01*
X-56188Y-256419D01*
X-64193Y-264424D01*
X-65165D01*
X-65506Y-264492D01*
X-65795Y-264685D01*
X-65989Y-264974D01*
X-66057Y-265315D01*
Y-267934D01*
X-66069Y-267996D01*
Y-268906D01*
X-70134Y-272971D01*
X-80292D01*
X-80385Y-272479D01*
X-79931Y-272176D01*
X-79627Y-271721D01*
X-79520Y-271185D01*
Y-269500D01*
X-82043D01*
X-84566D01*
Y-271185D01*
X-84460Y-271721D01*
X-84156Y-272176D01*
X-83701Y-272479D01*
X-83795Y-272971D01*
X-98685D01*
X-116685Y-254971D01*
X-116500Y-254280D01*
Y-253358D01*
X-116738Y-252468D01*
X-117199Y-251670D01*
X-117851Y-251018D01*
X-118649Y-250557D01*
X-119539Y-250319D01*
X-120461D01*
X-121351Y-250557D01*
X-122149Y-251018D01*
X-122801Y-251670D01*
X-123261Y-252468D01*
X-123500Y-253358D01*
Y-254280D01*
X-123261Y-255170D01*
X-122801Y-255968D01*
X-122149Y-256620D01*
X-121351Y-257080D01*
X-120461Y-257319D01*
X-119539D01*
X-118848Y-257134D01*
X-101492Y-274490D01*
X-101683Y-274952D01*
X-156838D01*
X-159952Y-271838D01*
Y-155000D01*
X-81325D01*
X-74385Y-158456D01*
X-66988Y-161722D01*
X-59447Y-164643D01*
X-51780Y-167213D01*
X-44002Y-169426D01*
X-43798Y-169474D01*
X-43856Y-169971D01*
X-110181D01*
X-110766Y-170087D01*
X-111263Y-170419D01*
X-118848Y-178004D01*
X-119539Y-177819D01*
X-120461D01*
X-121351Y-178057D01*
X-122149Y-178518D01*
X-122801Y-179170D01*
X-123261Y-179968D01*
X-123500Y-180858D01*
Y-181780D01*
X-123261Y-182670D01*
X-122801Y-183468D01*
X-122149Y-184120D01*
X-121529Y-184477D01*
Y-205244D01*
X-122862D01*
Y-211756D01*
X-117138D01*
Y-205244D01*
X-118471D01*
Y-184477D01*
X-117851Y-184120D01*
X-117199Y-183468D01*
X-116738Y-182670D01*
X-116500Y-181780D01*
Y-180858D01*
X-116685Y-180167D01*
X-109548Y-173029D01*
X-38500D01*
X-37915Y-172913D01*
X-37419Y-172581D01*
X-36117Y-171280D01*
X-29639Y-172491D01*
X-29686Y-172991D01*
X-30185D01*
X-30526Y-173059D01*
X-30815Y-173252D01*
X-31008Y-173541D01*
X-31076Y-173882D01*
Y-176126D01*
X-31008Y-176467D01*
X-30815Y-176756D01*
X-30526Y-176949D01*
X-30185Y-177017D01*
X-29529D01*
Y-177750D01*
X-29700Y-178162D01*
Y-178838D01*
X-29441Y-179463D01*
X-28963Y-179941D01*
X-28338Y-180200D01*
X-27662D01*
X-27037Y-179941D01*
X-26559Y-179463D01*
X-26300Y-178838D01*
Y-178162D01*
X-26471Y-177750D01*
Y-177017D01*
X-25815D01*
X-25474Y-176949D01*
X-25185Y-176756D01*
X-24992Y-176467D01*
X-24924Y-176126D01*
Y-173882D01*
X-24956Y-173718D01*
X-24678Y-173334D01*
X-24575Y-173266D01*
X-22193Y-173599D01*
Y-177618D01*
X-21106D01*
Y-178935D01*
X-21200Y-179162D01*
Y-179838D01*
X-20941Y-180463D01*
X-20463Y-180941D01*
X-19838Y-181200D01*
X-19162D01*
X-18537Y-180941D01*
X-18059Y-180463D01*
X-17800Y-179838D01*
Y-179162D01*
X-18047Y-178565D01*
Y-177618D01*
X-17256D01*
Y-175819D01*
X-16756Y-175577D01*
X-16529Y-175754D01*
Y-177500D01*
X-16413Y-178085D01*
X-16081Y-178581D01*
X-8737Y-185926D01*
X-8241Y-186257D01*
X-7656Y-186373D01*
X-3115D01*
X-3016Y-186873D01*
X-3463Y-187059D01*
X-3941Y-187537D01*
X-4200Y-188162D01*
Y-188838D01*
X-3941Y-189463D01*
X-3463Y-189941D01*
X-3051Y-190112D01*
X-1711Y-191452D01*
Y-193819D01*
X-1702Y-193859D01*
Y-196461D01*
X-1618Y-196886D01*
X-1377Y-197247D01*
X-1016Y-197488D01*
X-591Y-197573D01*
X591D01*
X1016Y-197488D01*
X1377Y-197247D01*
X1618Y-196886D01*
X1702Y-196461D01*
Y-191539D01*
X1618Y-191114D01*
X1377Y-190753D01*
X1329Y-190721D01*
X1232Y-190234D01*
X900Y-189737D01*
X-888Y-187949D01*
X-1059Y-187537D01*
X-1537Y-187059D01*
X-1984Y-186873D01*
X-1885Y-186373D01*
X211D01*
X3471Y-189634D01*
Y-190981D01*
X3382Y-191114D01*
X3297Y-191539D01*
Y-196461D01*
X3382Y-196886D01*
X3623Y-197247D01*
X3984Y-197488D01*
X4409Y-197573D01*
X5590D01*
X6016Y-197488D01*
X6377Y-197247D01*
X6618Y-196886D01*
X6702Y-196461D01*
Y-191539D01*
X6618Y-191114D01*
X6529Y-190981D01*
Y-189000D01*
X6413Y-188415D01*
X6081Y-187919D01*
X1926Y-183763D01*
X1429Y-183431D01*
X844Y-183315D01*
X-7022D01*
X-12257Y-178080D01*
X-12066Y-177618D01*
X-7807D01*
Y-177171D01*
X-5898D01*
X-5815Y-177295D01*
X-5526Y-177489D01*
X-5185Y-177557D01*
X-815D01*
X-474Y-177489D01*
X-185Y-177295D01*
X375Y-177357D01*
X471Y-177433D01*
Y-180500D01*
X587Y-181085D01*
X919Y-181581D01*
X8471Y-189134D01*
Y-190981D01*
X8382Y-191114D01*
X8298Y-191539D01*
Y-196461D01*
X8382Y-196886D01*
X8623Y-197247D01*
X8984Y-197488D01*
X9409Y-197573D01*
X10590D01*
X11016Y-197488D01*
X11377Y-197247D01*
X11618Y-196886D01*
X11703Y-196461D01*
Y-191539D01*
X11618Y-191114D01*
X11529Y-190981D01*
Y-188500D01*
X11413Y-187915D01*
X11148Y-187518D01*
X11536Y-187199D01*
X12419Y-188081D01*
X12915Y-188413D01*
X13500Y-188529D01*
X20076D01*
X20087Y-188585D01*
X20418Y-189081D01*
X21918Y-190581D01*
X22415Y-190913D01*
X23000Y-191029D01*
X32866D01*
X46308Y-204471D01*
X46804Y-204803D01*
X47390Y-204919D01*
X62331D01*
X62624Y-205627D01*
X63244Y-206435D01*
Y-206646D01*
X63427D01*
X66001Y-209220D01*
X66928Y-209931D01*
X68007Y-210378D01*
X69165Y-210530D01*
X86542D01*
X86820Y-210893D01*
X99702Y-223775D01*
X100628Y-224486D01*
X101708Y-224933D01*
X102866Y-225085D01*
X136890D01*
X138048Y-224933D01*
X139127Y-224486D01*
X140054Y-223775D01*
X151164Y-212665D01*
X151876Y-211738D01*
X152323Y-210658D01*
X152475Y-209500D01*
X152323Y-208342D01*
X151876Y-207262D01*
X151164Y-206335D01*
X150238Y-205624D01*
X149158Y-205177D01*
X148000Y-205025D01*
X146842Y-205177D01*
X145762Y-205624D01*
X144835Y-206335D01*
X135036Y-216135D01*
X104720D01*
X94717Y-206132D01*
Y-203587D01*
X93683D01*
X93149Y-202891D01*
X92222Y-202179D01*
X91142Y-201732D01*
X89984Y-201580D01*
X71019D01*
X69756Y-200317D01*
Y-200134D01*
X69545D01*
X68738Y-199514D01*
X67658Y-199067D01*
X66500Y-198915D01*
X65342Y-199067D01*
X64262Y-199514D01*
X63455Y-200134D01*
X63244D01*
Y-200344D01*
X62624Y-201152D01*
X62331Y-201860D01*
X48023D01*
X34581Y-188419D01*
X34085Y-188087D01*
X33500Y-187971D01*
X23633D01*
X23029Y-187366D01*
Y-184156D01*
X23114Y-184030D01*
X23147Y-184024D01*
X23593D01*
X23626Y-184030D01*
X23863Y-184385D01*
X24224Y-184626D01*
X24650Y-184710D01*
X25831D01*
X26256Y-184626D01*
X26617Y-184385D01*
X26858Y-184024D01*
X26943Y-183598D01*
Y-183563D01*
X30529D01*
X30685Y-183795D01*
X30974Y-183989D01*
X31315Y-184056D01*
X35685D01*
X36026Y-183989D01*
X36315Y-183795D01*
X36508Y-183506D01*
X36576Y-183165D01*
Y-180921D01*
X36508Y-180580D01*
X36315Y-180291D01*
X36026Y-180098D01*
X35685Y-180030D01*
X31315D01*
X30974Y-180098D01*
X30685Y-180291D01*
X30543Y-180504D01*
X26943D01*
Y-180449D01*
X26858Y-180023D01*
X26617Y-179663D01*
X26256Y-179421D01*
X25831Y-179337D01*
X25341D01*
X25219Y-178837D01*
X25601Y-178581D01*
X29452Y-174731D01*
X29914Y-174922D01*
Y-176118D01*
X30021Y-176654D01*
X30324Y-177109D01*
X30779Y-177412D01*
X31315Y-177519D01*
X33000D01*
Y-174996D01*
X33500D01*
Y-174496D01*
X37226D01*
X39636Y-172086D01*
X40626D01*
X41162Y-171979D01*
X41617Y-171676D01*
X41920Y-171221D01*
X42027Y-170685D01*
Y-169890D01*
X44002Y-169426D01*
X51780Y-167213D01*
X59447Y-164643D01*
X66988Y-161722D01*
X74385Y-158456D01*
X81325Y-155000D01*
X159952D01*
Y-271838D01*
D02*
G37*
%LPC*%
G36*
X81169Y-163244D02*
X75445D01*
Y-164971D01*
X74557D01*
X74145Y-164800D01*
X73469D01*
X72844Y-165059D01*
X72366Y-165537D01*
X72107Y-166162D01*
Y-166838D01*
X72366Y-167463D01*
X72844Y-167941D01*
X73469Y-168200D01*
X74145D01*
X74557Y-168029D01*
X75445D01*
Y-169756D01*
X81169D01*
Y-163244D01*
D02*
G37*
G36*
X122866Y-169744D02*
X119610D01*
Y-173000D01*
X122866D01*
Y-169744D01*
D02*
G37*
G36*
X118610D02*
X115354D01*
Y-173000D01*
X118610D01*
Y-169744D01*
D02*
G37*
G36*
X79118Y-171924D02*
X76874D01*
X76533Y-171992D01*
X76244Y-172185D01*
X76051Y-172474D01*
X75983Y-172815D01*
Y-173471D01*
X75250D01*
X74838Y-173300D01*
X74162D01*
X73537Y-173559D01*
X73059Y-174037D01*
X72800Y-174662D01*
Y-175338D01*
X73059Y-175963D01*
X73537Y-176441D01*
X74162Y-176700D01*
X74838D01*
X75250Y-176529D01*
X75983D01*
Y-177185D01*
X76051Y-177526D01*
X76244Y-177815D01*
X76533Y-178008D01*
X76874Y-178076D01*
X79118D01*
X79459Y-178008D01*
X79748Y-177815D01*
X79941Y-177526D01*
X80009Y-177185D01*
Y-172815D01*
X79941Y-172474D01*
X79748Y-172185D01*
X79459Y-171992D01*
X79118Y-171924D01*
D02*
G37*
G36*
X101165Y-171414D02*
X100543D01*
Y-174500D01*
X102566D01*
Y-172815D01*
X102460Y-172279D01*
X102156Y-171824D01*
X101701Y-171521D01*
X101165Y-171414D01*
D02*
G37*
G36*
X99543D02*
X98921D01*
X98385Y-171521D01*
X97931Y-171824D01*
X97627Y-172279D01*
X97520Y-172815D01*
Y-174500D01*
X99543D01*
Y-171414D01*
D02*
G37*
G36*
X133318Y-170244D02*
X132461D01*
X131633Y-170466D01*
X130891Y-170895D01*
X130284Y-171501D01*
X129856Y-172243D01*
X129634Y-173071D01*
Y-173929D01*
X129856Y-174757D01*
X130284Y-175499D01*
X130891Y-176105D01*
X131633Y-176534D01*
X132461Y-176756D01*
X133318D01*
X134146Y-176534D01*
X134889Y-176105D01*
X135495Y-175499D01*
X135924Y-174757D01*
X136146Y-173929D01*
Y-173071D01*
X135924Y-172243D01*
X135495Y-171501D01*
X134889Y-170895D01*
X134146Y-170466D01*
X133318Y-170244D01*
D02*
G37*
G36*
X122866Y-174000D02*
X119610D01*
Y-177256D01*
X122866D01*
Y-174000D01*
D02*
G37*
G36*
X118610D02*
X115354D01*
Y-177256D01*
X118610D01*
Y-174000D01*
D02*
G37*
G36*
X37086Y-175496D02*
X34000D01*
Y-177519D01*
X35685D01*
X36221Y-177412D01*
X36676Y-177109D01*
X36979Y-176654D01*
X37086Y-176118D01*
Y-175496D01*
D02*
G37*
G36*
X102566Y-175500D02*
X100543D01*
Y-178586D01*
X101165D01*
X101701Y-178479D01*
X102156Y-178176D01*
X102460Y-177721D01*
X102566Y-177185D01*
Y-175500D01*
D02*
G37*
G36*
X99543D02*
X97520D01*
Y-177185D01*
X97627Y-177721D01*
X97931Y-178176D01*
X98385Y-178479D01*
X98921Y-178586D01*
X99543D01*
Y-175500D01*
D02*
G37*
G36*
X-78045Y-173732D02*
X-78955D01*
X-79833Y-173968D01*
X-80620Y-174422D01*
X-81263Y-175065D01*
X-81717Y-175852D01*
X-81953Y-176731D01*
Y-177640D01*
X-81717Y-178518D01*
X-81263Y-179305D01*
X-80620Y-179948D01*
X-79833Y-180403D01*
X-78955Y-180638D01*
X-78045D01*
X-77167Y-180403D01*
X-76380Y-179948D01*
X-75737Y-179305D01*
X-75283Y-178518D01*
X-75047Y-177640D01*
Y-176731D01*
X-75283Y-175852D01*
X-75737Y-175065D01*
X-76380Y-174422D01*
X-77167Y-173968D01*
X-78045Y-173732D01*
D02*
G37*
G36*
X-129473Y-177319D02*
X-129500D01*
Y-180819D01*
X-126000D01*
Y-180792D01*
X-126273Y-179775D01*
X-126799Y-178863D01*
X-127544Y-178118D01*
X-128456Y-177592D01*
X-129473Y-177319D01*
D02*
G37*
G36*
X-130500D02*
X-130527D01*
X-131544Y-177592D01*
X-132456Y-178118D01*
X-133201Y-178863D01*
X-133727Y-179775D01*
X-134000Y-180792D01*
Y-180819D01*
X-130500D01*
Y-177319D01*
D02*
G37*
G36*
X-109539Y-177819D02*
X-110461D01*
X-111351Y-178057D01*
X-112149Y-178518D01*
X-112801Y-179170D01*
X-113261Y-179968D01*
X-113500Y-180858D01*
Y-181780D01*
X-113261Y-182670D01*
X-112801Y-183468D01*
X-112149Y-184120D01*
X-111351Y-184580D01*
X-110461Y-184819D01*
X-109539D01*
X-108649Y-184580D01*
X-107851Y-184120D01*
X-107199Y-183468D01*
X-106738Y-182670D01*
X-106500Y-181780D01*
Y-180858D01*
X-106738Y-179968D01*
X-107199Y-179170D01*
X-107851Y-178518D01*
X-108649Y-178057D01*
X-109539Y-177819D01*
D02*
G37*
G36*
X-126000Y-181819D02*
X-129500D01*
Y-185319D01*
X-129473D01*
X-128456Y-185046D01*
X-127544Y-184520D01*
X-126799Y-183775D01*
X-126273Y-182863D01*
X-126000Y-181845D01*
Y-181819D01*
D02*
G37*
G36*
X-130500D02*
X-134000D01*
Y-181845D01*
X-133727Y-182863D01*
X-133201Y-183775D01*
X-132456Y-184520D01*
X-131544Y-185046D01*
X-130527Y-185319D01*
X-130500D01*
Y-181819D01*
D02*
G37*
G36*
X87862Y-163244D02*
X82138D01*
Y-169756D01*
X83492D01*
Y-172050D01*
X83291Y-172185D01*
X83098Y-172474D01*
X83030Y-172815D01*
Y-177185D01*
X83098Y-177526D01*
X83291Y-177815D01*
X83580Y-178008D01*
X83921Y-178076D01*
X86165D01*
X86506Y-178008D01*
X86796Y-177815D01*
X86989Y-177526D01*
X87056Y-177185D01*
Y-176529D01*
X90983D01*
Y-177185D01*
X91051Y-177526D01*
X91244Y-177815D01*
X91467Y-177964D01*
Y-185476D01*
X85252D01*
Y-190413D01*
X94717D01*
Y-185476D01*
X94525D01*
Y-177964D01*
X94748Y-177815D01*
X94941Y-177526D01*
X95009Y-177185D01*
Y-172815D01*
X94941Y-172474D01*
X94748Y-172185D01*
X94459Y-171992D01*
X94118Y-171924D01*
X91874D01*
X91533Y-171992D01*
X91244Y-172185D01*
X91051Y-172474D01*
X90983Y-172815D01*
Y-173471D01*
X87056D01*
Y-172815D01*
X86989Y-172474D01*
X86796Y-172185D01*
X86551Y-172021D01*
Y-169756D01*
X87862D01*
Y-163244D01*
D02*
G37*
G36*
X66929Y-186354D02*
X66071D01*
X65243Y-186576D01*
X64501Y-187005D01*
X63895Y-187611D01*
X63466Y-188354D01*
X63244Y-189182D01*
Y-190039D01*
X63466Y-190867D01*
X63895Y-191609D01*
X64501Y-192216D01*
X65243Y-192644D01*
X66071Y-192866D01*
X66929D01*
X67757Y-192644D01*
X68499Y-192216D01*
X69105Y-191609D01*
X69534Y-190867D01*
X69756Y-190039D01*
Y-189182D01*
X69534Y-188354D01*
X69105Y-187611D01*
X68499Y-187005D01*
X67757Y-186576D01*
X66929Y-186354D01*
D02*
G37*
G36*
X17181Y-189949D02*
X15500D01*
Y-193500D01*
X17181D01*
Y-189949D01*
D02*
G37*
G36*
X14500D02*
X12819D01*
Y-193500D01*
X14500D01*
Y-189949D01*
D02*
G37*
G36*
X112516Y-189701D02*
X107783D01*
Y-194451D01*
X95217D01*
Y-194032D01*
X90484D01*
Y-197000D01*
Y-199969D01*
X95217D01*
Y-199549D01*
X107783D01*
Y-204299D01*
X112516D01*
Y-197000D01*
Y-189701D01*
D02*
G37*
G36*
X-80921Y-192914D02*
X-81543D01*
Y-196000D01*
X-79520D01*
Y-194315D01*
X-79627Y-193779D01*
X-79931Y-193324D01*
X-80385Y-193021D01*
X-80921Y-192914D01*
D02*
G37*
G36*
X-82543D02*
X-83165D01*
X-83701Y-193021D01*
X-84156Y-193324D01*
X-84460Y-193779D01*
X-84566Y-194315D01*
Y-196000D01*
X-82543D01*
Y-192914D01*
D02*
G37*
G36*
X89484Y-194032D02*
X84752D01*
Y-196500D01*
X89484D01*
Y-194032D01*
D02*
G37*
G36*
X118248Y-189701D02*
X113516D01*
Y-196500D01*
X118248D01*
Y-189701D01*
D02*
G37*
G36*
X-4409Y-190427D02*
X-5591D01*
X-6016Y-190512D01*
X-6377Y-190753D01*
X-6618Y-191114D01*
X-6702Y-191539D01*
Y-196461D01*
X-6618Y-196886D01*
X-6377Y-197247D01*
X-6016Y-197488D01*
X-5591Y-197573D01*
X-4409D01*
X-3984Y-197488D01*
X-3623Y-197247D01*
X-3382Y-196886D01*
X-3297Y-196461D01*
Y-191539D01*
X-3382Y-191114D01*
X-3623Y-190753D01*
X-3984Y-190512D01*
X-4409Y-190427D01*
D02*
G37*
G36*
X-75047Y-183732D02*
X-81953D01*
Y-190638D01*
X-75047D01*
Y-188714D01*
X-71031D01*
X-70839Y-189176D01*
X-75087Y-193424D01*
X-76118D01*
X-76459Y-193492D01*
X-76748Y-193685D01*
X-76941Y-193974D01*
X-77009Y-194315D01*
Y-198685D01*
X-76941Y-199026D01*
X-76748Y-199315D01*
X-76459Y-199508D01*
X-76118Y-199576D01*
X-73874D01*
X-73533Y-199508D01*
X-73244Y-199315D01*
X-73051Y-199026D01*
X-72983Y-198685D01*
Y-195646D01*
X-66052Y-188714D01*
X-15578D01*
X-14348Y-189944D01*
X-14356Y-190001D01*
X-14572Y-190427D01*
X-15591D01*
X-16016Y-190512D01*
X-16377Y-190753D01*
X-16618Y-191114D01*
X-16702Y-191539D01*
Y-196461D01*
X-16618Y-196886D01*
X-16529Y-197019D01*
Y-199250D01*
X-16700Y-199662D01*
Y-200338D01*
X-16441Y-200963D01*
X-15963Y-201441D01*
X-15338Y-201700D01*
X-14662D01*
X-14037Y-201441D01*
X-13559Y-200963D01*
X-13300Y-200338D01*
Y-199662D01*
X-13471Y-199250D01*
Y-197019D01*
X-13382Y-196886D01*
X-13297Y-196461D01*
Y-191702D01*
X-12871Y-191486D01*
X-12814Y-191478D01*
X-11710Y-192582D01*
Y-193819D01*
X-11703Y-193859D01*
Y-196461D01*
X-11618Y-196886D01*
X-11377Y-197247D01*
X-11016Y-197488D01*
X-10591Y-197573D01*
X-9409D01*
X-8984Y-197488D01*
X-8623Y-197247D01*
X-8382Y-196886D01*
X-8298Y-196461D01*
Y-191539D01*
X-8382Y-191114D01*
X-8623Y-190753D01*
X-8984Y-190512D01*
X-9409Y-190427D01*
X-9540D01*
X-13863Y-186104D01*
X-14360Y-185772D01*
X-14945Y-185656D01*
X-75047D01*
Y-183732D01*
D02*
G37*
G36*
X14500Y-194500D02*
X12819D01*
Y-198051D01*
X14500D01*
Y-194500D01*
D02*
G37*
G36*
X-25045Y-191547D02*
X-25955D01*
X-26833Y-191782D01*
X-27620Y-192237D01*
X-28263Y-192880D01*
X-28717Y-193667D01*
X-28953Y-194545D01*
Y-195455D01*
X-28717Y-196333D01*
X-28263Y-197120D01*
X-27620Y-197763D01*
X-26833Y-198217D01*
X-25955Y-198453D01*
X-25045D01*
X-24167Y-198217D01*
X-23380Y-197763D01*
X-22737Y-197120D01*
X-22283Y-196333D01*
X-22047Y-195455D01*
Y-194545D01*
X-22283Y-193667D01*
X-22737Y-192880D01*
X-23380Y-192237D01*
X-24167Y-191782D01*
X-25045Y-191547D01*
D02*
G37*
G36*
X-35045D02*
X-35955D01*
X-36833Y-191782D01*
X-37620Y-192237D01*
X-38263Y-192880D01*
X-38717Y-193667D01*
X-38953Y-194545D01*
Y-195455D01*
X-38717Y-196333D01*
X-38263Y-197120D01*
X-37620Y-197763D01*
X-36833Y-198217D01*
X-35955Y-198453D01*
X-35045D01*
X-34167Y-198217D01*
X-33380Y-197763D01*
X-32737Y-197120D01*
X-32283Y-196333D01*
X-32047Y-195455D01*
Y-194545D01*
X-32283Y-193667D01*
X-32737Y-192880D01*
X-33380Y-192237D01*
X-34167Y-191782D01*
X-35045Y-191547D01*
D02*
G37*
G36*
X89484Y-197500D02*
X84752D01*
Y-199969D01*
X89484D01*
Y-197500D01*
D02*
G37*
G36*
X-79520Y-197000D02*
X-81543D01*
Y-200086D01*
X-80921D01*
X-80385Y-199979D01*
X-79931Y-199676D01*
X-79627Y-199221D01*
X-79520Y-198685D01*
Y-197000D01*
D02*
G37*
G36*
X-82543D02*
X-84566D01*
Y-198685D01*
X-84460Y-199221D01*
X-84156Y-199676D01*
X-83701Y-199979D01*
X-83165Y-200086D01*
X-82543D01*
Y-197000D01*
D02*
G37*
G36*
X26756Y-197791D02*
X23500D01*
Y-200654D01*
X26756D01*
Y-197791D01*
D02*
G37*
G36*
X17181Y-194500D02*
X15500D01*
Y-198051D01*
X17181D01*
X17181Y-198051D01*
Y-198051D01*
X17578Y-198288D01*
X19244Y-199954D01*
Y-200654D01*
X22500D01*
Y-197791D01*
X21407D01*
X18585Y-194970D01*
X18089Y-194638D01*
X17504Y-194522D01*
X17181D01*
Y-194500D01*
D02*
G37*
G36*
X147992Y-184422D02*
X146834Y-184575D01*
X145755Y-185022D01*
X144828Y-185733D01*
X144116Y-186660D01*
X143669Y-187739D01*
X143517Y-188898D01*
Y-199492D01*
X143669Y-200650D01*
X144116Y-201730D01*
X144547Y-202291D01*
Y-202953D01*
X145211D01*
X145762Y-203376D01*
X146842Y-203823D01*
X148000Y-203975D01*
X149158Y-203823D01*
X150238Y-203376D01*
X150789Y-202953D01*
X151453D01*
Y-202289D01*
X151876Y-201738D01*
X152323Y-200658D01*
X152475Y-199500D01*
X152467Y-199440D01*
Y-188898D01*
X152315Y-187739D01*
X151868Y-186660D01*
X151157Y-185733D01*
X150230Y-185022D01*
X149150Y-184575D01*
X147992Y-184422D01*
D02*
G37*
G36*
X118248Y-197500D02*
X113516D01*
Y-204299D01*
X118248D01*
Y-197500D01*
D02*
G37*
G36*
X-25045Y-201547D02*
X-25955D01*
X-26833Y-201782D01*
X-27620Y-202237D01*
X-28263Y-202880D01*
X-28717Y-203667D01*
X-28953Y-204545D01*
Y-205455D01*
X-28717Y-206333D01*
X-28263Y-207120D01*
X-27620Y-207763D01*
X-26833Y-208218D01*
X-25955Y-208453D01*
X-25045D01*
X-24167Y-208218D01*
X-23380Y-207763D01*
X-22737Y-207120D01*
X-22283Y-206333D01*
X-22047Y-205455D01*
Y-204545D01*
X-22283Y-203667D01*
X-22737Y-202880D01*
X-23380Y-202237D01*
X-24167Y-201782D01*
X-25045Y-201547D01*
D02*
G37*
G36*
X-35045D02*
X-35955D01*
X-36833Y-201782D01*
X-37620Y-202237D01*
X-38263Y-202880D01*
X-38717Y-203667D01*
X-38953Y-204545D01*
Y-205455D01*
X-38717Y-206333D01*
X-38263Y-207120D01*
X-37620Y-207763D01*
X-36833Y-208218D01*
X-35955Y-208453D01*
X-35045D01*
X-34167Y-208218D01*
X-33380Y-207763D01*
X-32737Y-207120D01*
X-32283Y-206333D01*
X-32047Y-205455D01*
Y-204545D01*
X-32283Y-203667D01*
X-32737Y-202880D01*
X-33380Y-202237D01*
X-34167Y-201782D01*
X-35045Y-201547D01*
D02*
G37*
G36*
X-110445Y-205244D02*
X-116169D01*
Y-211756D01*
X-110445D01*
Y-210029D01*
X-109250D01*
X-108838Y-210200D01*
X-108162D01*
X-107537Y-209941D01*
X-107059Y-209463D01*
X-106800Y-208838D01*
Y-208162D01*
X-107059Y-207537D01*
X-107537Y-207059D01*
X-108162Y-206800D01*
X-108838D01*
X-109250Y-206971D01*
X-110445D01*
Y-205244D01*
D02*
G37*
G36*
X-35045Y-211547D02*
X-35955D01*
X-36833Y-211783D01*
X-37620Y-212237D01*
X-38263Y-212880D01*
X-38603Y-213469D01*
X-42535D01*
X-42685Y-213244D01*
X-42974Y-213051D01*
X-43315Y-212983D01*
X-47685D01*
X-48026Y-213051D01*
X-48315Y-213244D01*
X-48508Y-213533D01*
X-48576Y-213874D01*
Y-216118D01*
X-48508Y-216459D01*
X-48315Y-216748D01*
X-48026Y-216941D01*
X-47685Y-217009D01*
X-43315D01*
X-42974Y-216941D01*
X-42685Y-216748D01*
X-42537Y-216527D01*
X-38605D01*
X-38263Y-217120D01*
X-37620Y-217763D01*
X-36833Y-218217D01*
X-35955Y-218453D01*
X-35045D01*
X-34167Y-218217D01*
X-33380Y-217763D01*
X-32737Y-217120D01*
X-32283Y-216333D01*
X-32047Y-215455D01*
Y-214545D01*
X-32283Y-213667D01*
X-32737Y-212880D01*
X-33380Y-212237D01*
X-34167Y-211783D01*
X-35045Y-211547D01*
D02*
G37*
G36*
X26756Y-201654D02*
X19244D01*
Y-204516D01*
X19668D01*
X19744Y-204984D01*
X19744Y-205016D01*
Y-208546D01*
X18368Y-209922D01*
X18037Y-210059D01*
X17559Y-210537D01*
X17422Y-210868D01*
X16611Y-211679D01*
X15220D01*
X15180Y-211687D01*
X14449D01*
X14023Y-211772D01*
X13663Y-212013D01*
X13421Y-212374D01*
X13337Y-212799D01*
Y-217721D01*
X13421Y-218146D01*
X13663Y-218507D01*
X14023Y-218748D01*
X14449Y-218832D01*
X15630D01*
X16055Y-218748D01*
X16416Y-218507D01*
X16657Y-218146D01*
X16742Y-217721D01*
Y-214738D01*
X17244D01*
X17829Y-214622D01*
X18326Y-214290D01*
X19470Y-213145D01*
X19963Y-212941D01*
X20441Y-212463D01*
X20645Y-211970D01*
X21907Y-210709D01*
X26256D01*
Y-205016D01*
X26256Y-204984D01*
X26332Y-204516D01*
X26756D01*
Y-201654D01*
D02*
G37*
G36*
X10630Y-211687D02*
X9449D01*
X9023Y-211772D01*
X8663Y-212013D01*
X8422Y-212374D01*
X8337Y-212799D01*
Y-217721D01*
X8422Y-218146D01*
X8663Y-218507D01*
X9023Y-218748D01*
X9449Y-218832D01*
X10630D01*
X11055Y-218748D01*
X11416Y-218507D01*
X11657Y-218146D01*
X11742Y-217721D01*
Y-212799D01*
X11657Y-212374D01*
X11416Y-212013D01*
X11055Y-211772D01*
X10630Y-211687D01*
D02*
G37*
G36*
X5630D02*
X4449D01*
X4023Y-211772D01*
X3663Y-212013D01*
X3421Y-212374D01*
X3337Y-212799D01*
Y-217721D01*
X3421Y-218146D01*
X3663Y-218507D01*
X4023Y-218748D01*
X4449Y-218832D01*
X5630D01*
X6055Y-218748D01*
X6416Y-218507D01*
X6657Y-218146D01*
X6742Y-217721D01*
Y-212799D01*
X6657Y-212374D01*
X6416Y-212013D01*
X6055Y-211772D01*
X5630Y-211687D01*
D02*
G37*
G36*
X630D02*
X-551D01*
X-977Y-211772D01*
X-1337Y-212013D01*
X-1578Y-212374D01*
X-1663Y-212799D01*
Y-217721D01*
X-1578Y-218146D01*
X-1337Y-218507D01*
X-977Y-218748D01*
X-551Y-218832D01*
X630D01*
X1055Y-218748D01*
X1416Y-218507D01*
X1657Y-218146D01*
X1742Y-217721D01*
Y-212799D01*
X1657Y-212374D01*
X1416Y-212013D01*
X1055Y-211772D01*
X630Y-211687D01*
D02*
G37*
G36*
X-7500Y-205471D02*
X-17500D01*
X-18085Y-205587D01*
X-18581Y-205919D01*
X-24210Y-211547D01*
X-28953D01*
Y-218453D01*
X-27008D01*
Y-222050D01*
X-27209Y-222185D01*
X-27402Y-222474D01*
X-27470Y-222815D01*
Y-227185D01*
X-27402Y-227526D01*
X-27209Y-227815D01*
X-26920Y-228008D01*
X-26579Y-228076D01*
X-24335D01*
X-23994Y-228008D01*
X-23705Y-227815D01*
X-23511Y-227526D01*
X-23444Y-227185D01*
Y-222815D01*
X-23511Y-222474D01*
X-23705Y-222185D01*
X-23949Y-222022D01*
Y-218453D01*
X-22047D01*
Y-213710D01*
X-16867Y-208529D01*
X-11601D01*
X-11394Y-209029D01*
X-11402Y-209037D01*
X-11661Y-209662D01*
Y-210338D01*
X-11490Y-210750D01*
Y-212241D01*
X-11579Y-212374D01*
X-11663Y-212799D01*
Y-217721D01*
X-11602Y-218028D01*
X-12019Y-218318D01*
X-13250Y-217087D01*
Y-215441D01*
X-13258Y-215401D01*
Y-212799D01*
X-13343Y-212374D01*
X-13584Y-212013D01*
X-13945Y-211772D01*
X-14370Y-211687D01*
X-15551D01*
X-15977Y-211772D01*
X-16337Y-212013D01*
X-16578Y-212374D01*
X-16663Y-212799D01*
Y-217721D01*
X-16578Y-218146D01*
X-16337Y-218507D01*
X-15977Y-218748D01*
X-15885Y-218766D01*
X-15861Y-218802D01*
X-10581Y-224081D01*
X-10085Y-224413D01*
X-9500Y-224529D01*
X21426D01*
X26983Y-230087D01*
Y-233185D01*
X27051Y-233526D01*
X27244Y-233815D01*
X27533Y-234008D01*
X27874Y-234076D01*
X30118D01*
X30459Y-234008D01*
X30748Y-233815D01*
X30941Y-233526D01*
X31009Y-233185D01*
Y-228815D01*
X30941Y-228474D01*
X30748Y-228185D01*
X30459Y-227992D01*
X30118Y-227924D01*
X29146D01*
X23141Y-221919D01*
X22644Y-221587D01*
X22059Y-221471D01*
X-8867D01*
X-11149Y-219188D01*
X-10859Y-218771D01*
X-10551Y-218832D01*
X-9370D01*
X-8945Y-218748D01*
X-8584Y-218507D01*
X-8343Y-218146D01*
X-8258Y-217721D01*
Y-212799D01*
X-8343Y-212374D01*
X-8431Y-212241D01*
Y-210750D01*
X-8261Y-210338D01*
Y-209662D01*
X-8374Y-209388D01*
X-8083Y-208820D01*
X-7883Y-208780D01*
X-6515Y-210148D01*
Y-212279D01*
X-6578Y-212374D01*
X-6663Y-212799D01*
Y-217721D01*
X-6578Y-218146D01*
X-6337Y-218507D01*
X-5977Y-218748D01*
X-5551Y-218832D01*
X-4370D01*
X-3945Y-218748D01*
X-3584Y-218507D01*
X-3343Y-218146D01*
X-3258Y-217721D01*
Y-212799D01*
X-3343Y-212374D01*
X-3457Y-212203D01*
Y-209514D01*
X-3573Y-208929D01*
X-3905Y-208433D01*
X-6419Y-205919D01*
X-6915Y-205587D01*
X-7500Y-205471D01*
D02*
G37*
G36*
X-43315Y-219520D02*
X-45000D01*
Y-221543D01*
X-41914D01*
Y-220921D01*
X-42021Y-220385D01*
X-42324Y-219931D01*
X-42779Y-219627D01*
X-43315Y-219520D01*
D02*
G37*
G36*
X-46000D02*
X-47685D01*
X-48221Y-219627D01*
X-48676Y-219931D01*
X-48979Y-220385D01*
X-49086Y-220921D01*
Y-221543D01*
X-46000D01*
Y-219520D01*
D02*
G37*
G36*
X45781Y-207065D02*
X44219D01*
X42685Y-207370D01*
X41241Y-207968D01*
X39942Y-208837D01*
X38837Y-209942D01*
X37968Y-211241D01*
X37370Y-212685D01*
X37065Y-214218D01*
Y-215781D01*
X37370Y-217315D01*
X37968Y-218759D01*
X38837Y-220058D01*
X39942Y-221164D01*
X41241Y-222032D01*
X42685Y-222630D01*
X44219Y-222935D01*
X45781D01*
X47315Y-222630D01*
X48759Y-222032D01*
X50058Y-221164D01*
X51164Y-220058D01*
X52032Y-218759D01*
X52630Y-217315D01*
X52935Y-215781D01*
Y-214218D01*
X52630Y-212685D01*
X52032Y-211241D01*
X51164Y-209942D01*
X50058Y-208837D01*
X48759Y-207968D01*
X47315Y-207370D01*
X45781Y-207065D01*
D02*
G37*
G36*
X-31382Y-221414D02*
X-32004D01*
Y-224500D01*
X-29981D01*
Y-222815D01*
X-30088Y-222279D01*
X-30391Y-221824D01*
X-30846Y-221521D01*
X-31382Y-221414D01*
D02*
G37*
G36*
X-33004D02*
X-33626D01*
X-34162Y-221521D01*
X-34617Y-221824D01*
X-34920Y-222279D01*
X-35027Y-222815D01*
Y-224500D01*
X-33004D01*
Y-221414D01*
D02*
G37*
G36*
X-41914Y-222543D02*
X-45000D01*
Y-224566D01*
X-43315D01*
X-42779Y-224460D01*
X-42324Y-224156D01*
X-42021Y-223702D01*
X-41914Y-223165D01*
Y-222543D01*
D02*
G37*
G36*
X-46000D02*
X-49086D01*
Y-223165D01*
X-48979Y-223702D01*
X-48676Y-224156D01*
X-48221Y-224460D01*
X-47685Y-224566D01*
X-46000D01*
Y-222543D01*
D02*
G37*
G36*
X-29981Y-225500D02*
X-32004D01*
Y-228586D01*
X-31382D01*
X-30846Y-228479D01*
X-30391Y-228176D01*
X-30088Y-227721D01*
X-29981Y-227185D01*
Y-225500D01*
D02*
G37*
G36*
X-33004D02*
X-35027D01*
Y-227185D01*
X-34920Y-227721D01*
X-34617Y-228176D01*
X-34162Y-228479D01*
X-33626Y-228586D01*
X-33004D01*
Y-225500D01*
D02*
G37*
G36*
X-30598Y-231776D02*
X-31772D01*
Y-233500D01*
X-28474D01*
X-28544Y-233149D01*
X-29026Y-232428D01*
X-29747Y-231945D01*
X-30598Y-231776D01*
D02*
G37*
G36*
X-32772D02*
X-33945D01*
X-34796Y-231945D01*
X-35517Y-232428D01*
X-35999Y-233149D01*
X-36069Y-233500D01*
X-32772D01*
Y-231776D01*
D02*
G37*
G36*
X-70662Y-226800D02*
X-71338D01*
X-71963Y-227059D01*
X-72441Y-227537D01*
X-72700Y-228162D01*
Y-228838D01*
X-72529Y-229250D01*
Y-230943D01*
X-73185D01*
X-73526Y-231011D01*
X-73815Y-231205D01*
X-74008Y-231494D01*
X-74076Y-231835D01*
Y-234079D01*
X-74008Y-234420D01*
X-73815Y-234709D01*
X-73526Y-234902D01*
X-73185Y-234970D01*
X-68815D01*
X-68474Y-234902D01*
X-68185Y-234709D01*
X-67992Y-234420D01*
X-67924Y-234079D01*
Y-231835D01*
X-67992Y-231494D01*
X-68185Y-231205D01*
X-68474Y-231011D01*
X-68815Y-230943D01*
X-69471D01*
Y-229250D01*
X-69300Y-228838D01*
Y-228162D01*
X-69559Y-227537D01*
X-70037Y-227059D01*
X-70662Y-226800D01*
D02*
G37*
G36*
X-28474Y-234500D02*
X-31772D01*
Y-236224D01*
X-30598D01*
X-29747Y-236055D01*
X-29026Y-235573D01*
X-28544Y-234851D01*
X-28474Y-234500D01*
D02*
G37*
G36*
X-32772D02*
X-36069D01*
X-35999Y-234851D01*
X-35517Y-235573D01*
X-34796Y-236055D01*
X-33945Y-236224D01*
X-32772D01*
Y-234500D01*
D02*
G37*
G36*
X126429Y-231134D02*
X125571D01*
X124743Y-231356D01*
X124001Y-231784D01*
X123395Y-232391D01*
X122966Y-233133D01*
X122744Y-233961D01*
Y-234818D01*
X122966Y-235647D01*
X123395Y-236389D01*
X124001Y-236995D01*
X124743Y-237424D01*
X125571Y-237646D01*
X126429D01*
X127257Y-237424D01*
X127999Y-236995D01*
X128605Y-236389D01*
X129034Y-235647D01*
X129256Y-234818D01*
Y-233961D01*
X129034Y-233133D01*
X128605Y-232391D01*
X127999Y-231784D01*
X127257Y-231356D01*
X126429Y-231134D01*
D02*
G37*
G36*
X28591Y-235687D02*
X27409D01*
X26984Y-235772D01*
X26623Y-236013D01*
X26382Y-236374D01*
X26298Y-236799D01*
Y-237711D01*
X25254D01*
X24842Y-237540D01*
X24166D01*
X23541Y-237799D01*
X23063Y-238277D01*
X22804Y-238902D01*
Y-239578D01*
X23063Y-240203D01*
X23541Y-240681D01*
X24166Y-240940D01*
X24842D01*
X25254Y-240770D01*
X26298D01*
Y-241681D01*
X26382Y-242107D01*
X26623Y-242467D01*
X26984Y-242708D01*
X27409Y-242793D01*
X28591D01*
X29016Y-242708D01*
X29377Y-242467D01*
X29618Y-242107D01*
X29702Y-241681D01*
Y-236799D01*
X29618Y-236374D01*
X29377Y-236013D01*
X29016Y-235772D01*
X28591Y-235687D01*
D02*
G37*
G36*
X552Y-234305D02*
X-552D01*
X-1619Y-234591D01*
X-2576Y-235143D01*
X-3357Y-235924D01*
X-3909Y-236881D01*
X-4195Y-237948D01*
Y-239052D01*
X-3909Y-240119D01*
X-3357Y-241076D01*
X-2576Y-241857D01*
X-1619Y-242409D01*
X-552Y-242695D01*
X552D01*
X1619Y-242409D01*
X2576Y-241857D01*
X3357Y-241076D01*
X3909Y-240119D01*
X4195Y-239052D01*
Y-237948D01*
X3909Y-236881D01*
X3357Y-235924D01*
X2576Y-235143D01*
X1619Y-234591D01*
X552Y-234305D01*
D02*
G37*
G36*
X37165Y-227924D02*
X34921D01*
X34580Y-227992D01*
X34291Y-228185D01*
X34098Y-228474D01*
X34030Y-228815D01*
Y-233185D01*
X34098Y-233526D01*
X34291Y-233815D01*
X34580Y-234008D01*
X34921Y-234076D01*
X36183D01*
X36471Y-234364D01*
Y-236241D01*
X36382Y-236374D01*
X36298Y-236799D01*
Y-241681D01*
X36382Y-242107D01*
X36623Y-242467D01*
X36984Y-242708D01*
X37409Y-242793D01*
X38591D01*
X39016Y-242708D01*
X39377Y-242467D01*
X39618Y-242107D01*
X39702Y-241681D01*
Y-236799D01*
X39618Y-236374D01*
X39529Y-236241D01*
Y-233731D01*
X39413Y-233145D01*
X39081Y-232649D01*
X38056Y-231624D01*
Y-228815D01*
X37989Y-228474D01*
X37795Y-228185D01*
X37506Y-227992D01*
X37165Y-227924D01*
D02*
G37*
G36*
X-30598Y-237286D02*
X-33945D01*
X-34601Y-237416D01*
X-35157Y-237788D01*
X-35528Y-238344D01*
X-35659Y-239000D01*
X-35528Y-239656D01*
X-35157Y-240212D01*
X-34601Y-240584D01*
X-33945Y-240714D01*
X-33801D01*
Y-242286D01*
X-33945D01*
X-34601Y-242416D01*
X-35157Y-242788D01*
X-35528Y-243344D01*
X-35659Y-244000D01*
X-35528Y-244656D01*
X-35157Y-245212D01*
X-34601Y-245584D01*
X-33945Y-245714D01*
X-30598D01*
X-29943Y-245584D01*
X-29386Y-245212D01*
X-29015Y-244656D01*
X-28884Y-244000D01*
X-29015Y-243344D01*
X-29386Y-242788D01*
X-29943Y-242416D01*
X-30598Y-242286D01*
X-30742D01*
Y-240714D01*
X-30598D01*
X-29943Y-240584D01*
X-29386Y-240212D01*
X-29015Y-239656D01*
X-28884Y-239000D01*
X-29015Y-238344D01*
X-29386Y-237788D01*
X-29943Y-237416D01*
X-30598Y-237286D01*
D02*
G37*
G36*
X148453Y-238902D02*
X147531D01*
X146641Y-239140D01*
X145843Y-239601D01*
X145191Y-240252D01*
X144731Y-241051D01*
X144492Y-241941D01*
Y-242862D01*
X144731Y-243753D01*
X145191Y-244551D01*
X145843Y-245202D01*
X146641Y-245663D01*
X147531Y-245902D01*
X148453D01*
X149343Y-245663D01*
X150141Y-245202D01*
X150793Y-244551D01*
X151254Y-243753D01*
X151492Y-242862D01*
Y-241941D01*
X151254Y-241051D01*
X150793Y-240252D01*
X150141Y-239601D01*
X149343Y-239140D01*
X148453Y-238902D01*
D02*
G37*
G36*
X-30598Y-247286D02*
X-33945D01*
X-34601Y-247416D01*
X-35157Y-247788D01*
X-35528Y-248344D01*
X-35659Y-249000D01*
X-35528Y-249656D01*
X-35157Y-250212D01*
X-34601Y-250584D01*
X-33945Y-250714D01*
X-30598D01*
X-29943Y-250584D01*
X-29861Y-250529D01*
X-28250D01*
X-27838Y-250700D01*
X-27162D01*
X-26537Y-250441D01*
X-26059Y-249963D01*
X-25800Y-249338D01*
Y-248662D01*
X-26059Y-248037D01*
X-26537Y-247559D01*
X-27162Y-247300D01*
X-27838D01*
X-28250Y-247471D01*
X-29861D01*
X-29943Y-247416D01*
X-30598Y-247286D01*
D02*
G37*
G36*
X-78045Y-246232D02*
X-78955D01*
X-79833Y-246468D01*
X-80620Y-246922D01*
X-81263Y-247565D01*
X-81717Y-248352D01*
X-81953Y-249231D01*
Y-250140D01*
X-81717Y-251018D01*
X-81263Y-251805D01*
X-80620Y-252448D01*
X-79833Y-252903D01*
X-78955Y-253138D01*
X-78045D01*
X-77167Y-252903D01*
X-76380Y-252448D01*
X-75737Y-251805D01*
X-75283Y-251018D01*
X-75047Y-250140D01*
Y-249231D01*
X-75283Y-248352D01*
X-75737Y-247565D01*
X-76380Y-246922D01*
X-77167Y-246468D01*
X-78045Y-246232D01*
D02*
G37*
G36*
X-109539Y-250319D02*
X-110461D01*
X-111351Y-250557D01*
X-112149Y-251018D01*
X-112801Y-251670D01*
X-113261Y-252468D01*
X-113500Y-253358D01*
Y-254280D01*
X-113261Y-255170D01*
X-112801Y-255968D01*
X-112149Y-256620D01*
X-111351Y-257080D01*
X-110461Y-257319D01*
X-109539D01*
X-108649Y-257080D01*
X-107851Y-256620D01*
X-107199Y-255968D01*
X-106738Y-255170D01*
X-106500Y-254280D01*
Y-253358D01*
X-106738Y-252468D01*
X-107199Y-251670D01*
X-107851Y-251018D01*
X-108649Y-250557D01*
X-109539Y-250319D01*
D02*
G37*
G36*
X20579Y-227370D02*
X9342D01*
Y-239394D01*
X13431D01*
Y-245610D01*
X13548Y-246196D01*
X13879Y-246692D01*
X26298Y-259110D01*
Y-262941D01*
X26382Y-263366D01*
X26623Y-263727D01*
X26984Y-263968D01*
X27409Y-264053D01*
X28591D01*
X29016Y-263968D01*
X29377Y-263727D01*
X29618Y-263366D01*
X29702Y-262941D01*
Y-258059D01*
X29618Y-257634D01*
X29377Y-257273D01*
X29016Y-257032D01*
X28591Y-256947D01*
X28460D01*
X16490Y-244977D01*
Y-239394D01*
X20579D01*
Y-227370D01*
D02*
G37*
G36*
X-39791Y-254244D02*
X-45516D01*
Y-260756D01*
X-44183D01*
Y-262020D01*
X-46210Y-264047D01*
X-50953D01*
Y-265971D01*
X-54983D01*
Y-265315D01*
X-55051Y-264974D01*
X-55244Y-264685D01*
X-55533Y-264492D01*
X-55874Y-264424D01*
X-58118D01*
X-58459Y-264492D01*
X-58748Y-264685D01*
X-58941Y-264974D01*
X-59009Y-265315D01*
Y-269685D01*
X-58941Y-270026D01*
X-58748Y-270315D01*
X-58459Y-270508D01*
X-58118Y-270576D01*
X-55874D01*
X-55533Y-270508D01*
X-55244Y-270315D01*
X-55051Y-270026D01*
X-54983Y-269685D01*
Y-269029D01*
X-50953D01*
Y-270953D01*
X-44047D01*
Y-266210D01*
X-41572Y-263735D01*
X-41241Y-263239D01*
X-41124Y-262653D01*
Y-260756D01*
X-39791D01*
Y-254244D01*
D02*
G37*
G36*
X-80921Y-265414D02*
X-81543D01*
Y-268500D01*
X-79520D01*
Y-266815D01*
X-79627Y-266279D01*
X-79931Y-265824D01*
X-80385Y-265521D01*
X-80921Y-265414D01*
D02*
G37*
G36*
X-82543D02*
X-83165D01*
X-83701Y-265521D01*
X-84156Y-265824D01*
X-84460Y-266279D01*
X-84566Y-266815D01*
Y-268500D01*
X-82543D01*
Y-265414D01*
D02*
G37*
G36*
X-37045Y-264047D02*
X-37955D01*
X-38833Y-264282D01*
X-39620Y-264737D01*
X-40263Y-265380D01*
X-40718Y-266167D01*
X-40953Y-267045D01*
Y-267955D01*
X-40718Y-268833D01*
X-40263Y-269620D01*
X-39620Y-270263D01*
X-38833Y-270718D01*
X-37955Y-270953D01*
X-37045D01*
X-36167Y-270718D01*
X-35380Y-270263D01*
X-34737Y-269620D01*
X-34282Y-268833D01*
X-34047Y-267955D01*
Y-267045D01*
X-34282Y-266167D01*
X-34737Y-265380D01*
X-35380Y-264737D01*
X-36167Y-264282D01*
X-37045Y-264047D01*
D02*
G37*
G36*
X-75047Y-256232D02*
X-81953D01*
Y-263138D01*
X-77210D01*
X-76525Y-263823D01*
Y-266036D01*
X-76748Y-266185D01*
X-76941Y-266474D01*
X-77009Y-266815D01*
Y-271185D01*
X-76941Y-271526D01*
X-76748Y-271815D01*
X-76459Y-272008D01*
X-76118Y-272076D01*
X-73874D01*
X-73533Y-272008D01*
X-73244Y-271815D01*
X-73051Y-271526D01*
X-72983Y-271185D01*
Y-266815D01*
X-73051Y-266474D01*
X-73244Y-266185D01*
X-73467Y-266036D01*
Y-263189D01*
X-73583Y-262604D01*
X-73915Y-262107D01*
X-75047Y-260975D01*
Y-256232D01*
D02*
G37*
%LPD*%
D16*
X32457Y-168500D02*
D03*
X39504D02*
D03*
X-82043Y-269000D02*
D03*
X-74996D02*
D03*
X-82043Y-196500D02*
D03*
X-74996D02*
D03*
X-64043Y-267500D02*
D03*
X-56996D02*
D03*
X-25457Y-225000D02*
D03*
X-32504D02*
D03*
X36043Y-231000D02*
D03*
X28996D02*
D03*
X85043Y-175000D02*
D03*
X77996D02*
D03*
X100043D02*
D03*
X92996D02*
D03*
D17*
X0Y0D02*
D03*
D18*
X-32272Y-249000D02*
D03*
Y-244000D02*
D03*
Y-239000D02*
D03*
Y-234000D02*
D03*
X-53728Y-249000D02*
D03*
Y-244000D02*
D03*
Y-239000D02*
D03*
Y-234000D02*
D03*
D19*
X-10276Y-175740D02*
D03*
Y-172000D02*
D03*
Y-168260D02*
D03*
X-19724D02*
D03*
Y-172000D02*
D03*
Y-175740D02*
D03*
D20*
X28000Y-239240D02*
D03*
X38000D02*
D03*
X28000Y-260500D02*
D03*
X38000D02*
D03*
D21*
X17760Y-182024D02*
D03*
X21500D02*
D03*
X25240D02*
D03*
X17760Y-171000D02*
D03*
X21500D02*
D03*
D22*
X25240D02*
D03*
D23*
X113016Y-197000D02*
D03*
D24*
X89984Y-206055D02*
D03*
Y-197000D02*
D03*
Y-187945D02*
D03*
D25*
X-0Y-194000D02*
D03*
X10000D02*
D03*
X5000D02*
D03*
X-5000D02*
D03*
X-10000D02*
D03*
X-15000D02*
D03*
X15039Y-215260D02*
D03*
X10039D02*
D03*
X5039D02*
D03*
X39D02*
D03*
X-4961D02*
D03*
X-9961D02*
D03*
X-14961D02*
D03*
D26*
X15000Y-194000D02*
D03*
D27*
X-3000Y-175543D02*
D03*
Y-168496D02*
D03*
X-28000Y-167957D02*
D03*
Y-175004D02*
D03*
X-71000Y-232957D02*
D03*
Y-240004D02*
D03*
X33500Y-182043D02*
D03*
Y-174996D02*
D03*
X25500Y-162543D02*
D03*
Y-155496D02*
D03*
X-45500Y-222043D02*
D03*
Y-214996D02*
D03*
D28*
X-14567Y-262516D02*
D03*
X14567Y-270390D02*
D03*
D29*
X14961Y-233382D02*
D03*
D30*
X-49347Y-257500D02*
D03*
X-42654D02*
D03*
X-120000Y-208500D02*
D03*
X-113307D02*
D03*
X85000Y-166500D02*
D03*
X78307D02*
D03*
D31*
X-62500Y-239846D02*
D03*
Y-233154D02*
D03*
X10500Y-179693D02*
D03*
Y-173000D02*
D03*
X23000Y-201153D02*
D03*
Y-207846D02*
D03*
D52*
X-78500Y-249685D02*
D03*
Y-177185D02*
D03*
X148000Y-209500D02*
D03*
X-5000Y-158000D02*
D03*
X160000Y-5000D02*
D03*
X-5000Y160000D02*
D03*
X-160000Y-5000D02*
D03*
X-37500Y-267500D02*
D03*
X-35500Y-215000D02*
D03*
X-25500Y-205000D02*
D03*
X-35500D02*
D03*
X-25500Y-195000D02*
D03*
X-35500D02*
D03*
D53*
X-78500Y-259685D02*
D03*
Y-187185D02*
D03*
X148000Y-199500D02*
D03*
X160000Y5000D02*
D03*
X-160000D02*
D03*
X-25500Y-215000D02*
D03*
D54*
X5000Y-158000D02*
D03*
Y160000D02*
D03*
X-47500Y-267500D02*
D03*
D56*
X34563Y-174996D02*
X39008Y-170551D01*
Y-168996D02*
X39504Y-168500D01*
X33500Y-174996D02*
X34563D01*
X39008Y-170551D02*
Y-168996D01*
X24520Y-177500D02*
X32457Y-169563D01*
Y-168500D01*
X17760Y-177500D02*
X24520D01*
X10500Y-153000D02*
X17760Y-160260D01*
X-20000Y-153000D02*
X10500D01*
X-38500Y-171500D02*
X-20000Y-153000D01*
X-120000Y-181319D02*
X-110181Y-171500D01*
X-38500D01*
X-75500Y146500D02*
X-53000D01*
X-150000Y45500D02*
Y72000D01*
X-75500Y146500D01*
X-159228Y36272D02*
X-150000Y45500D01*
X-39500Y160000D02*
X-5000D01*
X-53000Y146500D02*
X-39500Y160000D01*
X-159228Y15702D02*
Y36272D01*
Y15702D02*
X-153500Y9975D01*
Y1500D02*
Y9975D01*
X-160000Y-5000D02*
X-153500Y1500D01*
X-113307Y-208500D02*
X-108500D01*
X-32272Y-249000D02*
X-27500D01*
X-58500D02*
X-53728D01*
X-58500Y-244000D02*
X-53728D01*
X-58500Y-244000D02*
X-58500Y-244000D01*
X24504Y-239240D02*
X28000D01*
X74500Y-175000D02*
X77996D01*
X73807Y-166500D02*
X78307D01*
X21500Y-171000D02*
Y-167504D01*
X10500Y-173000D02*
Y-168500D01*
X-3000Y-168496D02*
Y-165000D01*
X-28000Y-178500D02*
Y-175004D01*
X-19577Y-179423D02*
X-19500Y-179500D01*
X-19577Y-179423D02*
Y-175888D01*
X-19724Y-175740D02*
X-19577Y-175888D01*
X21500Y-187000D02*
Y-182024D01*
Y-188000D02*
Y-187000D01*
X-71000Y-232957D02*
Y-228500D01*
X-181Y-193819D02*
X0Y-194000D01*
X-2500Y-188500D02*
X-181Y-190819D01*
Y-193819D02*
Y-190819D01*
X-15000Y-200000D02*
X-15000Y-200000D01*
X-15000Y-194000D02*
X-15000Y-194000D01*
Y-200000D02*
Y-194000D01*
X-78500Y-187185D02*
X-14945D01*
X-10181Y-193819D02*
Y-191949D01*
Y-193819D02*
X-10000Y-194000D01*
X-14945Y-187185D02*
X-10181Y-191949D01*
X-69500Y-274500D02*
X-64539Y-269539D01*
X-99319Y-274500D02*
X-69500D01*
X-120000Y-253819D02*
X-99319Y-274500D01*
X-64539Y-269539D02*
Y-267996D01*
X-64043Y-267500D01*
X-42654Y-262653D02*
Y-257500D01*
X-47500Y-267500D02*
X-42654Y-262653D01*
X-61654Y-234000D02*
X-50000D01*
X-62500Y-233154D02*
X-61654Y-234000D01*
X-48500Y-256653D02*
Y-235500D01*
X-50000Y-234000D02*
X-48500Y-235500D01*
X-49346Y-257500D02*
X-48500Y-256653D01*
X-55106Y-257500D02*
X-49346D01*
X-64043Y-267500D02*
Y-266437D01*
X-55106Y-257500D01*
X15220Y-213209D02*
X17244D01*
X15039Y-215260D02*
Y-213390D01*
X22606Y-207846D02*
X23000D01*
X17244Y-213209D02*
X22606Y-207846D01*
X15039Y-213390D02*
X15220Y-213209D01*
X17504Y-196051D02*
X22606Y-201153D01*
X15000Y-195870D02*
Y-194000D01*
X22606Y-201153D02*
X23000D01*
X15181Y-196051D02*
X17504D01*
X15000Y-195870D02*
X15181Y-196051D01*
X-74996Y-195437D02*
X-74500Y-194941D01*
X-74441D02*
X-67000Y-187500D01*
X-74996Y-196500D02*
Y-195437D01*
X-74500Y-194941D02*
X-74441D01*
X17760Y-171000D02*
Y-160260D01*
X22059Y-223000D02*
X28996Y-229937D01*
X-9500Y-223000D02*
X22059D01*
X-14780Y-217720D02*
X-9500Y-223000D01*
X-14780Y-217720D02*
Y-215441D01*
X-14961Y-215260D02*
X-14780Y-215441D01*
X28996Y-231000D02*
Y-229937D01*
X-17500Y-207000D02*
X-7500D01*
X-4986Y-209514D01*
Y-215234D02*
Y-209514D01*
X-25500Y-215000D02*
X-17500Y-207000D01*
X-4986Y-215234D02*
X-4961Y-215260D01*
X-10276Y-163276D02*
X-5000Y-158000D01*
X-10276Y-168260D02*
Y-163276D01*
X2000Y-180500D02*
X10000Y-188500D01*
X2000Y-180500D02*
Y-174586D01*
X-586Y-172000D02*
X2000Y-174586D01*
X10000Y-194000D02*
Y-188500D01*
X-10276Y-172000D02*
X-586D01*
X5000Y-175500D02*
Y-158000D01*
Y-175500D02*
X7831Y-178331D01*
X9138D02*
X10500Y-179693D01*
X7831Y-178331D02*
X9138D01*
X5000Y-194000D02*
Y-189000D01*
X-7656Y-184844D02*
X844D01*
X5000Y-189000D01*
X-15000Y-177500D02*
Y-174997D01*
Y-177500D02*
X-7656Y-184844D01*
X-17619Y-172378D02*
X-15000Y-174997D01*
X-19724Y-172000D02*
X-19346Y-172378D01*
X-17619D01*
X-9961Y-215260D02*
Y-210000D01*
X17760Y-182024D02*
Y-177500D01*
X-10177Y-175642D02*
X-3098D01*
X-3000Y-175543D01*
X-10276Y-175740D02*
X-10177Y-175642D01*
X10500Y-184000D02*
Y-179693D01*
X-4648Y-271254D02*
X13703D01*
X14567Y-270390D01*
X-13386Y-262516D02*
X-4648Y-271254D01*
X-14567Y-262516D02*
X-13386D01*
X29961Y-270390D02*
X38000Y-262350D01*
X14567Y-270390D02*
X29961D01*
X38000Y-262350D02*
Y-260500D01*
X14961Y-245610D02*
X28000Y-258650D01*
Y-260500D02*
Y-258650D01*
X14961Y-245610D02*
Y-233382D01*
X36539Y-232559D02*
X36828D01*
X36043Y-232063D02*
Y-231000D01*
X38000Y-239240D02*
Y-233731D01*
X36828Y-232559D02*
X38000Y-233731D01*
X36043Y-232063D02*
X36539Y-232559D01*
X25250Y-182034D02*
X33490D01*
X33500Y-182043D01*
X25240Y-182024D02*
X25250Y-182034D01*
X25370Y-162673D02*
X25500Y-162543D01*
X25240Y-171000D02*
X25370Y-170870D01*
Y-162673D01*
X25500Y-155496D02*
Y-25500D01*
X0Y0D02*
X25500Y-25500D01*
X-27848Y-168108D02*
X-19876D01*
X-28000Y-167957D02*
X-27848Y-168108D01*
X-19876D02*
X-19724Y-168260D01*
X-120000Y-207347D02*
Y-181319D01*
Y-207347D02*
X-118846Y-208500D01*
X-130000Y-253819D02*
X-116106Y-239925D01*
X-74996Y-269000D02*
Y-263189D01*
X-78500Y-259685D02*
X-74996Y-263189D01*
X-116106Y-239925D02*
X-62579D01*
X-62500Y-239846D01*
X-61723Y-239069D02*
X-53798D01*
X-62500Y-239846D02*
X-61723Y-239069D01*
X-53798D02*
X-53728Y-239000D01*
X-56996Y-267500D02*
X-47500D01*
X-32272Y-244000D02*
Y-239000D01*
X-32272Y-244000D02*
X-32272Y-244000D01*
X-25500Y-215000D02*
X-25478Y-215022D01*
Y-224978D02*
X-25457Y-225000D01*
X-25478Y-224978D02*
Y-215022D01*
X-45498Y-214998D02*
X-35502D01*
X-45500Y-214996D02*
X-45498Y-214998D01*
X-35502D02*
X-35500Y-215000D01*
X85022Y-174978D02*
Y-166522D01*
X85000Y-166500D02*
X85022Y-166522D01*
Y-174978D02*
X85043Y-175000D01*
X92027Y-187945D02*
X92996Y-186976D01*
X89984Y-187945D02*
X92027D01*
X92996Y-186976D02*
Y-175000D01*
X85043D02*
X92996D01*
X13500Y-187000D02*
X21500D01*
X10500Y-184000D02*
X13500Y-187000D01*
X21500Y-188000D02*
X23000Y-189500D01*
X33500D01*
X47390Y-203390D01*
X66500D01*
D57*
X89984Y-197000D02*
X113016D01*
D58*
X66500Y-203390D02*
X69165Y-206055D01*
X89984D01*
Y-207728D02*
Y-206055D01*
Y-207728D02*
X102866Y-220610D01*
X126000D01*
X136890D01*
X148000Y-209500D01*
X147992Y-199492D02*
X148000Y-199500D01*
X147992Y-199492D02*
Y-188898D01*
D59*
X-130000Y-253819D02*
D03*
X-120000D02*
D03*
X-110000D02*
D03*
X-130000Y-181319D02*
D03*
X-120000D02*
D03*
X-110000D02*
D03*
X147992Y-242402D02*
D03*
Y-188898D02*
D03*
D60*
X126000Y-234390D02*
D03*
X66500Y-189610D02*
D03*
X132890Y-173500D02*
D03*
D61*
X126000Y-220610D02*
D03*
X66500Y-203390D02*
D03*
D62*
X119110Y-173500D02*
D03*
D63*
X-108500Y-208500D02*
D03*
X-27500Y-249000D02*
D03*
X-58500Y-249000D02*
D03*
Y-244000D02*
D03*
X24504Y-239240D02*
D03*
X74500Y-175000D02*
D03*
X73807Y-166500D02*
D03*
X19000Y-211500D02*
D03*
X21500Y-167504D02*
D03*
X10500Y-168500D02*
D03*
X-3000Y-165000D02*
D03*
X-28000Y-178500D02*
D03*
X-19500Y-179500D02*
D03*
X-71000Y-228500D02*
D03*
X-2500Y-188500D02*
D03*
X-15000Y-200000D02*
D03*
X-9961Y-210000D02*
D03*
X17760Y-177500D02*
D03*
M02*
