G04*
G04 #@! TF.GenerationSoftware,Altium Limited,Altium Designer,23.8.1 (32)*
G04*
G04 Layer_Color=32896*
%FSLAX25Y25*%
%MOIN*%
G70*
G04*
G04 #@! TF.SameCoordinates,B00BB811-4D84-4737-8C1C-C2D0D2789402*
G04*
G04*
G04 #@! TF.FilePolarity,Positive*
G04*
G01*
G75*
%ADD15C,0.01000*%
D15*
X-139685Y-235000D02*
X-100315D01*
X-139685Y-274370D02*
Y-235000D01*
Y-274370D02*
X-100315D01*
Y-235000D01*
X-139685Y-162500D02*
X-100315D01*
X-139685Y-201870D02*
Y-162500D01*
Y-201870D02*
X-100315D01*
Y-162500D01*
X-69173Y-275079D02*
Y-155000D01*
X159173Y-275079D02*
Y-155000D01*
X-69173Y-275079D02*
X159173D01*
X-69173Y-155000D02*
X159173D01*
X166499Y-266334D02*
Y-267667D01*
Y-267001D01*
X163166D01*
X162500Y-267667D01*
Y-268334D01*
X163166Y-269000D01*
X166499Y-265001D02*
X162500D01*
Y-262335D01*
X165832Y-258337D02*
X166499Y-259003D01*
Y-260336D01*
X165832Y-261003D01*
X163166D01*
X162500Y-260336D01*
Y-259003D01*
X163166Y-258337D01*
X166499Y-254338D02*
Y-255671D01*
Y-255005D01*
X163166D01*
X162500Y-255671D01*
Y-256337D01*
X163166Y-257004D01*
X166499Y-253005D02*
X162500D01*
Y-250339D01*
X165832Y-246341D02*
X166499Y-247007D01*
Y-248340D01*
X165832Y-249006D01*
X163166D01*
X162500Y-248340D01*
Y-247007D01*
X163166Y-246341D01*
X166499Y-242342D02*
Y-243675D01*
Y-243008D01*
X163166D01*
X162500Y-243675D01*
Y-244341D01*
X163166Y-245008D01*
X166499Y-241009D02*
X162500D01*
Y-238343D01*
X165832Y-234345D02*
X166499Y-235011D01*
Y-236344D01*
X165832Y-237010D01*
X163166D01*
X162500Y-236344D01*
Y-235011D01*
X163166Y-234345D01*
X166499Y-230346D02*
Y-231679D01*
Y-231012D01*
X163166D01*
X162500Y-231679D01*
Y-232345D01*
X163166Y-233012D01*
X166499Y-229013D02*
X162500D01*
Y-226347D01*
X165832Y-222348D02*
X166499Y-223015D01*
Y-224348D01*
X165832Y-225014D01*
X163166D01*
X162500Y-224348D01*
Y-223015D01*
X163166Y-222348D01*
X159500Y-146502D02*
X158500Y-145502D01*
X156501D01*
X155501Y-146502D01*
Y-150500D01*
X156501Y-151500D01*
X158500D01*
X159500Y-150500D01*
Y-146502D01*
X149503Y-145502D02*
X151503Y-146502D01*
X153502Y-148501D01*
Y-150500D01*
X152502Y-151500D01*
X150503D01*
X149503Y-150500D01*
Y-149501D01*
X150503Y-148501D01*
X153502D01*
X147504Y-151500D02*
X143505Y-147501D01*
X141506Y-151500D02*
X139506D01*
X140506D01*
Y-145502D01*
X141506Y-146502D01*
X136507Y-145502D02*
X132509D01*
Y-146502D01*
X136507Y-150500D01*
Y-151500D01*
X130509D02*
X126511Y-147501D01*
X120513Y-151500D02*
X124511D01*
X120513Y-147501D01*
Y-146502D01*
X121512Y-145502D01*
X123512D01*
X124511Y-146502D01*
X115514Y-151500D02*
Y-145502D01*
X118513Y-148501D01*
X114515D01*
X155501Y-137502D02*
X156501Y-136502D01*
X158500D01*
X159500Y-137502D01*
Y-138501D01*
X158500Y-139501D01*
X156501D01*
X155501Y-140501D01*
Y-141500D01*
X156501Y-142500D01*
X158500D01*
X159500Y-141500D01*
X153502Y-136502D02*
X149503D01*
X151503D01*
Y-142500D01*
X141506Y-136502D02*
Y-140501D01*
X139506Y-142500D01*
X137507Y-140501D01*
Y-136502D01*
X135508Y-142500D02*
X133508D01*
X134508D01*
Y-136502D01*
X135508Y-137502D01*
X130509Y-142500D02*
Y-141500D01*
X129510D01*
Y-142500D01*
X130509D01*
X125511Y-137502D02*
X124511Y-136502D01*
X122512D01*
X121512Y-137502D01*
Y-141500D01*
X122512Y-142500D01*
X124511D01*
X125511Y-141500D01*
Y-137502D01*
X-103006Y-225502D02*
Y-229501D01*
X-105005Y-231500D01*
X-107004Y-229501D01*
Y-225502D01*
X-112003D02*
X-110003D01*
X-109003Y-226502D01*
Y-230500D01*
X-110003Y-231500D01*
X-112003D01*
X-113002Y-230500D01*
Y-226502D01*
X-112003Y-225502D01*
X-115002D02*
Y-231500D01*
X-119000D01*
X-121000Y-225502D02*
Y-230500D01*
X-121999Y-231500D01*
X-123999D01*
X-124998Y-230500D01*
Y-225502D01*
X-126998Y-231500D02*
Y-225502D01*
X-128997Y-227501D01*
X-130996Y-225502D01*
Y-231500D01*
X-136995Y-225502D02*
X-132996D01*
Y-231500D01*
X-136995D01*
X-132996Y-228501D02*
X-134995D01*
X-93509Y-154002D02*
X-92509Y-153002D01*
X-90509D01*
X-89510Y-154002D01*
Y-155001D01*
X-90509Y-156001D01*
X-92509D01*
X-93509Y-157001D01*
Y-158000D01*
X-92509Y-159000D01*
X-90509D01*
X-89510Y-158000D01*
X-99507Y-153002D02*
X-95508D01*
Y-159000D01*
X-99507D01*
X-95508Y-156001D02*
X-97507D01*
X-101506Y-159000D02*
Y-153002D01*
X-105505Y-159000D01*
Y-153002D01*
X-111503Y-154002D02*
X-110503Y-153002D01*
X-108504D01*
X-107504Y-154002D01*
Y-155001D01*
X-108504Y-156001D01*
X-110503D01*
X-111503Y-157001D01*
Y-158000D01*
X-110503Y-159000D01*
X-108504D01*
X-107504Y-158000D01*
X-113502Y-153002D02*
X-115501D01*
X-114502D01*
Y-159000D01*
X-113502D01*
X-115501D01*
X-118500Y-153002D02*
X-122499D01*
X-120500D01*
Y-159000D01*
X-124498Y-153002D02*
X-126498D01*
X-125498D01*
Y-159000D01*
X-124498D01*
X-126498D01*
X-129497Y-153002D02*
Y-157001D01*
X-131496Y-159000D01*
X-133496Y-157001D01*
Y-153002D01*
X-135495D02*
X-137494D01*
X-136495D01*
Y-159000D01*
X-135495D01*
X-137494D01*
X-140493Y-153002D02*
X-144492D01*
X-142493D01*
Y-159000D01*
X-146491Y-153002D02*
Y-154002D01*
X-148491Y-156001D01*
X-150490Y-154002D01*
Y-153002D01*
X-148491Y-156001D02*
Y-159000D01*
M02*
