G04*
G04 #@! TF.GenerationSoftware,Altium Limited,Altium Designer,23.8.1 (32)*
G04*
G04 Layer_Physical_Order=2*
G04 Layer_Color=16711680*
%FSLAX25Y25*%
%MOIN*%
G70*
G04*
G04 #@! TF.SameCoordinates,B00BB811-4D84-4737-8C1C-C2D0D2789402*
G04*
G04*
G04 #@! TF.FilePolarity,Positive*
G04*
G01*
G75*
%ADD10C,0.05000*%
%ADD52C,0.05906*%
%ADD53R,0.05906X0.05906*%
%ADD54R,0.05906X0.05906*%
%ADD56C,0.02000*%
%ADD59C,0.06000*%
%ADD60C,0.05512*%
%ADD61R,0.05512X0.05512*%
%ADD62R,0.05512X0.05512*%
%ADD63C,0.02400*%
G36*
X159952Y-271838D02*
X156838Y-274952D01*
X-156838D01*
X-159952Y-271838D01*
Y-163000D01*
X-54163D01*
X-34081Y-183081D01*
X-33585Y-183413D01*
X-33000Y-183529D01*
X-21872D01*
X-21286Y-183413D01*
X-20790Y-183081D01*
X-18730Y-181021D01*
X-18537Y-180941D01*
X-18059Y-180463D01*
X-17800Y-179838D01*
Y-179162D01*
X-18059Y-178537D01*
X-18537Y-178059D01*
X-19162Y-177800D01*
X-19838D01*
X-20463Y-178059D01*
X-20941Y-178537D01*
X-21200Y-179162D01*
Y-179165D01*
X-22505Y-180471D01*
X-26152D01*
X-26359Y-179971D01*
X-26135Y-179746D01*
X-25826Y-179000D01*
X-30174D01*
X-29865Y-179746D01*
X-29641Y-179971D01*
X-29848Y-180471D01*
X-32366D01*
X-49375Y-163462D01*
X-49184Y-163000D01*
X-4818D01*
X-4611Y-163500D01*
X-4865Y-163754D01*
X-5174Y-164500D01*
X-3000D01*
Y-165000D01*
X-2500D01*
Y-167174D01*
X-1754Y-166865D01*
X-1135Y-166246D01*
X-800Y-165438D01*
Y-165016D01*
X-300Y-164749D01*
X-148Y-164850D01*
X437Y-164966D01*
X20571D01*
X20670Y-165466D01*
X20254Y-165639D01*
X19635Y-166258D01*
X19326Y-167004D01*
X23674D01*
X23365Y-166258D01*
X22746Y-165639D01*
X22330Y-165466D01*
X22429Y-164966D01*
X71576D01*
X71854Y-165466D01*
X71633Y-166000D01*
X75981D01*
X75760Y-165466D01*
X76038Y-164966D01*
X85563D01*
X86148Y-164850D01*
X86644Y-164518D01*
X88163Y-163000D01*
X159952D01*
Y-271838D01*
D02*
G37*
%LPC*%
G36*
X-3500Y-165500D02*
X-5174D01*
X-4865Y-166246D01*
X-4246Y-166865D01*
X-3500Y-167174D01*
Y-165500D01*
D02*
G37*
G36*
X11000Y-166326D02*
Y-168000D01*
X12674D01*
X12365Y-167254D01*
X11746Y-166635D01*
X11000Y-166326D01*
D02*
G37*
G36*
X10000D02*
X9254Y-166635D01*
X8635Y-167254D01*
X8326Y-168000D01*
X10000D01*
Y-166326D01*
D02*
G37*
G36*
X75981Y-167000D02*
X74307D01*
Y-168674D01*
X75053Y-168365D01*
X75672Y-167746D01*
X75981Y-167000D01*
D02*
G37*
G36*
X73307D02*
X71633D01*
X71942Y-167746D01*
X72561Y-168365D01*
X73307Y-168674D01*
Y-167000D01*
D02*
G37*
G36*
X23674Y-168004D02*
X22000D01*
Y-169678D01*
X22746Y-169369D01*
X23365Y-168750D01*
X23674Y-168004D01*
D02*
G37*
G36*
X21000D02*
X19326D01*
X19635Y-168750D01*
X20254Y-169369D01*
X21000Y-169678D01*
Y-168004D01*
D02*
G37*
G36*
X12674Y-169000D02*
X11000D01*
Y-170674D01*
X11746Y-170365D01*
X12365Y-169746D01*
X12674Y-169000D01*
D02*
G37*
G36*
X10000D02*
X8326D01*
X8635Y-169746D01*
X9254Y-170365D01*
X10000Y-170674D01*
Y-169000D01*
D02*
G37*
G36*
X133390Y-169746D02*
Y-173000D01*
X136644D01*
X136390Y-172050D01*
X135895Y-171194D01*
X135196Y-170494D01*
X134339Y-170000D01*
X133390Y-169746D01*
D02*
G37*
G36*
X132390D02*
X131440Y-170000D01*
X130584Y-170494D01*
X129884Y-171194D01*
X129390Y-172050D01*
X129135Y-173000D01*
X132390D01*
Y-169746D01*
D02*
G37*
G36*
X75000Y-172826D02*
Y-174500D01*
X76674D01*
X76365Y-173754D01*
X75746Y-173135D01*
X75000Y-172826D01*
D02*
G37*
G36*
X74000D02*
X73254Y-173135D01*
X72635Y-173754D01*
X72326Y-174500D01*
X74000D01*
Y-172826D01*
D02*
G37*
G36*
X-77980Y-173232D02*
X-78000D01*
Y-176685D01*
X-74547D01*
Y-176665D01*
X-74817Y-175659D01*
X-75337Y-174758D01*
X-76073Y-174022D01*
X-76974Y-173502D01*
X-77980Y-173232D01*
D02*
G37*
G36*
X-79000D02*
X-79020D01*
X-80026Y-173502D01*
X-80927Y-174022D01*
X-81663Y-174758D01*
X-82183Y-175659D01*
X-82453Y-176665D01*
Y-176685D01*
X-79000D01*
Y-173232D01*
D02*
G37*
G36*
X122366Y-170244D02*
X115854D01*
Y-176756D01*
X122366D01*
Y-170244D01*
D02*
G37*
G36*
X76674Y-175500D02*
X75000D01*
Y-177174D01*
X75746Y-176865D01*
X76365Y-176246D01*
X76674Y-175500D01*
D02*
G37*
G36*
X74000D02*
X72326D01*
X72635Y-176246D01*
X73254Y-176865D01*
X74000Y-177174D01*
Y-175500D01*
D02*
G37*
G36*
X136644Y-174000D02*
X133390D01*
Y-177254D01*
X134339Y-177000D01*
X135196Y-176505D01*
X135895Y-175806D01*
X136390Y-174950D01*
X136644Y-174000D01*
D02*
G37*
G36*
X132390D02*
X129135D01*
X129390Y-174950D01*
X129884Y-175806D01*
X130584Y-176505D01*
X131440Y-177000D01*
X132390Y-177254D01*
Y-174000D01*
D02*
G37*
G36*
X-27500Y-176326D02*
Y-178000D01*
X-25826D01*
X-26135Y-177254D01*
X-26754Y-176635D01*
X-27500Y-176326D01*
D02*
G37*
G36*
X-28500D02*
X-29246Y-176635D01*
X-29865Y-177254D01*
X-30174Y-178000D01*
X-28500D01*
Y-176326D01*
D02*
G37*
G36*
X-109473Y-177319D02*
X-109500D01*
Y-180819D01*
X-106000D01*
Y-180792D01*
X-106273Y-179775D01*
X-106799Y-178863D01*
X-107544Y-178118D01*
X-108456Y-177592D01*
X-109473Y-177319D01*
D02*
G37*
G36*
X-110500D02*
X-110527D01*
X-111544Y-177592D01*
X-112456Y-178118D01*
X-113201Y-178863D01*
X-113727Y-179775D01*
X-114000Y-180792D01*
Y-180819D01*
X-110500D01*
Y-177319D01*
D02*
G37*
G36*
X-74547Y-177685D02*
X-78000D01*
Y-181138D01*
X-77980D01*
X-76974Y-180868D01*
X-76073Y-180348D01*
X-75337Y-179612D01*
X-74817Y-178711D01*
X-74547Y-177705D01*
Y-177685D01*
D02*
G37*
G36*
X-79000D02*
X-82453D01*
Y-177705D01*
X-82183Y-178711D01*
X-81663Y-179612D01*
X-80927Y-180348D01*
X-80026Y-180868D01*
X-79020Y-181138D01*
X-79000D01*
Y-177685D01*
D02*
G37*
G36*
X-119539Y-177819D02*
X-120461D01*
X-121351Y-178057D01*
X-122149Y-178518D01*
X-122801Y-179170D01*
X-123261Y-179968D01*
X-123500Y-180858D01*
Y-181780D01*
X-123261Y-182670D01*
X-122801Y-183468D01*
X-122149Y-184120D01*
X-121351Y-184580D01*
X-120461Y-184819D01*
X-119539D01*
X-118649Y-184580D01*
X-117851Y-184120D01*
X-117199Y-183468D01*
X-116738Y-182670D01*
X-116500Y-181780D01*
Y-180858D01*
X-116738Y-179968D01*
X-117199Y-179170D01*
X-117851Y-178518D01*
X-118649Y-178057D01*
X-119539Y-177819D01*
D02*
G37*
G36*
X-129539D02*
X-130461D01*
X-131351Y-178057D01*
X-132149Y-178518D01*
X-132801Y-179170D01*
X-133262Y-179968D01*
X-133500Y-180858D01*
Y-181780D01*
X-133262Y-182670D01*
X-132801Y-183468D01*
X-132149Y-184120D01*
X-131351Y-184580D01*
X-130461Y-184819D01*
X-129539D01*
X-128649Y-184580D01*
X-127851Y-184120D01*
X-127199Y-183468D01*
X-126739Y-182670D01*
X-126500Y-181780D01*
Y-180858D01*
X-126739Y-179968D01*
X-127199Y-179170D01*
X-127851Y-178518D01*
X-128649Y-178057D01*
X-129539Y-177819D01*
D02*
G37*
G36*
X-106000Y-181819D02*
X-109500D01*
Y-185319D01*
X-109473D01*
X-108456Y-185046D01*
X-107544Y-184520D01*
X-106799Y-183775D01*
X-106273Y-182863D01*
X-106000Y-181845D01*
Y-181819D01*
D02*
G37*
G36*
X-110500D02*
X-114000D01*
Y-181845D01*
X-113727Y-182863D01*
X-113201Y-183775D01*
X-112456Y-184520D01*
X-111544Y-185046D01*
X-110527Y-185319D01*
X-110500D01*
Y-181819D01*
D02*
G37*
G36*
X67000Y-185856D02*
Y-189110D01*
X70254D01*
X70000Y-188161D01*
X69506Y-187304D01*
X68806Y-186605D01*
X67950Y-186110D01*
X67000Y-185856D01*
D02*
G37*
G36*
X66000D02*
X65050Y-186110D01*
X64194Y-186605D01*
X63494Y-187304D01*
X63000Y-188161D01*
X62746Y-189110D01*
X66000D01*
Y-185856D01*
D02*
G37*
G36*
X-2162Y-186800D02*
X-2838D01*
X-3250Y-186971D01*
X-37500D01*
X-38085Y-187087D01*
X-38581Y-187419D01*
X-72081Y-220919D01*
X-72413Y-221415D01*
X-72529Y-222000D01*
Y-227750D01*
X-72700Y-228162D01*
Y-228838D01*
X-72441Y-229463D01*
X-71963Y-229941D01*
X-71338Y-230200D01*
X-70662D01*
X-70037Y-229941D01*
X-69559Y-229463D01*
X-69300Y-228838D01*
Y-228162D01*
X-69471Y-227750D01*
Y-222634D01*
X-36867Y-190029D01*
X-3250D01*
X-2838Y-190200D01*
X-2162D01*
X-1537Y-189941D01*
X-1059Y-189463D01*
X-800Y-188838D01*
Y-188162D01*
X-1059Y-187537D01*
X-1537Y-187059D01*
X-2162Y-186800D01*
D02*
G37*
G36*
X-75047Y-183732D02*
X-81953D01*
Y-190638D01*
X-75047D01*
Y-183732D01*
D02*
G37*
G36*
X148453Y-185398D02*
X147531D01*
X146641Y-185636D01*
X145843Y-186097D01*
X145191Y-186749D01*
X144731Y-187547D01*
X144492Y-188437D01*
Y-189358D01*
X144731Y-190249D01*
X145191Y-191047D01*
X145843Y-191698D01*
X146641Y-192159D01*
X147531Y-192398D01*
X148453D01*
X149343Y-192159D01*
X150141Y-191698D01*
X150793Y-191047D01*
X151254Y-190249D01*
X151492Y-189358D01*
Y-188437D01*
X151254Y-187547D01*
X150793Y-186749D01*
X150141Y-186097D01*
X149343Y-185636D01*
X148453Y-185398D01*
D02*
G37*
G36*
X70254Y-190110D02*
X67000D01*
Y-193365D01*
X67950Y-193110D01*
X68806Y-192616D01*
X69506Y-191916D01*
X70000Y-191060D01*
X70254Y-190110D01*
D02*
G37*
G36*
X66000D02*
X62746D01*
X63000Y-191060D01*
X63494Y-191916D01*
X64194Y-192616D01*
X65050Y-193110D01*
X66000Y-193365D01*
Y-190110D01*
D02*
G37*
G36*
X-34980Y-191047D02*
X-35000D01*
Y-194500D01*
X-31547D01*
Y-194480D01*
X-31817Y-193474D01*
X-32337Y-192573D01*
X-33073Y-191837D01*
X-33974Y-191317D01*
X-34980Y-191047D01*
D02*
G37*
G36*
X-36000D02*
X-36020D01*
X-37026Y-191317D01*
X-37927Y-191837D01*
X-38663Y-192573D01*
X-39183Y-193474D01*
X-39453Y-194480D01*
Y-194500D01*
X-36000D01*
Y-191047D01*
D02*
G37*
G36*
X-25045Y-191547D02*
X-25955D01*
X-26833Y-191782D01*
X-27620Y-192237D01*
X-28263Y-192880D01*
X-28717Y-193667D01*
X-28953Y-194545D01*
Y-195455D01*
X-28717Y-196333D01*
X-28263Y-197120D01*
X-27620Y-197763D01*
X-26833Y-198217D01*
X-25955Y-198453D01*
X-25045D01*
X-24167Y-198217D01*
X-23380Y-197763D01*
X-22737Y-197120D01*
X-22283Y-196333D01*
X-22047Y-195455D01*
Y-194545D01*
X-22283Y-193667D01*
X-22737Y-192880D01*
X-23380Y-192237D01*
X-24167Y-191782D01*
X-25045Y-191547D01*
D02*
G37*
G36*
X-31547Y-195500D02*
X-35000D01*
Y-198953D01*
X-34980D01*
X-33974Y-198683D01*
X-33073Y-198163D01*
X-32337Y-197427D01*
X-31817Y-196526D01*
X-31547Y-195520D01*
Y-195500D01*
D02*
G37*
G36*
X-36000D02*
X-39453D01*
Y-195520D01*
X-39183Y-196526D01*
X-38663Y-197427D01*
X-37927Y-198163D01*
X-37026Y-198683D01*
X-36020Y-198953D01*
X-36000D01*
Y-195500D01*
D02*
G37*
G36*
X151453Y-196047D02*
X144547D01*
Y-202953D01*
X151453D01*
Y-196047D01*
D02*
G37*
G36*
X69756Y-200134D02*
X63244D01*
Y-206646D01*
X69756D01*
Y-200134D01*
D02*
G37*
G36*
X-108000Y-206326D02*
Y-208000D01*
X-106326D01*
X-106635Y-207254D01*
X-107254Y-206635D01*
X-108000Y-206326D01*
D02*
G37*
G36*
X-109000D02*
X-109746Y-206635D01*
X-110365Y-207254D01*
X-110674Y-208000D01*
X-109000D01*
Y-206326D01*
D02*
G37*
G36*
X-25045Y-201547D02*
X-25955D01*
X-26833Y-201782D01*
X-27620Y-202237D01*
X-28263Y-202880D01*
X-28717Y-203667D01*
X-28953Y-204545D01*
Y-205455D01*
X-28717Y-206333D01*
X-28263Y-207120D01*
X-27620Y-207763D01*
X-26833Y-208218D01*
X-25955Y-208453D01*
X-25045D01*
X-24167Y-208218D01*
X-23380Y-207763D01*
X-22737Y-207120D01*
X-22283Y-206333D01*
X-22047Y-205455D01*
Y-204545D01*
X-22283Y-203667D01*
X-22737Y-202880D01*
X-23380Y-202237D01*
X-24167Y-201782D01*
X-25045Y-201547D01*
D02*
G37*
G36*
X-35045D02*
X-35955D01*
X-36833Y-201782D01*
X-37620Y-202237D01*
X-38263Y-202880D01*
X-38717Y-203667D01*
X-38953Y-204545D01*
Y-205455D01*
X-38717Y-206333D01*
X-38263Y-207120D01*
X-37620Y-207763D01*
X-36833Y-208218D01*
X-35955Y-208453D01*
X-35045D01*
X-34167Y-208218D01*
X-33380Y-207763D01*
X-32737Y-207120D01*
X-32283Y-206333D01*
X-32047Y-205455D01*
Y-204545D01*
X-32283Y-203667D01*
X-32737Y-202880D01*
X-33380Y-202237D01*
X-34167Y-201782D01*
X-35045Y-201547D01*
D02*
G37*
G36*
X-106326Y-209000D02*
X-108000D01*
Y-210674D01*
X-107254Y-210365D01*
X-106635Y-209746D01*
X-106326Y-209000D01*
D02*
G37*
G36*
X-109000D02*
X-110674D01*
X-110365Y-209746D01*
X-109746Y-210365D01*
X-109000Y-210674D01*
Y-209000D01*
D02*
G37*
G36*
X19500Y-209326D02*
Y-211000D01*
X21174D01*
X20865Y-210254D01*
X20246Y-209635D01*
X19500Y-209326D01*
D02*
G37*
G36*
X18500D02*
X17754Y-209635D01*
X17135Y-210254D01*
X16826Y-211000D01*
X18500D01*
Y-209326D01*
D02*
G37*
G36*
X18098Y-175800D02*
X17422D01*
X16797Y-176059D01*
X16319Y-176537D01*
X16060Y-177162D01*
Y-177838D01*
X16230Y-178250D01*
Y-181646D01*
X-10512Y-208388D01*
X-10924Y-208559D01*
X-11402Y-209037D01*
X-11661Y-209662D01*
Y-210338D01*
X-11402Y-210963D01*
X-10924Y-211441D01*
X-10299Y-211700D01*
X-9623D01*
X-8998Y-211441D01*
X-8519Y-210963D01*
X-8349Y-210551D01*
X18841Y-183361D01*
X19173Y-182865D01*
X19289Y-182280D01*
Y-178250D01*
X19460Y-177838D01*
Y-177162D01*
X19201Y-176537D01*
X18723Y-176059D01*
X18098Y-175800D01*
D02*
G37*
G36*
X148455Y-206047D02*
X147545D01*
X146667Y-206282D01*
X145880Y-206737D01*
X145237Y-207380D01*
X144782Y-208167D01*
X144547Y-209045D01*
Y-209955D01*
X144782Y-210833D01*
X145237Y-211620D01*
X145880Y-212263D01*
X146667Y-212718D01*
X147545Y-212953D01*
X148455D01*
X149333Y-212718D01*
X150120Y-212263D01*
X150763Y-211620D01*
X151217Y-210833D01*
X151453Y-209955D01*
Y-209045D01*
X151217Y-208167D01*
X150763Y-207380D01*
X150120Y-206737D01*
X149333Y-206282D01*
X148455Y-206047D01*
D02*
G37*
G36*
X21174Y-212000D02*
X19500D01*
Y-213674D01*
X20246Y-213365D01*
X20865Y-212746D01*
X21174Y-212000D01*
D02*
G37*
G36*
X18500D02*
X16826D01*
X17135Y-212746D01*
X17754Y-213365D01*
X18500Y-213674D01*
Y-212000D01*
D02*
G37*
G36*
X-22047Y-211547D02*
X-28953D01*
Y-218453D01*
X-22047D01*
Y-211547D01*
D02*
G37*
G36*
X-35045D02*
X-35955D01*
X-36833Y-211783D01*
X-37620Y-212237D01*
X-38263Y-212880D01*
X-38717Y-213667D01*
X-38953Y-214545D01*
Y-215455D01*
X-38717Y-216333D01*
X-38263Y-217120D01*
X-37620Y-217763D01*
X-36833Y-218217D01*
X-35955Y-218453D01*
X-35045D01*
X-34167Y-218217D01*
X-33380Y-217763D01*
X-32737Y-217120D01*
X-32283Y-216333D01*
X-32047Y-215455D01*
Y-214545D01*
X-32283Y-213667D01*
X-32737Y-212880D01*
X-33380Y-212237D01*
X-34167Y-211783D01*
X-35045Y-211547D01*
D02*
G37*
G36*
X45781Y-207065D02*
X44219D01*
X42685Y-207370D01*
X41241Y-207968D01*
X39942Y-208837D01*
X38837Y-209942D01*
X37968Y-211241D01*
X37370Y-212685D01*
X37065Y-214218D01*
Y-215781D01*
X37370Y-217315D01*
X37968Y-218759D01*
X38837Y-220058D01*
X39942Y-221164D01*
X41241Y-222032D01*
X42685Y-222630D01*
X44219Y-222935D01*
X45781D01*
X47315Y-222630D01*
X48759Y-222032D01*
X50058Y-221164D01*
X51164Y-220058D01*
X52032Y-218759D01*
X52630Y-217315D01*
X52935Y-215781D01*
Y-214218D01*
X52630Y-212685D01*
X52032Y-211241D01*
X51164Y-209942D01*
X50058Y-208837D01*
X48759Y-207968D01*
X47315Y-207370D01*
X45781Y-207065D01*
D02*
G37*
G36*
X129256Y-217354D02*
X122744D01*
Y-223866D01*
X129256D01*
Y-217354D01*
D02*
G37*
G36*
X126500Y-230635D02*
Y-233890D01*
X129754D01*
X129500Y-232940D01*
X129006Y-232084D01*
X128306Y-231384D01*
X127450Y-230890D01*
X126500Y-230635D01*
D02*
G37*
G36*
X125500D02*
X124550Y-230890D01*
X123694Y-231384D01*
X122994Y-232084D01*
X122500Y-232940D01*
X122246Y-233890D01*
X125500D01*
Y-230635D01*
D02*
G37*
G36*
X129754Y-234890D02*
X126500D01*
Y-238144D01*
X127450Y-237890D01*
X128306Y-237395D01*
X129006Y-236696D01*
X129500Y-235840D01*
X129754Y-234890D01*
D02*
G37*
G36*
X125500D02*
X122246D01*
X122500Y-235840D01*
X122994Y-236696D01*
X123694Y-237395D01*
X124550Y-237890D01*
X125500Y-238144D01*
Y-234890D01*
D02*
G37*
G36*
X25004Y-237066D02*
Y-238740D01*
X26678D01*
X26369Y-237994D01*
X25750Y-237375D01*
X25004Y-237066D01*
D02*
G37*
G36*
X24004D02*
X23258Y-237375D01*
X22639Y-237994D01*
X22330Y-238740D01*
X24004D01*
Y-237066D01*
D02*
G37*
G36*
X26678Y-239740D02*
X25004D01*
Y-241414D01*
X25750Y-241105D01*
X26369Y-240486D01*
X26678Y-239740D01*
D02*
G37*
G36*
X24004D02*
X22330D01*
X22639Y-240486D01*
X23258Y-241105D01*
X24004Y-241414D01*
Y-239740D01*
D02*
G37*
G36*
X148519Y-238402D02*
X148492D01*
Y-241902D01*
X151992D01*
Y-241875D01*
X151719Y-240858D01*
X151193Y-239946D01*
X150448Y-239201D01*
X149536Y-238674D01*
X148519Y-238402D01*
D02*
G37*
G36*
X147492D02*
X147466D01*
X146448Y-238674D01*
X145536Y-239201D01*
X144791Y-239946D01*
X144265Y-240858D01*
X143992Y-241875D01*
Y-241902D01*
X147492D01*
Y-238402D01*
D02*
G37*
G36*
X552Y-234305D02*
X-552D01*
X-1619Y-234591D01*
X-2576Y-235143D01*
X-3357Y-235924D01*
X-3909Y-236881D01*
X-4195Y-237948D01*
Y-239052D01*
X-3909Y-240119D01*
X-3357Y-241076D01*
X-2576Y-241857D01*
X-1619Y-242409D01*
X-552Y-242695D01*
X552D01*
X1619Y-242409D01*
X2576Y-241857D01*
X3357Y-241076D01*
X3909Y-240119D01*
X4195Y-239052D01*
Y-237948D01*
X3909Y-236881D01*
X3357Y-235924D01*
X2576Y-235143D01*
X1619Y-234591D01*
X552Y-234305D01*
D02*
G37*
G36*
X-56326Y-244500D02*
X-58000D01*
Y-246174D01*
X-57254Y-245865D01*
X-56635Y-245246D01*
X-56326Y-244500D01*
D02*
G37*
G36*
X-14662Y-198300D02*
X-15338D01*
X-15963Y-198559D01*
X-16441Y-199037D01*
X-16700Y-199662D01*
Y-200037D01*
X-19081Y-202419D01*
X-19413Y-202915D01*
X-19529Y-203500D01*
Y-218866D01*
X-29133Y-228471D01*
X-48815D01*
X-49400Y-228587D01*
X-49896Y-228919D01*
X-77210Y-256232D01*
X-81953D01*
Y-263138D01*
X-75047D01*
Y-258395D01*
X-61162Y-244510D01*
X-60607Y-244662D01*
X-60365Y-245246D01*
X-59746Y-245865D01*
X-59000Y-246174D01*
Y-244000D01*
X-58500D01*
Y-243500D01*
X-56326D01*
X-56635Y-242754D01*
X-57254Y-242135D01*
X-57838Y-241893D01*
X-57990Y-241338D01*
X-48182Y-231529D01*
X-28500D01*
X-27915Y-231413D01*
X-27419Y-231081D01*
X-16919Y-220581D01*
X-16587Y-220085D01*
X-16471Y-219500D01*
Y-204134D01*
X-13995Y-201658D01*
X-13664Y-201162D01*
X-13640Y-201044D01*
X-13559Y-200963D01*
X-13300Y-200338D01*
Y-199662D01*
X-13559Y-199037D01*
X-14037Y-198559D01*
X-14662Y-198300D01*
D02*
G37*
G36*
X151992Y-242902D02*
X148492D01*
Y-246402D01*
X148519D01*
X149536Y-246129D01*
X150448Y-245602D01*
X151193Y-244858D01*
X151719Y-243946D01*
X151992Y-242928D01*
Y-242902D01*
D02*
G37*
G36*
X147492D02*
X143992D01*
Y-242928D01*
X144265Y-243946D01*
X144791Y-244858D01*
X145536Y-245602D01*
X146448Y-246129D01*
X147466Y-246402D01*
X147492D01*
Y-242902D01*
D02*
G37*
G36*
X-27000Y-246826D02*
Y-248500D01*
X-25326D01*
X-25635Y-247754D01*
X-26254Y-247135D01*
X-27000Y-246826D01*
D02*
G37*
G36*
X-28000D02*
X-28746Y-247135D01*
X-29365Y-247754D01*
X-29674Y-248500D01*
X-28000D01*
Y-246826D01*
D02*
G37*
G36*
X-58000Y-246826D02*
Y-248500D01*
X-56326D01*
X-56635Y-247754D01*
X-57254Y-247135D01*
X-58000Y-246826D01*
D02*
G37*
G36*
X-59000D02*
X-59746Y-247135D01*
X-60365Y-247754D01*
X-60674Y-248500D01*
X-59000D01*
Y-246826D01*
D02*
G37*
G36*
X-77980Y-245732D02*
X-78000D01*
Y-249185D01*
X-74547D01*
Y-249165D01*
X-74817Y-248159D01*
X-75337Y-247258D01*
X-76073Y-246522D01*
X-76974Y-246002D01*
X-77980Y-245732D01*
D02*
G37*
G36*
X-79000D02*
X-79020D01*
X-80026Y-246002D01*
X-80927Y-246522D01*
X-81663Y-247258D01*
X-82183Y-248159D01*
X-82453Y-249165D01*
Y-249185D01*
X-79000D01*
Y-245732D01*
D02*
G37*
G36*
X-25326Y-249500D02*
X-27000D01*
Y-251174D01*
X-26254Y-250865D01*
X-25635Y-250246D01*
X-25326Y-249500D01*
D02*
G37*
G36*
X-28000D02*
X-29674D01*
X-29365Y-250246D01*
X-28746Y-250865D01*
X-28000Y-251174D01*
Y-249500D01*
D02*
G37*
G36*
X-56326Y-249500D02*
X-58000D01*
Y-251174D01*
X-57254Y-250865D01*
X-56635Y-250246D01*
X-56326Y-249500D01*
D02*
G37*
G36*
X-59000D02*
X-60674D01*
X-60365Y-250246D01*
X-59746Y-250865D01*
X-59000Y-251174D01*
Y-249500D01*
D02*
G37*
G36*
X-74547Y-250185D02*
X-78000D01*
Y-253638D01*
X-77980D01*
X-76974Y-253368D01*
X-76073Y-252848D01*
X-75337Y-252112D01*
X-74817Y-251211D01*
X-74547Y-250205D01*
Y-250185D01*
D02*
G37*
G36*
X-79000D02*
X-82453D01*
Y-250205D01*
X-82183Y-251211D01*
X-81663Y-252112D01*
X-80927Y-252848D01*
X-80026Y-253368D01*
X-79020Y-253638D01*
X-79000D01*
Y-250185D01*
D02*
G37*
G36*
X-109539Y-250319D02*
X-110461D01*
X-111351Y-250557D01*
X-112149Y-251018D01*
X-112801Y-251670D01*
X-113261Y-252468D01*
X-113500Y-253358D01*
Y-254280D01*
X-113261Y-255170D01*
X-112801Y-255968D01*
X-112149Y-256620D01*
X-111351Y-257080D01*
X-110461Y-257319D01*
X-109539D01*
X-108649Y-257080D01*
X-107851Y-256620D01*
X-107199Y-255968D01*
X-106738Y-255170D01*
X-106500Y-254280D01*
Y-253358D01*
X-106738Y-252468D01*
X-107199Y-251670D01*
X-107851Y-251018D01*
X-108649Y-250557D01*
X-109539Y-250319D01*
D02*
G37*
G36*
X-119539D02*
X-120461D01*
X-121351Y-250557D01*
X-122149Y-251018D01*
X-122801Y-251670D01*
X-123261Y-252468D01*
X-123500Y-253358D01*
Y-254280D01*
X-123261Y-255170D01*
X-122801Y-255968D01*
X-122149Y-256620D01*
X-121351Y-257080D01*
X-120461Y-257319D01*
X-119539D01*
X-118649Y-257080D01*
X-117851Y-256620D01*
X-117199Y-255968D01*
X-116738Y-255170D01*
X-116500Y-254280D01*
Y-253358D01*
X-116738Y-252468D01*
X-117199Y-251670D01*
X-117851Y-251018D01*
X-118649Y-250557D01*
X-119539Y-250319D01*
D02*
G37*
G36*
X-129539D02*
X-130461D01*
X-131351Y-250557D01*
X-132149Y-251018D01*
X-132801Y-251670D01*
X-133262Y-252468D01*
X-133500Y-253358D01*
Y-254280D01*
X-133262Y-255170D01*
X-132801Y-255968D01*
X-132149Y-256620D01*
X-131351Y-257080D01*
X-130461Y-257319D01*
X-129539D01*
X-128649Y-257080D01*
X-127851Y-256620D01*
X-127199Y-255968D01*
X-126739Y-255170D01*
X-126500Y-254280D01*
Y-253358D01*
X-126739Y-252468D01*
X-127199Y-251670D01*
X-127851Y-251018D01*
X-128649Y-250557D01*
X-129539Y-250319D01*
D02*
G37*
G36*
X-36980Y-263547D02*
X-37000D01*
Y-267000D01*
X-33547D01*
Y-266980D01*
X-33817Y-265974D01*
X-34337Y-265073D01*
X-35073Y-264337D01*
X-35974Y-263817D01*
X-36980Y-263547D01*
D02*
G37*
G36*
X-38000D02*
X-38020D01*
X-39026Y-263817D01*
X-39927Y-264337D01*
X-40663Y-265073D01*
X-41183Y-265974D01*
X-41453Y-266980D01*
Y-267000D01*
X-38000D01*
Y-263547D01*
D02*
G37*
G36*
X552Y-261864D02*
X-552D01*
X-1619Y-262150D01*
X-2576Y-262702D01*
X-3357Y-263483D01*
X-3909Y-264440D01*
X-4195Y-265507D01*
Y-266611D01*
X-3909Y-267678D01*
X-3357Y-268635D01*
X-2576Y-269416D01*
X-1619Y-269968D01*
X-552Y-270254D01*
X552D01*
X1619Y-269968D01*
X2576Y-269416D01*
X3357Y-268635D01*
X3909Y-267678D01*
X4195Y-266611D01*
Y-265507D01*
X3909Y-264440D01*
X3357Y-263483D01*
X2576Y-262702D01*
X1619Y-262150D01*
X552Y-261864D01*
D02*
G37*
G36*
X-44047Y-264047D02*
X-50953D01*
Y-270953D01*
X-44047D01*
Y-264047D01*
D02*
G37*
G36*
X-33547Y-268000D02*
X-37000D01*
Y-271453D01*
X-36980D01*
X-35974Y-271183D01*
X-35073Y-270663D01*
X-34337Y-269927D01*
X-33817Y-269026D01*
X-33547Y-268020D01*
Y-268000D01*
D02*
G37*
G36*
X-38000D02*
X-41453D01*
Y-268020D01*
X-41183Y-269026D01*
X-40663Y-269927D01*
X-39927Y-270663D01*
X-39026Y-271183D01*
X-38020Y-271453D01*
X-38000D01*
Y-268000D01*
D02*
G37*
%LPD*%
D10*
X-160000Y32000D02*
X-142500Y49500D01*
Y80500D02*
X-85500Y137500D01*
X-142500Y49500D02*
Y80500D01*
X-85500Y137500D02*
X-54500D01*
X-40000Y152000D01*
X-3000D01*
X-160000Y5000D02*
Y32000D01*
X-3000Y152000D02*
X5000Y160000D01*
X139000Y66500D02*
Y82000D01*
X82500Y138500D02*
X139000Y82000D01*
Y66500D02*
X152500Y53000D01*
X67000Y138500D02*
X82500D01*
X51500Y154000D02*
X67000Y138500D01*
X152500Y12500D02*
Y53000D01*
Y12500D02*
X160000Y5000D01*
X5000Y160000D02*
X11000Y154000D01*
X51500D01*
X5000Y-158000D02*
X67500D01*
X152500Y-73000D02*
Y-2500D01*
X67500Y-158000D02*
X152500Y-73000D01*
Y-2500D02*
X160000Y5000D01*
D52*
X-78500Y-249685D02*
D03*
Y-177185D02*
D03*
X148000Y-209500D02*
D03*
X-5000Y-158000D02*
D03*
X160000Y-5000D02*
D03*
X-5000Y160000D02*
D03*
X-160000Y-5000D02*
D03*
X-37500Y-267500D02*
D03*
X-35500Y-215000D02*
D03*
X-25500Y-205000D02*
D03*
X-35500D02*
D03*
X-25500Y-195000D02*
D03*
X-35500D02*
D03*
D53*
X-78500Y-259685D02*
D03*
Y-187185D02*
D03*
X148000Y-199500D02*
D03*
X160000Y5000D02*
D03*
X-160000D02*
D03*
X-25500Y-215000D02*
D03*
D54*
X5000Y-158000D02*
D03*
Y160000D02*
D03*
X-47500Y-267500D02*
D03*
D56*
X-33000Y-182000D02*
X-21872D01*
X-160000Y-55000D02*
X-33000Y-182000D01*
X-21872D02*
X-19700Y-179828D01*
Y-179808D01*
X-19500Y-179608D02*
Y-179500D01*
X-19700Y-179808D02*
X-19500Y-179608D01*
X-160000Y-55000D02*
Y-5000D01*
X437Y-163437D02*
X85563D01*
X160000Y-89000D01*
Y-5000D01*
X-5000Y-158000D02*
X437Y-163437D01*
X-71000Y-222000D02*
X-37500Y-188500D01*
X-71000Y-228500D02*
Y-222000D01*
X-37500Y-188500D02*
X-2500D01*
X-28500Y-230000D02*
X-18000Y-219500D01*
X-78500Y-259685D02*
X-48815Y-230000D01*
X-28500D01*
X-18000Y-219500D02*
Y-203500D01*
X-15077Y-200576D01*
Y-200077D02*
X-15000Y-200000D01*
X-15077Y-200576D02*
Y-200077D01*
X-9961Y-210000D02*
X17760Y-182280D01*
Y-177500D01*
D59*
X-130000Y-253819D02*
D03*
X-120000D02*
D03*
X-110000D02*
D03*
X-130000Y-181319D02*
D03*
X-120000D02*
D03*
X-110000D02*
D03*
X147992Y-242402D02*
D03*
Y-188898D02*
D03*
D60*
X126000Y-234390D02*
D03*
X66500Y-189610D02*
D03*
X132890Y-173500D02*
D03*
D61*
X126000Y-220610D02*
D03*
X66500Y-203390D02*
D03*
D62*
X119110Y-173500D02*
D03*
D63*
X-108500Y-208500D02*
D03*
X-27500Y-249000D02*
D03*
X-58500Y-249000D02*
D03*
Y-244000D02*
D03*
X24504Y-239240D02*
D03*
X74500Y-175000D02*
D03*
X73807Y-166500D02*
D03*
X19000Y-211500D02*
D03*
X21500Y-167504D02*
D03*
X10500Y-168500D02*
D03*
X-3000Y-165000D02*
D03*
X-28000Y-178500D02*
D03*
X-19500Y-179500D02*
D03*
X-71000Y-228500D02*
D03*
X-2500Y-188500D02*
D03*
X-15000Y-200000D02*
D03*
X-9961Y-210000D02*
D03*
X17760Y-177500D02*
D03*
M02*
