G04*
G04 #@! TF.GenerationSoftware,Altium Limited,Altium Designer,23.8.1 (32)*
G04*
G04 Layer_Color=65535*
%FSLAX25Y25*%
%MOIN*%
G70*
G04*
G04 #@! TF.SameCoordinates,4B8C02A6-DD82-47D5-92E1-CEE89DD6B1A8*
G04*
G04*
G04 #@! TF.FilePolarity,Positive*
G04*
G01*
G75*
%ADD10C,0.01000*%
D10*
X-21822Y22469D02*
X21822D01*
X-21822Y-22469D02*
X21822D01*
X-24606Y19685D02*
X-21822Y22469D01*
X21822D02*
X24606Y19685D01*
X-24606Y-19685D02*
X-21822Y-22469D01*
X21822D02*
X24606Y-19685D01*
X-24606D02*
Y19685D01*
X24606Y-19685D02*
Y19685D01*
X14501Y-77348D02*
Y-78681D01*
Y-78014D01*
X17833D01*
X18500Y-78681D01*
Y-79347D01*
X17833Y-80014D01*
X14501Y-76015D02*
X18500D01*
Y-73349D01*
X15168Y-69350D02*
X14501Y-70017D01*
Y-71350D01*
X15168Y-72016D01*
X17833D01*
X18500Y-71350D01*
Y-70017D01*
X17833Y-69350D01*
X14501Y-65352D02*
Y-66685D01*
Y-66018D01*
X17833D01*
X18500Y-66685D01*
Y-67351D01*
X17833Y-68018D01*
X14501Y-64019D02*
X18500D01*
Y-61353D01*
X15168Y-57354D02*
X14501Y-58021D01*
Y-59354D01*
X15168Y-60020D01*
X17833D01*
X18500Y-59354D01*
Y-58021D01*
X17833Y-57354D01*
X14501Y-53356D02*
Y-54689D01*
Y-54022D01*
X17833D01*
X18500Y-54689D01*
Y-55355D01*
X17833Y-56021D01*
X14501Y-52023D02*
X18500D01*
Y-49357D01*
X15168Y-45358D02*
X14501Y-46025D01*
Y-47357D01*
X15168Y-48024D01*
X17833D01*
X18500Y-47357D01*
Y-46025D01*
X17833Y-45358D01*
M02*
