G04*
G04 #@! TF.GenerationSoftware,Altium Limited,Altium Designer,23.8.1 (32)*
G04*
G04 Layer_Color=32896*
%FSLAX25Y25*%
%MOIN*%
G70*
G04*
G04 #@! TF.SameCoordinates,4B8C02A6-DD82-47D5-92E1-CEE89DD6B1A8*
G04*
G04*
G04 #@! TF.FilePolarity,Positive*
G04*
G01*
G75*
%ADD10C,0.01000*%
D10*
X-9843Y-96024D02*
X9843D01*
X-9843Y-86181D02*
X9843D01*
Y-96024D02*
Y-86181D01*
X-9843Y-96024D02*
Y-86181D01*
X-11811Y-85000D02*
X11811D01*
X-11811Y-27913D02*
X11811D01*
Y-85000D02*
Y-27913D01*
X-11811Y-85000D02*
Y-27913D01*
X18994Y26500D02*
Y32498D01*
X15995D01*
X14995Y31498D01*
Y29499D01*
X15995Y28499D01*
X18994D01*
X16995D02*
X14995Y26500D01*
X12996Y32498D02*
Y26500D01*
X9997D01*
X8997Y27500D01*
Y31498D01*
X9997Y32498D01*
X12996D01*
X1000D02*
Y28499D01*
X-1000Y26500D01*
X-2999Y28499D01*
Y32498D01*
X-4998Y26500D02*
X-6998D01*
X-5998D01*
Y32498D01*
X-4998Y31498D01*
X-9997Y26500D02*
Y27500D01*
X-10996D01*
Y26500D01*
X-9997D01*
X-14995Y31498D02*
X-15995Y32498D01*
X-17994D01*
X-18994Y31498D01*
Y27500D01*
X-17994Y26500D01*
X-15995D01*
X-14995Y27500D01*
Y31498D01*
M02*
