M48
;Layer_Color=9474304
;FILE_FORMAT=2:5
INCH,LZ
;TYPE=PLATED
T01F00S00C0.01200
T02F00S00C0.04724
T03F00S00C0.07283
%
T01
X0014961Y-006
X0020921Y-0053543
X0009
X0014961Y-0047087
T02
X-004256Y-0060359
X-0028641Y-004644
X-0024606Y-0009843
X-006344Y-0011641
X0024606Y-0009843
X006344Y-0011641
X0077359Y-002556
X004256Y-0060359
X0028641Y-004644
X-0077359Y-002556
X-005644Y0021641
X-0070359Y003556
X-0021641Y005644
X-003556Y0070359
X003556Y0070359
X0021641Y005644
X0024606Y0009843
X005644Y0021641
X0070359Y003556
X-0024606Y0009843
T03
X-0065527Y-0048528
X-0040472Y-0023472
X0Y-0017717
X0040472Y-0023472
X0065527Y-0048528
X0058527Y0058527
X0033472Y0033472
X0Y0017717
X-0033472Y0033472
X-0058527Y0058527
M30
