G04*
G04 #@! TF.GenerationSoftware,Altium Limited,Altium Designer,23.8.1 (32)*
G04*
G04 Layer_Color=32896*
%FSLAX26Y26*%
%MOIN*%
G70*
G04*
G04 #@! TF.SameCoordinates,C2A49AF8-9E88-4C2C-BBB5-2A61B6A386C2*
G04*
G04*
G04 #@! TF.FilePolarity,Positive*
G04*
G01*
G75*
%ADD10C,0.010000*%
D10*
X374879Y664981D02*
Y624994D01*
X354885Y605000D01*
X334892Y624994D01*
Y664981D01*
X274911Y605000D02*
X314898D01*
X274911Y644987D01*
Y654984D01*
X284908Y664981D01*
X304901D01*
X314898Y654984D01*
X254918Y605000D02*
Y614997D01*
X244921D01*
Y605000D01*
X254918D01*
X204934Y654984D02*
X194937Y664981D01*
X174944D01*
X164947Y654984D01*
Y614997D01*
X174944Y605000D01*
X194937D01*
X204934Y614997D01*
Y654984D01*
X84973D02*
X74976Y664981D01*
X54982D01*
X44986Y654984D01*
Y614997D01*
X54982Y605000D01*
X74976D01*
X84973Y614997D01*
Y654984D01*
X-14995Y664981D02*
X24992D01*
Y634990D01*
X4998Y644987D01*
X-4998D01*
X-14995Y634990D01*
Y614997D01*
X-4998Y605000D01*
X14995D01*
X24992Y614997D01*
X-34989Y605000D02*
X-74976Y644987D01*
X-134956Y605000D02*
X-94969D01*
X-134956Y644987D01*
Y654984D01*
X-124960Y664981D01*
X-104966D01*
X-94969Y654984D01*
X-184940Y605000D02*
Y664981D01*
X-154950Y634990D01*
X-194937D01*
X-214930Y605000D02*
X-254917Y644987D01*
X-314898Y605000D02*
X-274911D01*
X-314898Y644987D01*
Y654984D01*
X-304901Y664981D01*
X-284908D01*
X-274911Y654984D01*
X-364882Y605000D02*
Y664981D01*
X-334892Y634990D01*
X-374879D01*
X133290Y814968D02*
Y715000D01*
X83306D01*
X66645Y731661D01*
Y748323D01*
X83306Y764984D01*
X133290D01*
X83306D01*
X66645Y781645D01*
Y798306D01*
X83306Y814968D01*
X133290D01*
X33323D02*
Y715000D01*
X-16661D01*
X-33322Y731661D01*
Y748323D01*
X-16661Y764984D01*
X33323D01*
X-16661D01*
X-33322Y781645D01*
Y798306D01*
X-16661Y814968D01*
X33323D01*
X-66645Y798306D02*
X-83306Y814968D01*
X-116629D01*
X-133290Y798306D01*
Y781645D01*
X-116629Y764984D01*
X-133290Y748323D01*
Y731661D01*
X-116629Y715000D01*
X-83306D01*
X-66645Y731661D01*
Y748323D01*
X-83306Y764984D01*
X-66645Y781645D01*
Y798306D01*
X-83306Y764984D02*
X-116629D01*
X419864Y504993D02*
Y564974D01*
X389874D01*
X379877Y554977D01*
Y534984D01*
X389874Y524987D01*
X419864D01*
X399871D02*
X379877Y504993D01*
X349887D02*
X329893D01*
X319897Y514990D01*
Y534984D01*
X329893Y544981D01*
X349887D01*
X359884Y534984D01*
Y514990D01*
X349887Y504993D01*
X289906Y544981D02*
X269913D01*
X259916Y534984D01*
Y504993D01*
X289906D01*
X299903Y514990D01*
X289906Y524987D01*
X259916D01*
X239922Y544981D02*
Y504993D01*
Y524987D01*
X229926Y534984D01*
X219929Y544981D01*
X209932D01*
X179942Y504993D02*
X159948D01*
X169945D01*
Y544981D01*
X179942D01*
X129958Y504993D02*
Y544981D01*
X99968D01*
X89971Y534984D01*
Y504993D01*
X49984Y485000D02*
X39987D01*
X29990Y494997D01*
Y544981D01*
X59981D01*
X69977Y534984D01*
Y514990D01*
X59981Y504993D01*
X29990D01*
X-49984D02*
Y564974D01*
X-79974D01*
X-89971Y554977D01*
Y534984D01*
X-79974Y524987D01*
X-49984D01*
X-69977D02*
X-89971Y504993D01*
X-109964D02*
X-129958D01*
X-119961D01*
Y544981D01*
X-109964D01*
X-159948Y485000D02*
Y544981D01*
X-189939D01*
X-199935Y534984D01*
Y514990D01*
X-189939Y504993D01*
X-159948D01*
X-229926Y554977D02*
Y544981D01*
X-219929D01*
X-239922D01*
X-229926D01*
Y514990D01*
X-239922Y504993D01*
X-269913D02*
X-289906D01*
X-279909D01*
Y544981D01*
X-269913D01*
X-359884Y564974D02*
Y504993D01*
X-329893D01*
X-319896Y514990D01*
Y534984D01*
X-329893Y544981D01*
X-359884D01*
X-409867Y504993D02*
X-389874D01*
X-379877Y514990D01*
Y534984D01*
X-389874Y544981D01*
X-409867D01*
X-419864Y534984D01*
Y524987D01*
X-379877D01*
X329893Y449981D02*
X369880D01*
Y419990D01*
X349887D01*
X369880D01*
Y390000D01*
X309900D02*
Y449981D01*
X279909D01*
X269913Y439984D01*
Y419990D01*
X279909Y409993D01*
X309900D01*
X289906D02*
X269913Y390000D01*
X209932Y439984D02*
X219929Y449981D01*
X239922D01*
X249919Y439984D01*
Y399997D01*
X239922Y390000D01*
X219929D01*
X209932Y399997D01*
X129958Y449981D02*
X89971D01*
X109965D01*
Y390000D01*
X39987D02*
X59981D01*
X69977Y399997D01*
Y419990D01*
X59981Y429987D01*
X39987D01*
X29990Y419990D01*
Y409993D01*
X69977D01*
X0Y429987D02*
X-19994D01*
X-29990Y419990D01*
Y390000D01*
X0D01*
X9997Y399997D01*
X0Y409993D01*
X-29990D01*
X-49984Y390000D02*
Y429987D01*
X-59981D01*
X-69977Y419990D01*
Y390000D01*
Y419990D01*
X-79974Y429987D01*
X-89971Y419990D01*
Y390000D01*
X-199935D02*
Y449981D01*
X-169945Y419990D01*
X-209932D01*
X-229926Y390000D02*
X-249919D01*
X-239922D01*
Y449981D01*
X-229926Y439984D01*
X-279909Y390000D02*
X-299903D01*
X-289906D01*
Y449981D01*
X-279909Y439984D01*
X-329893D02*
X-339890Y449981D01*
X-359884D01*
X-369880Y439984D01*
Y429987D01*
X-359884Y419990D01*
X-369880Y409993D01*
Y399997D01*
X-359884Y390000D01*
X-339890D01*
X-329893Y399997D01*
Y409993D01*
X-339890Y419990D01*
X-329893Y429987D01*
Y439984D01*
X-339890Y419990D02*
X-359884D01*
X309900Y-735019D02*
X329893D01*
X319897D01*
Y-785003D01*
X329893Y-795000D01*
X339890D01*
X349887Y-785003D01*
X289906Y-735019D02*
Y-795000D01*
X249919D01*
X189939Y-745016D02*
X199935Y-735019D01*
X219929D01*
X229926Y-745016D01*
Y-785003D01*
X219929Y-795000D01*
X199935D01*
X189939Y-785003D01*
X129958Y-735019D02*
X149952D01*
X139955D01*
Y-785003D01*
X149952Y-795000D01*
X159948D01*
X169945Y-785003D01*
X109965Y-735019D02*
Y-795000D01*
X69977D01*
X9997Y-745016D02*
X19994Y-735019D01*
X39987D01*
X49984Y-745016D01*
Y-785003D01*
X39987Y-795000D01*
X19994D01*
X9997Y-785003D01*
X-49984Y-735019D02*
X-29990D01*
X-39987D01*
Y-785003D01*
X-29990Y-795000D01*
X-19994D01*
X-9997Y-785003D01*
X-69977Y-735019D02*
Y-795000D01*
X-109964D01*
X-169945Y-745016D02*
X-159948Y-735019D01*
X-139955D01*
X-129958Y-745016D01*
Y-785003D01*
X-139955Y-795000D01*
X-159948D01*
X-169945Y-785003D01*
X-229926Y-735019D02*
X-209932D01*
X-219929D01*
Y-785003D01*
X-209932Y-795000D01*
X-199935D01*
X-189939Y-785003D01*
X-249919Y-735019D02*
Y-795000D01*
X-289906D01*
X-349887Y-745016D02*
X-339890Y-735019D01*
X-319897D01*
X-309900Y-745016D01*
Y-785003D01*
X-319897Y-795000D01*
X-339890D01*
X-349887Y-785003D01*
M02*
