G04*
G04 #@! TF.GenerationSoftware,Altium Limited,Altium Designer,23.8.1 (32)*
G04*
G04 Layer_Physical_Order=1*
G04 Layer_Color=255*
%FSLAX26Y26*%
%MOIN*%
G70*
G04*
G04 #@! TF.SameCoordinates,C2A49AF8-9E88-4C2C-BBB5-2A61B6A386C2*
G04*
G04*
G04 #@! TF.FilePolarity,Positive*
G04*
G01*
G75*
%ADD11R,0.110236X0.086614*%
%ADD12R,0.102362X0.110236*%
%ADD19C,0.094488*%
%ADD20C,0.060000*%
%ADD21C,0.024000*%
G36*
X80793Y846096D02*
X134293Y839268D01*
X187251Y829061D01*
X239457Y815516D01*
X290699Y798686D01*
X340769Y778641D01*
X372666Y763458D01*
X370930Y758747D01*
X363141Y760834D01*
X348068D01*
X333509Y756933D01*
X322664Y750672D01*
X362675Y710661D01*
X402686Y670650D01*
X408947Y681495D01*
X412848Y696054D01*
Y711126D01*
X408947Y725685D01*
X401411Y738739D01*
X391594Y748556D01*
X394636Y752585D01*
X436596Y729239D01*
X481969Y700080D01*
X525401Y668101D01*
X566718Y633433D01*
X569284Y630985D01*
X567535Y625744D01*
X558309Y620418D01*
X550132Y612241D01*
X544351Y602226D01*
X541358Y591057D01*
Y579493D01*
X544351Y568323D01*
X550132Y558309D01*
X558309Y550132D01*
X568323Y544351D01*
X579493Y541358D01*
X591057D01*
X602226Y544351D01*
X612241Y550132D01*
X620418Y558309D01*
X625625Y567328D01*
X630940Y568943D01*
X642345Y556595D01*
X676353Y514735D01*
X707638Y470801D01*
X736073Y424973D01*
X752030Y395191D01*
X747972Y392178D01*
X738739Y401411D01*
X725685Y408947D01*
X711126Y412848D01*
X696054D01*
X681495Y408947D01*
X670650Y402686D01*
X710661Y362675D01*
X750672Y322664D01*
X756933Y333509D01*
X760834Y348068D01*
Y363141D01*
X758363Y372364D01*
X763084Y374061D01*
X783950Y328372D01*
X803198Y277990D01*
X819212Y226488D01*
X831928Y174074D01*
X840927Y123039D01*
X836378Y120137D01*
X836354Y120133D01*
X826211Y126911D01*
X813182Y133875D01*
X799987Y139340D01*
X785850Y143629D01*
X771843Y146415D01*
X757141Y147863D01*
X742859D01*
X728157Y146415D01*
X714150Y143629D01*
X700012Y139340D01*
X686818Y133875D01*
X673789Y126911D01*
X661915Y118976D01*
X650494Y109604D01*
X640396Y99506D01*
X640396Y99506D01*
X631024Y88085D01*
X623089Y76211D01*
X616125Y63182D01*
X610660Y49987D01*
X606371Y35850D01*
X603585Y21843D01*
X602137Y7141D01*
Y-7141D01*
X603585Y-21843D01*
X606371Y-35850D01*
X610660Y-49988D01*
X615700Y-62156D01*
X614230Y-67726D01*
X602317Y-74604D01*
X592590Y-84331D01*
X585712Y-96245D01*
X582152Y-109532D01*
Y-123288D01*
X585712Y-136575D01*
X592590Y-148489D01*
X602317Y-158216D01*
X614230Y-165094D01*
X627518Y-168654D01*
X641274D01*
X654561Y-165094D01*
X666474Y-158216D01*
X676201Y-148489D01*
X683079Y-136576D01*
X688764Y-134681D01*
X700012Y-139340D01*
X714150Y-143629D01*
X728157Y-146415D01*
X742859Y-147863D01*
X757141D01*
X771843Y-146415D01*
X785850Y-143629D01*
X799987Y-139340D01*
X813182Y-133875D01*
X826211Y-126911D01*
X835883Y-120448D01*
X840515Y-123367D01*
X837032Y-147591D01*
X825986Y-200382D01*
X821742Y-215730D01*
X816147Y-217206D01*
X808739Y-209798D01*
X795685Y-202261D01*
X781126Y-198360D01*
X766054D01*
X751495Y-202261D01*
X740650Y-208522D01*
X780661Y-248533D01*
X773590Y-255604D01*
X780661Y-262675D01*
X740650Y-302686D01*
X751495Y-308947D01*
X766054Y-312848D01*
X781126D01*
X785627Y-311642D01*
X788916Y-315408D01*
X773137Y-353080D01*
X749186Y-401405D01*
X722220Y-448112D01*
X703500Y-476249D01*
X698085Y-475361D01*
X696199Y-468323D01*
X690418Y-458309D01*
X682241Y-450132D01*
X672226Y-444350D01*
X661057Y-441358D01*
X649493D01*
X638323Y-444350D01*
X628309Y-450132D01*
X620132Y-458309D01*
X614351Y-468323D01*
X611358Y-479493D01*
Y-491057D01*
X614351Y-502226D01*
X620132Y-512241D01*
X628309Y-520417D01*
X638323Y-526199D01*
X649493Y-529192D01*
X658530D01*
X661008Y-534192D01*
X659682Y-535934D01*
X624362Y-576695D01*
X586529Y-615133D01*
X546333Y-651096D01*
X503938Y-684435D01*
X459515Y-715019D01*
X413240Y-742723D01*
X365302Y-767437D01*
X315892Y-789062D01*
X290552Y-798284D01*
X288570Y-799235D01*
X286466Y-799873D01*
X279704Y-803488D01*
X272791Y-806803D01*
X271033Y-808122D01*
X269094Y-809159D01*
X263166Y-814024D01*
X257034Y-818624D01*
X255566Y-820261D01*
X253867Y-821656D01*
X215407Y-860115D01*
X210787Y-858202D01*
Y-852205D01*
X150669D01*
Y-905512D01*
X140669D01*
Y-852205D01*
X80551D01*
Y-898291D01*
X30310D01*
X28239Y-893291D01*
X33567Y-887962D01*
X39090Y-878396D01*
X41949Y-867727D01*
Y-856682D01*
X39090Y-846013D01*
X33567Y-836447D01*
X25757Y-828637D01*
X16192Y-823115D01*
X5523Y-820256D01*
X-5523D01*
X-16192Y-823115D01*
X-25757Y-828637D01*
X-33567Y-836447D01*
X-39090Y-846013D01*
X-41949Y-856682D01*
Y-867727D01*
X-39090Y-878396D01*
X-33567Y-887962D01*
X-28239Y-893291D01*
X-30310Y-898291D01*
X-177232D01*
X-190824Y-884698D01*
X-188911Y-880079D01*
X-150669D01*
Y-831772D01*
X-210787D01*
Y-858202D01*
X-215407Y-860115D01*
X-253867Y-821656D01*
X-255566Y-820261D01*
X-257034Y-818624D01*
X-263166Y-814023D01*
X-269094Y-809159D01*
X-271033Y-808122D01*
X-272791Y-806803D01*
X-279704Y-803488D01*
X-286466Y-799873D01*
X-288570Y-799235D01*
X-290552Y-798284D01*
X-315892Y-789061D01*
X-365301Y-767438D01*
X-413240Y-742723D01*
X-459515Y-715019D01*
X-503939Y-684435D01*
X-546334Y-651095D01*
X-586530Y-615133D01*
X-624362Y-576695D01*
X-659681Y-535935D01*
X-661008Y-534192D01*
X-658530Y-529192D01*
X-649493D01*
X-638323Y-526199D01*
X-628309Y-520418D01*
X-620132Y-512241D01*
X-614351Y-502226D01*
X-611358Y-491057D01*
Y-479493D01*
X-614351Y-468323D01*
X-620132Y-458309D01*
X-628309Y-450132D01*
X-638323Y-444351D01*
X-649493Y-441358D01*
X-661057D01*
X-672226Y-444351D01*
X-682241Y-450132D01*
X-690418Y-458309D01*
X-696199Y-468323D01*
X-698085Y-475361D01*
X-703500Y-476250D01*
X-722219Y-448113D01*
X-749186Y-401405D01*
X-773137Y-353079D01*
X-791359Y-309577D01*
X-788069Y-305812D01*
X-780468Y-307848D01*
X-766712D01*
X-753424Y-304288D01*
X-741511Y-297410D01*
X-731784Y-287683D01*
X-724906Y-275770D01*
X-721346Y-262482D01*
Y-248726D01*
X-724906Y-235439D01*
X-731784Y-223526D01*
X-741511Y-213799D01*
X-753424Y-206921D01*
X-766712Y-203360D01*
X-780468D01*
X-793755Y-206921D01*
X-805668Y-213799D01*
X-814615Y-222746D01*
X-819911Y-222356D01*
X-825986Y-200382D01*
X-837032Y-147591D01*
X-840515Y-123367D01*
X-835883Y-120448D01*
X-826211Y-126911D01*
X-813182Y-133875D01*
X-799988Y-139340D01*
X-785850Y-143629D01*
X-771843Y-146415D01*
X-757141Y-147863D01*
X-742859D01*
X-728157Y-146415D01*
X-714150Y-143629D01*
X-700013Y-139340D01*
X-692267Y-136132D01*
X-687782Y-138343D01*
X-687739Y-138506D01*
X-681478Y-149350D01*
X-641467Y-109339D01*
X-601456Y-69328D01*
X-612300Y-63067D01*
X-614353Y-58904D01*
X-610660Y-49988D01*
X-606371Y-35850D01*
X-603585Y-21843D01*
X-602137Y-7141D01*
Y7141D01*
X-603585Y21843D01*
X-606371Y35850D01*
X-610660Y49987D01*
X-616125Y63182D01*
X-623089Y76211D01*
X-631024Y88085D01*
X-640396Y99506D01*
X-650494Y109603D01*
X-650494Y109604D01*
X-661915Y118976D01*
X-673789Y126911D01*
X-686818Y133875D01*
X-700013Y139340D01*
X-714150Y143629D01*
X-728157Y146415D01*
X-742859Y147863D01*
X-757141D01*
X-771843Y146415D01*
X-785850Y143629D01*
X-799988Y139340D01*
X-813182Y133875D01*
X-826211Y126911D01*
X-836355Y120133D01*
X-836378Y120137D01*
X-840927Y123039D01*
X-831928Y174073D01*
X-819212Y226488D01*
X-803198Y277990D01*
X-783950Y328372D01*
X-761545Y377433D01*
X-736073Y424972D01*
X-707638Y470801D01*
X-676354Y514735D01*
X-642345Y556595D01*
X-630940Y568943D01*
X-625625Y567328D01*
X-620418Y558309D01*
X-612241Y550132D01*
X-602226Y544351D01*
X-591057Y541358D01*
X-579493D01*
X-568323Y544351D01*
X-558309Y550132D01*
X-550132Y558309D01*
X-544351Y568323D01*
X-541358Y579493D01*
Y591057D01*
X-544351Y602226D01*
X-550132Y612241D01*
X-558309Y620418D01*
X-567535Y625744D01*
X-569284Y630985D01*
X-566718Y633433D01*
X-525400Y668102D01*
X-481969Y700080D01*
X-436598Y729238D01*
X-389468Y755461D01*
X-340769Y778641D01*
X-290699Y798686D01*
X-239457Y815516D01*
X-187251Y829061D01*
X-134293Y839268D01*
X-80793Y846096D01*
X-26967Y849517D01*
X26967D01*
X80793Y846096D01*
D02*
G37*
%LPC*%
G36*
X308522Y736530D02*
X302261Y725685D01*
X298360Y711126D01*
Y696054D01*
X302261Y681495D01*
X308522Y670650D01*
X341462Y703590D01*
X308522Y736530D01*
D02*
G37*
G36*
X-348726Y755834D02*
X-362482D01*
X-375770Y752274D01*
X-387683Y745396D01*
X-397410Y735669D01*
X-404288Y723755D01*
X-407848Y710468D01*
Y696712D01*
X-404288Y683425D01*
X-397410Y671511D01*
X-387683Y661784D01*
X-375770Y654906D01*
X-362482Y651346D01*
X-348726D01*
X-335439Y654906D01*
X-323526Y661784D01*
X-313799Y671511D01*
X-306921Y683425D01*
X-303360Y696712D01*
Y710468D01*
X-306921Y723755D01*
X-313799Y735669D01*
X-323526Y745396D01*
X-335439Y752274D01*
X-348726Y755834D01*
D02*
G37*
G36*
X355604Y689448D02*
X322664Y656508D01*
X333509Y650247D01*
X348068Y646346D01*
X363141D01*
X377700Y650247D01*
X388544Y656508D01*
X355604Y689448D01*
D02*
G37*
G36*
X-208874Y621640D02*
X-223946D01*
X-238506Y617739D01*
X-249350Y611478D01*
X-216410Y578538D01*
X-183470Y611478D01*
X-194315Y617739D01*
X-208874Y621640D01*
D02*
G37*
G36*
X-169328Y597336D02*
X-202268Y564396D01*
X-169328Y531456D01*
X-163067Y542300D01*
X-159166Y556860D01*
Y571932D01*
X-163067Y586491D01*
X-169328Y597336D01*
D02*
G37*
G36*
X-263492D02*
X-269753Y586491D01*
X-273654Y571932D01*
Y556860D01*
X-269753Y542300D01*
X-263492Y531456D01*
X-230552Y564396D01*
X-263492Y597336D01*
D02*
G37*
G36*
X223288Y616640D02*
X209532D01*
X196245Y613079D01*
X184332Y606201D01*
X174604Y596474D01*
X167726Y584561D01*
X164166Y571274D01*
Y557518D01*
X167726Y544230D01*
X174604Y532317D01*
X184332Y522590D01*
X196245Y515712D01*
X209532Y512152D01*
X223288D01*
X236576Y515712D01*
X248489Y522590D01*
X258216Y532317D01*
X265094Y544230D01*
X268654Y557518D01*
Y571274D01*
X265094Y584561D01*
X258216Y596474D01*
X248489Y606201D01*
X236576Y613079D01*
X223288Y616640D01*
D02*
G37*
G36*
X-216410Y550254D02*
X-249350Y517314D01*
X-238506Y511053D01*
X-223946Y507152D01*
X-208874D01*
X-194315Y511053D01*
X-183470Y517314D01*
X-216410Y550254D01*
D02*
G37*
G36*
X656508Y388544D02*
X650247Y377700D01*
X646346Y363141D01*
Y348068D01*
X650247Y333509D01*
X656508Y322665D01*
X689448Y355604D01*
X656508Y388544D01*
D02*
G37*
G36*
X-696712Y407849D02*
X-710468D01*
X-723755Y404288D01*
X-735668Y397410D01*
X-745396Y387683D01*
X-752274Y375770D01*
X-755834Y362483D01*
Y348726D01*
X-752274Y335439D01*
X-745396Y323526D01*
X-735668Y313799D01*
X-723755Y306921D01*
X-710468Y303360D01*
X-696712D01*
X-683424Y306921D01*
X-671511Y313799D01*
X-661784Y323526D01*
X-654906Y335439D01*
X-651346Y348726D01*
Y362483D01*
X-654906Y375770D01*
X-661784Y387683D01*
X-671511Y397410D01*
X-683424Y404288D01*
X-696712Y407849D01*
D02*
G37*
G36*
X703590Y341462D02*
X670650Y308522D01*
X681495Y302261D01*
X696054Y298360D01*
X711126D01*
X725685Y302261D01*
X736530Y308522D01*
X703590Y341462D01*
D02*
G37*
G36*
X-328943Y378642D02*
X-340507D01*
X-351677Y375650D01*
X-361691Y369868D01*
X-369868Y361691D01*
X-375649Y351677D01*
X-378642Y340507D01*
Y328943D01*
X-375649Y317774D01*
X-369868Y307759D01*
X-361691Y299583D01*
X-351677Y293801D01*
X-340507Y290808D01*
X-328943D01*
X-317774Y293801D01*
X-307759Y299583D01*
X-299582Y307759D01*
X-293801Y317774D01*
X-290808Y328943D01*
Y340507D01*
X-293801Y351677D01*
X-299582Y361691D01*
X-307759Y369868D01*
X-317774Y375650D01*
X-328943Y378642D01*
D02*
G37*
G36*
X340507Y378642D02*
X328943D01*
X317774Y375649D01*
X307759Y369868D01*
X299582Y361691D01*
X293801Y351677D01*
X290808Y340507D01*
Y328943D01*
X293801Y317774D01*
X299582Y307759D01*
X307759Y299582D01*
X317774Y293801D01*
X328943Y290808D01*
X340507D01*
X351677Y293801D01*
X361691Y299582D01*
X369868Y307759D01*
X375649Y317774D01*
X378642Y328943D01*
Y340507D01*
X375649Y351677D01*
X369868Y361691D01*
X361691Y369868D01*
X351677Y375649D01*
X340507Y378642D01*
D02*
G37*
G36*
X-556859Y273654D02*
X-571932D01*
X-586491Y269753D01*
X-597335Y263492D01*
X-564396Y230553D01*
X-531456Y263492D01*
X-542300Y269753D01*
X-556859Y273654D01*
D02*
G37*
G36*
X-517314Y249350D02*
X-550254Y216411D01*
X-517314Y183471D01*
X-511053Y194315D01*
X-507152Y208874D01*
Y223946D01*
X-511053Y238506D01*
X-517314Y249350D01*
D02*
G37*
G36*
X-611477D02*
X-617739Y238506D01*
X-621640Y223946D01*
Y208874D01*
X-617739Y194315D01*
X-611478Y183471D01*
X-578538Y216411D01*
X-611477Y249350D01*
D02*
G37*
G36*
X571274Y268654D02*
X557518D01*
X544230Y265094D01*
X532317Y258216D01*
X522590Y248489D01*
X515712Y236576D01*
X512152Y223288D01*
Y209532D01*
X515712Y196245D01*
X522590Y184332D01*
X532317Y174604D01*
X544230Y167726D01*
X557518Y164166D01*
X571274D01*
X584561Y167726D01*
X596474Y174604D01*
X606201Y184332D01*
X613079Y196245D01*
X616640Y209532D01*
Y223288D01*
X613079Y236576D01*
X606201Y248489D01*
X596474Y258216D01*
X584561Y265094D01*
X571274Y268654D01*
D02*
G37*
G36*
X-564396Y202268D02*
X-597336Y169328D01*
X-586491Y163067D01*
X-571932Y159166D01*
X-556859D01*
X-542300Y163067D01*
X-531456Y169328D01*
X-564396Y202268D01*
D02*
G37*
G36*
X5782Y221083D02*
X-5782D01*
X-16951Y218090D01*
X-26966Y212308D01*
X-35143Y204131D01*
X-40924Y194117D01*
X-43917Y182947D01*
Y171384D01*
X-40924Y160214D01*
X-35143Y150200D01*
X-26966Y142023D01*
X-16951Y136241D01*
X-5782Y133248D01*
X5782D01*
X16951Y136241D01*
X26966Y142023D01*
X35143Y150200D01*
X40924Y160214D01*
X43917Y171384D01*
Y182947D01*
X40924Y194117D01*
X35143Y204131D01*
X26966Y212308D01*
X16951Y218090D01*
X5782Y221083D01*
D02*
G37*
G36*
X252941Y150669D02*
X239185D01*
X225898Y147109D01*
X213984Y140231D01*
X204257Y130504D01*
X197379Y118591D01*
X193819Y105303D01*
Y91547D01*
X197379Y78260D01*
X204257Y66347D01*
X213984Y56620D01*
X225898Y49742D01*
X239185Y46181D01*
X252941D01*
X266228Y49742D01*
X278142Y56620D01*
X287869Y66347D01*
X294747Y78260D01*
X298307Y91547D01*
Y105303D01*
X294747Y118591D01*
X287869Y130504D01*
X278142Y140231D01*
X266228Y147109D01*
X252941Y150669D01*
D02*
G37*
G36*
X-239185D02*
X-252941D01*
X-266228Y147109D01*
X-278142Y140231D01*
X-287869Y130504D01*
X-294747Y118591D01*
X-298307Y105303D01*
Y91547D01*
X-294747Y78260D01*
X-287869Y66347D01*
X-278142Y56620D01*
X-266228Y49742D01*
X-252941Y46181D01*
X-239185D01*
X-225898Y49742D01*
X-213984Y56620D01*
X-204257Y66347D01*
X-197379Y78260D01*
X-193819Y91547D01*
Y105303D01*
X-197379Y118591D01*
X-204257Y130504D01*
X-213984Y140231D01*
X-225898Y147109D01*
X-239185Y150669D01*
D02*
G37*
G36*
X256063Y-41841D02*
Y-88425D01*
X302647D01*
X299406Y-76330D01*
X291870Y-63276D01*
X281212Y-52618D01*
X268158Y-45082D01*
X256063Y-41841D01*
D02*
G37*
G36*
X-236063Y-41841D02*
Y-88425D01*
X-189479D01*
X-192720Y-76330D01*
X-200256Y-63276D01*
X-210914Y-52618D01*
X-223968Y-45082D01*
X-236063Y-41841D01*
D02*
G37*
G36*
X-256063Y-41841D02*
X-268158Y-45082D01*
X-281212Y-52618D01*
X-291870Y-63276D01*
X-299406Y-76330D01*
X-302647Y-88425D01*
X-256063D01*
Y-41841D01*
D02*
G37*
G36*
X236063Y-41841D02*
X223968Y-45082D01*
X210914Y-52618D01*
X200256Y-63276D01*
X192720Y-76330D01*
X189479Y-88425D01*
X236063D01*
Y-41841D01*
D02*
G37*
G36*
X-587314Y-83470D02*
X-620254Y-116410D01*
X-587314Y-149350D01*
X-581053Y-138506D01*
X-577152Y-123946D01*
Y-108874D01*
X-581053Y-94315D01*
X-587314Y-83470D01*
D02*
G37*
G36*
X302647Y-108425D02*
X256063D01*
Y-155009D01*
X268158Y-151768D01*
X281212Y-144232D01*
X291870Y-133574D01*
X299406Y-120520D01*
X302647Y-108425D01*
D02*
G37*
G36*
X-256063D02*
X-302647D01*
X-299406Y-120520D01*
X-291870Y-133574D01*
X-281212Y-144232D01*
X-268158Y-151768D01*
X-256063Y-155009D01*
Y-108425D01*
D02*
G37*
G36*
X-189479D02*
X-236063D01*
Y-155009D01*
X-223968Y-151768D01*
X-210914Y-144232D01*
X-200256Y-133574D01*
X-192720Y-120520D01*
X-189479Y-108425D01*
D02*
G37*
G36*
X236063D02*
X189479D01*
X192720Y-120520D01*
X200256Y-133574D01*
X210914Y-144232D01*
X223968Y-151768D01*
X236063Y-155009D01*
Y-108425D01*
D02*
G37*
G36*
X-634396Y-130552D02*
X-667336Y-163492D01*
X-656491Y-169753D01*
X-641932Y-173654D01*
X-626859D01*
X-612300Y-169753D01*
X-601456Y-163492D01*
X-634396Y-130552D01*
D02*
G37*
G36*
X5782Y-133248D02*
X-5782D01*
X-16951Y-136241D01*
X-26966Y-142023D01*
X-35143Y-150199D01*
X-40924Y-160214D01*
X-43917Y-171383D01*
Y-182947D01*
X-40924Y-194117D01*
X-35143Y-204131D01*
X-26966Y-212308D01*
X-16951Y-218090D01*
X-5782Y-221083D01*
X5782D01*
X16951Y-218090D01*
X26966Y-212308D01*
X35143Y-204131D01*
X40924Y-194117D01*
X43917Y-182947D01*
Y-171383D01*
X40924Y-160214D01*
X35143Y-150199D01*
X26966Y-142023D01*
X16951Y-136241D01*
X5782Y-133248D01*
D02*
G37*
G36*
X410507Y-190808D02*
X398943D01*
X387774Y-193801D01*
X377759Y-199582D01*
X369582Y-207759D01*
X363801Y-217774D01*
X360808Y-228943D01*
Y-240507D01*
X363801Y-251677D01*
X369582Y-261691D01*
X377759Y-269868D01*
X387774Y-275649D01*
X398943Y-278642D01*
X410507D01*
X421677Y-275649D01*
X431691Y-269868D01*
X439868Y-261691D01*
X445649Y-251677D01*
X448642Y-240507D01*
Y-228943D01*
X445649Y-217774D01*
X439868Y-207759D01*
X431691Y-199582D01*
X421677Y-193801D01*
X410507Y-190808D01*
D02*
G37*
G36*
X-398943Y-190808D02*
X-410507D01*
X-421677Y-193801D01*
X-431691Y-199583D01*
X-439868Y-207759D01*
X-445649Y-217774D01*
X-448642Y-228943D01*
Y-240507D01*
X-445649Y-251677D01*
X-439868Y-261691D01*
X-431691Y-269868D01*
X-421677Y-275649D01*
X-410507Y-278642D01*
X-398943D01*
X-387774Y-275649D01*
X-377759Y-269868D01*
X-369582Y-261691D01*
X-363801Y-251677D01*
X-360808Y-240507D01*
Y-228943D01*
X-363801Y-217774D01*
X-369582Y-207759D01*
X-377759Y-199583D01*
X-387774Y-193801D01*
X-398943Y-190808D01*
D02*
G37*
G36*
X726508Y-222664D02*
X720247Y-233509D01*
X716346Y-248068D01*
Y-263140D01*
X720247Y-277700D01*
X726508Y-288544D01*
X759448Y-255604D01*
X726508Y-222664D01*
D02*
G37*
G36*
X-278874Y-407152D02*
X-293946D01*
X-308505Y-411053D01*
X-319350Y-417314D01*
X-286410Y-450253D01*
X-253470Y-417314D01*
X-264315Y-411053D01*
X-278874Y-407152D01*
D02*
G37*
G36*
X-333492Y-431456D02*
X-339753Y-442300D01*
X-343654Y-456859D01*
Y-471932D01*
X-339753Y-486491D01*
X-333492Y-497335D01*
X-300552Y-464396D01*
X-333492Y-431456D01*
D02*
G37*
G36*
X-239328D02*
X-272268Y-464396D01*
X-239328Y-497336D01*
X-233067Y-486491D01*
X-229166Y-471932D01*
Y-456859D01*
X-233067Y-442300D01*
X-239328Y-431456D01*
D02*
G37*
G36*
X293288Y-412151D02*
X279532D01*
X266245Y-415712D01*
X254332Y-422590D01*
X244604Y-432317D01*
X237726Y-444230D01*
X234166Y-457517D01*
Y-471274D01*
X237726Y-484561D01*
X244604Y-496474D01*
X254332Y-506201D01*
X266245Y-513079D01*
X279532Y-516640D01*
X293288D01*
X306575Y-513079D01*
X318489Y-506201D01*
X328216Y-496474D01*
X335094Y-484561D01*
X338654Y-471274D01*
Y-457517D01*
X335094Y-444230D01*
X328216Y-432317D01*
X318489Y-422590D01*
X306575Y-415712D01*
X293288Y-412151D01*
D02*
G37*
G36*
X-286410Y-478538D02*
X-319350Y-511478D01*
X-308505Y-517739D01*
X-293946Y-521640D01*
X-278874D01*
X-264315Y-517739D01*
X-253470Y-511478D01*
X-286410Y-478538D01*
D02*
G37*
G36*
X433141Y-546346D02*
X418068D01*
X403509Y-550247D01*
X392665Y-556508D01*
X425604Y-589448D01*
X458544Y-556508D01*
X447700Y-550247D01*
X433141Y-546346D01*
D02*
G37*
G36*
X152988Y-453866D02*
X146225D01*
X139977Y-456454D01*
X135194Y-461236D01*
X132606Y-467485D01*
Y-474248D01*
X131893Y-475315D01*
X93425D01*
Y-518404D01*
X93381Y-518433D01*
X86618D01*
X80370Y-521021D01*
X75588Y-525803D01*
X73000Y-532052D01*
Y-538815D01*
X75588Y-545063D01*
X80370Y-549845D01*
X86618Y-552433D01*
X93381D01*
X93425Y-552462D01*
Y-595551D01*
X131893D01*
X132606Y-596619D01*
Y-603381D01*
X135194Y-609630D01*
X139977Y-614412D01*
X146225Y-617000D01*
X152988D01*
X159236Y-614412D01*
X164018Y-609630D01*
X166606Y-603381D01*
Y-596619D01*
X167320Y-595551D01*
X205787D01*
Y-552462D01*
X205831Y-552433D01*
X212594D01*
X218842Y-549845D01*
X223625Y-545063D01*
X226213Y-538815D01*
Y-532052D01*
X223625Y-525803D01*
X218842Y-521021D01*
X212594Y-518433D01*
X205831D01*
X205787Y-518404D01*
Y-475315D01*
X167320D01*
X166606Y-474248D01*
Y-467485D01*
X164018Y-461236D01*
X159236Y-456454D01*
X152988Y-453866D01*
D02*
G37*
G36*
X5523Y-544665D02*
X-5523D01*
X-16192Y-547524D01*
X-25757Y-553047D01*
X-33567Y-560857D01*
X-39090Y-570423D01*
X-41949Y-581091D01*
Y-592137D01*
X-39090Y-602806D01*
X-33567Y-612371D01*
X-25757Y-620182D01*
X-16192Y-625704D01*
X-5523Y-628563D01*
X5523D01*
X16192Y-625704D01*
X25757Y-620182D01*
X33567Y-612371D01*
X39090Y-602806D01*
X41949Y-592137D01*
Y-581091D01*
X39090Y-570423D01*
X33567Y-560857D01*
X25757Y-553047D01*
X16192Y-547524D01*
X5523Y-544665D01*
D02*
G37*
G36*
X472686Y-570650D02*
X439747Y-603590D01*
X472686Y-636529D01*
X478947Y-625685D01*
X482848Y-611126D01*
Y-596053D01*
X478947Y-581494D01*
X472686Y-570650D01*
D02*
G37*
G36*
X378522Y-570650D02*
X372261Y-581494D01*
X368360Y-596053D01*
Y-611126D01*
X372261Y-625685D01*
X378522Y-636530D01*
X411462Y-603590D01*
X378522Y-570650D01*
D02*
G37*
G36*
X-418726Y-551346D02*
X-432482D01*
X-445770Y-554906D01*
X-457683Y-561784D01*
X-467410Y-571511D01*
X-474288Y-583424D01*
X-477848Y-596712D01*
Y-610468D01*
X-474288Y-623755D01*
X-467410Y-635668D01*
X-457683Y-645396D01*
X-445770Y-652274D01*
X-432482Y-655834D01*
X-418726D01*
X-405439Y-652274D01*
X-393526Y-645396D01*
X-383799Y-635668D01*
X-376921Y-623755D01*
X-373360Y-610468D01*
Y-596712D01*
X-376921Y-583424D01*
X-383799Y-571511D01*
X-393526Y-561784D01*
X-405439Y-554906D01*
X-418726Y-551346D01*
D02*
G37*
G36*
X425604Y-617732D02*
X392664Y-650672D01*
X403509Y-656933D01*
X418068Y-660834D01*
X433141D01*
X447700Y-656933D01*
X458544Y-650672D01*
X425604Y-617732D01*
D02*
G37*
G36*
X-80551Y-773465D02*
X-140669D01*
Y-821772D01*
X-80551D01*
Y-773465D01*
D02*
G37*
G36*
X-150669D02*
X-210787D01*
Y-821772D01*
X-150669D01*
Y-773465D01*
D02*
G37*
G36*
X-80551Y-831772D02*
X-140669D01*
Y-880079D01*
X-80551D01*
Y-831772D01*
D02*
G37*
%LPD*%
D11*
X-145669Y-826772D02*
D03*
X145669Y-905512D02*
D03*
D12*
X149606Y-535433D02*
D03*
D19*
X773590Y-255604D02*
D03*
X634396Y-116410D02*
D03*
X425604Y-603590D02*
D03*
X286410Y-464396D02*
D03*
X-634396Y-116410D02*
D03*
X-773590Y-255604D02*
D03*
X-286410Y-464396D02*
D03*
X-425604Y-603590D02*
D03*
X-216410Y564396D02*
D03*
X-355604Y703590D02*
D03*
X-564396Y216410D02*
D03*
X-703590Y355604D02*
D03*
X355604Y703590D02*
D03*
X216410Y564396D02*
D03*
X703590Y355604D02*
D03*
X564396Y216410D02*
D03*
X246063Y-98425D02*
D03*
Y98425D02*
D03*
X-246063Y-98425D02*
D03*
Y98425D02*
D03*
D20*
X655275Y-485275D02*
D03*
X404725Y-234725D02*
D03*
X-404725Y-234725D02*
D03*
X-655275Y-485275D02*
D03*
X-334725Y334725D02*
D03*
X-585275Y585275D02*
D03*
X585275Y585275D02*
D03*
X334725Y334725D02*
D03*
X0Y-177165D02*
D03*
Y177166D02*
D03*
D21*
X209213Y-535433D02*
D03*
X90000D02*
D03*
X149606Y-470866D02*
D03*
Y-600000D02*
D03*
M02*
