G04*
G04 #@! TF.GenerationSoftware,Altium Limited,Altium Designer,23.8.1 (32)*
G04*
G04 Layer_Color=65535*
%FSLAX26Y26*%
%MOIN*%
G70*
G04*
G04 #@! TF.SameCoordinates,C2A49AF8-9E88-4C2C-BBB5-2A61B6A386C2*
G04*
G04*
G04 #@! TF.FilePolarity,Positive*
G04*
G01*
G75*
%ADD10C,0.010000*%
D10*
X216813Y-355428D02*
X525428Y-46813D01*
X534572Y-673187D02*
X843187Y-364572D01*
X216813Y-394798D02*
Y-355428D01*
X525428Y-46813D02*
X564799D01*
X495201Y-673187D02*
X534572D01*
X843187Y-364572D02*
Y-325201D01*
X216813Y-394798D02*
X495201Y-673187D01*
X564799Y-46813D02*
X843187Y-325201D01*
X-843187Y-364572D02*
X-534572Y-673187D01*
X-525428Y-46813D02*
X-216813Y-355428D01*
X-534572Y-673187D02*
X-495201D01*
X-843187Y-364572D02*
Y-325201D01*
X-216813Y-394799D02*
Y-355428D01*
X-564799Y-46813D02*
X-525428D01*
X-495201Y-673187D02*
X-216813Y-394799D01*
X-843187Y-325201D02*
X-564799Y-46813D01*
X-773187Y464572D02*
X-464572Y773187D01*
X-455428Y146813D02*
X-146813Y455428D01*
X-773187Y425202D02*
Y464572D01*
X-464572Y773187D02*
X-425201D01*
X-494799Y146813D02*
X-455428D01*
X-146813Y455428D02*
Y494799D01*
X-773187Y425202D02*
X-494799Y146813D01*
X-425201Y773187D02*
X-146813Y494799D01*
X146813Y455428D02*
X455428Y146813D01*
X464572Y773187D02*
X773187Y464572D01*
X455428Y146813D02*
X494799D01*
X146813Y455428D02*
Y494799D01*
X773187Y425201D02*
Y464572D01*
X425201Y773187D02*
X464572D01*
X494799Y146813D02*
X773187Y425201D01*
X146813Y494799D02*
X425201Y773187D01*
X-218224Y224690D02*
X218224D01*
X-218224Y-224689D02*
X218224D01*
X-246063Y196851D02*
X-218224Y224690D01*
X218224D02*
X246063Y196851D01*
X-246063Y-196850D02*
X-218224Y-224689D01*
X218224D02*
X246063Y-196850D01*
X-246063D02*
Y196851D01*
X246063Y-196850D02*
Y196851D01*
X118110Y-1000000D02*
Y-429134D01*
X-118110Y-1000000D02*
Y-429134D01*
X118110D01*
X-118110Y-1000000D02*
X118110D01*
X98425Y-1110236D02*
Y-1011811D01*
X-98425Y-1110236D02*
Y-1011811D01*
X98425D01*
X-98425Y-1110236D02*
X98425D01*
M02*
