G04*
G04 #@! TF.GenerationSoftware,Altium Limited,Altium Designer,23.8.1 (32)*
G04*
G04 Layer_Physical_Order=2*
G04 Layer_Color=16711680*
%FSLAX26Y26*%
%MOIN*%
G70*
G04*
G04 #@! TF.SameCoordinates,C2A49AF8-9E88-4C2C-BBB5-2A61B6A386C2*
G04*
G04*
G04 #@! TF.FilePolarity,Positive*
G04*
G01*
G75*
%ADD19C,0.094488*%
%ADD20C,0.060000*%
%ADD21C,0.024000*%
G36*
X80793Y846096D02*
X134293Y839268D01*
X187251Y829061D01*
X239457Y815516D01*
X290699Y798686D01*
X340769Y778641D01*
X389467Y755461D01*
X436596Y729239D01*
X481969Y700080D01*
X525401Y668101D01*
X566718Y633433D01*
X569284Y630985D01*
X567535Y625744D01*
X558309Y620418D01*
X550132Y612241D01*
X544351Y602226D01*
X541358Y591057D01*
Y579493D01*
X544351Y568323D01*
X550132Y558309D01*
X558309Y550132D01*
X568323Y544351D01*
X579493Y541358D01*
X591057D01*
X602226Y544351D01*
X612241Y550132D01*
X620418Y558309D01*
X625625Y567328D01*
X630940Y568943D01*
X642345Y556595D01*
X676353Y514735D01*
X707638Y470801D01*
X736073Y424973D01*
X761545Y377432D01*
X783950Y328372D01*
X803198Y277990D01*
X819212Y226488D01*
X831928Y174074D01*
X840927Y123039D01*
X836378Y120137D01*
X836354Y120133D01*
X826211Y126911D01*
X813182Y133875D01*
X799987Y139340D01*
X785850Y143629D01*
X771843Y146415D01*
X757141Y147863D01*
X742859D01*
X728157Y146415D01*
X714150Y143629D01*
X700012Y139340D01*
X686818Y133875D01*
X673789Y126911D01*
X661915Y118976D01*
X650494Y109604D01*
X640396Y99506D01*
X640396Y99506D01*
X631024Y88085D01*
X623089Y76211D01*
X616125Y63182D01*
X610660Y49987D01*
X606371Y35850D01*
X603585Y21843D01*
X602137Y7141D01*
Y-7141D01*
X603585Y-21843D01*
X606371Y-35850D01*
X610660Y-49988D01*
X614353Y-58904D01*
X612300Y-63067D01*
X601456Y-69328D01*
X641467Y-109339D01*
X681478Y-149350D01*
X687739Y-138505D01*
X687782Y-138343D01*
X692267Y-136132D01*
X700012Y-139340D01*
X714150Y-143629D01*
X728157Y-146415D01*
X742859Y-147863D01*
X757141D01*
X771843Y-146415D01*
X785850Y-143629D01*
X799987Y-139340D01*
X813182Y-133875D01*
X826211Y-126911D01*
X835883Y-120448D01*
X840515Y-123367D01*
X837032Y-147591D01*
X825986Y-200382D01*
X819911Y-222355D01*
X814615Y-222745D01*
X805668Y-213798D01*
X793755Y-206921D01*
X780468Y-203360D01*
X766712D01*
X753424Y-206921D01*
X741511Y-213798D01*
X731784Y-223526D01*
X724906Y-235439D01*
X721346Y-248726D01*
Y-262482D01*
X724906Y-275770D01*
X731784Y-287683D01*
X741511Y-297410D01*
X753424Y-304288D01*
X766712Y-307848D01*
X780468D01*
X788069Y-305812D01*
X791358Y-309577D01*
X773137Y-353080D01*
X749186Y-401405D01*
X722220Y-448112D01*
X703500Y-476249D01*
X698085Y-475361D01*
X696199Y-468323D01*
X690418Y-458309D01*
X682241Y-450132D01*
X672226Y-444350D01*
X661057Y-441358D01*
X649493D01*
X638323Y-444350D01*
X628309Y-450132D01*
X620132Y-458309D01*
X614351Y-468323D01*
X611358Y-479493D01*
Y-491057D01*
X614351Y-502226D01*
X620132Y-512241D01*
X628309Y-520417D01*
X638323Y-526199D01*
X649493Y-529192D01*
X658530D01*
X661008Y-534192D01*
X659682Y-535934D01*
X624362Y-576695D01*
X586529Y-615133D01*
X546333Y-651096D01*
X503938Y-684435D01*
X459515Y-715019D01*
X413240Y-742723D01*
X365302Y-767437D01*
X315892Y-789062D01*
X290552Y-798284D01*
X288570Y-799235D01*
X286466Y-799873D01*
X279704Y-803488D01*
X272791Y-806803D01*
X271033Y-808122D01*
X269094Y-809159D01*
X263166Y-814024D01*
X257034Y-818624D01*
X255566Y-820261D01*
X253867Y-821656D01*
X177232Y-898291D01*
X30310D01*
X28239Y-893291D01*
X33567Y-887962D01*
X39090Y-878396D01*
X41949Y-867727D01*
Y-856682D01*
X39090Y-846013D01*
X33567Y-836447D01*
X25757Y-828637D01*
X16192Y-823115D01*
X5523Y-820256D01*
X-5523D01*
X-16192Y-823115D01*
X-25757Y-828637D01*
X-33567Y-836447D01*
X-39090Y-846013D01*
X-41949Y-856682D01*
Y-867727D01*
X-39090Y-878396D01*
X-33567Y-887962D01*
X-28239Y-893291D01*
X-30310Y-898291D01*
X-177232D01*
X-253867Y-821656D01*
X-255566Y-820261D01*
X-257034Y-818624D01*
X-263166Y-814023D01*
X-269094Y-809159D01*
X-271033Y-808122D01*
X-272791Y-806803D01*
X-279704Y-803488D01*
X-286466Y-799873D01*
X-288570Y-799235D01*
X-290552Y-798284D01*
X-315892Y-789061D01*
X-365301Y-767438D01*
X-413240Y-742723D01*
X-459515Y-715019D01*
X-503939Y-684435D01*
X-546334Y-651095D01*
X-586530Y-615133D01*
X-624362Y-576695D01*
X-659681Y-535935D01*
X-661008Y-534192D01*
X-658530Y-529192D01*
X-649493D01*
X-638323Y-526199D01*
X-628309Y-520418D01*
X-620132Y-512241D01*
X-614351Y-502226D01*
X-611358Y-491057D01*
Y-479493D01*
X-614351Y-468323D01*
X-620132Y-458309D01*
X-628309Y-450132D01*
X-638323Y-444351D01*
X-649493Y-441358D01*
X-661057D01*
X-672226Y-444351D01*
X-682241Y-450132D01*
X-690418Y-458309D01*
X-696199Y-468323D01*
X-698085Y-475361D01*
X-703500Y-476250D01*
X-722219Y-448113D01*
X-749186Y-401405D01*
X-773137Y-353079D01*
X-788916Y-315408D01*
X-785627Y-311642D01*
X-781126Y-312848D01*
X-766054D01*
X-751495Y-308947D01*
X-740650Y-302686D01*
X-780661Y-262675D01*
X-773590Y-255604D01*
X-780661Y-248533D01*
X-740650Y-208522D01*
X-751495Y-202261D01*
X-766054Y-198360D01*
X-781126D01*
X-795685Y-202261D01*
X-808739Y-209798D01*
X-816147Y-217206D01*
X-821743Y-215731D01*
X-825986Y-200382D01*
X-837032Y-147591D01*
X-840515Y-123367D01*
X-835883Y-120448D01*
X-826211Y-126911D01*
X-813182Y-133875D01*
X-799988Y-139340D01*
X-785850Y-143629D01*
X-771843Y-146415D01*
X-757141Y-147863D01*
X-742859D01*
X-728157Y-146415D01*
X-714150Y-143629D01*
X-700013Y-139340D01*
X-688764Y-134681D01*
X-683079Y-136576D01*
X-676201Y-148489D01*
X-666474Y-158216D01*
X-654561Y-165094D01*
X-641274Y-168654D01*
X-627518D01*
X-614230Y-165094D01*
X-602317Y-158216D01*
X-592590Y-148489D01*
X-585712Y-136576D01*
X-582152Y-123288D01*
Y-109532D01*
X-585712Y-96245D01*
X-592590Y-84332D01*
X-602317Y-74604D01*
X-614230Y-67726D01*
X-615700Y-62156D01*
X-610660Y-49988D01*
X-606371Y-35850D01*
X-603585Y-21843D01*
X-602137Y-7141D01*
Y7141D01*
X-603585Y21843D01*
X-606371Y35850D01*
X-610660Y49987D01*
X-616125Y63182D01*
X-623089Y76211D01*
X-631024Y88085D01*
X-640396Y99506D01*
X-650494Y109603D01*
X-650494Y109604D01*
X-661915Y118976D01*
X-673789Y126911D01*
X-686818Y133875D01*
X-700013Y139340D01*
X-714150Y143629D01*
X-728157Y146415D01*
X-742859Y147863D01*
X-757141D01*
X-771843Y146415D01*
X-785850Y143629D01*
X-799988Y139340D01*
X-813182Y133875D01*
X-826211Y126911D01*
X-836355Y120133D01*
X-836378Y120137D01*
X-840927Y123039D01*
X-831928Y174073D01*
X-819212Y226488D01*
X-803198Y277990D01*
X-783950Y328372D01*
X-763084Y374062D01*
X-758362Y372364D01*
X-760834Y363141D01*
Y348068D01*
X-756933Y333509D01*
X-750672Y322665D01*
X-710661Y362675D01*
X-670650Y402686D01*
X-681495Y408947D01*
X-696054Y412849D01*
X-711126D01*
X-725685Y408947D01*
X-738739Y401411D01*
X-747972Y392178D01*
X-752030Y395191D01*
X-736073Y424972D01*
X-707638Y470801D01*
X-676354Y514735D01*
X-642345Y556595D01*
X-630940Y568943D01*
X-625625Y567328D01*
X-620418Y558309D01*
X-612241Y550132D01*
X-602226Y544351D01*
X-591057Y541358D01*
X-579493D01*
X-568323Y544351D01*
X-558309Y550132D01*
X-550132Y558309D01*
X-544351Y568323D01*
X-541358Y579493D01*
Y591057D01*
X-544351Y602226D01*
X-550132Y612241D01*
X-558309Y620418D01*
X-567535Y625744D01*
X-569284Y630985D01*
X-566718Y633433D01*
X-525400Y668102D01*
X-481969Y700080D01*
X-436598Y729238D01*
X-394636Y752585D01*
X-391594Y748556D01*
X-401411Y738739D01*
X-408947Y725685D01*
X-412848Y711126D01*
Y696054D01*
X-408947Y681495D01*
X-402686Y670650D01*
X-362675Y710661D01*
X-322664Y750672D01*
X-333509Y756933D01*
X-348068Y760834D01*
X-363141D01*
X-370930Y758747D01*
X-372666Y763458D01*
X-340769Y778641D01*
X-290699Y798686D01*
X-239457Y815516D01*
X-187251Y829061D01*
X-134293Y839268D01*
X-80793Y846096D01*
X-26967Y849517D01*
X26967D01*
X80793Y846096D01*
D02*
G37*
%LPC*%
G36*
X-308522Y736530D02*
X-341462Y703590D01*
X-308522Y670650D01*
X-302261Y681495D01*
X-298360Y696054D01*
Y711126D01*
X-302261Y725685D01*
X-308522Y736530D01*
D02*
G37*
G36*
X362482Y755834D02*
X348726D01*
X335439Y752274D01*
X323526Y745396D01*
X313799Y735668D01*
X306921Y723755D01*
X303360Y710468D01*
Y696712D01*
X306921Y683424D01*
X313799Y671511D01*
X323526Y661784D01*
X335439Y654906D01*
X348726Y651346D01*
X362482D01*
X375770Y654906D01*
X387683Y661784D01*
X397410Y671511D01*
X404288Y683424D01*
X407848Y696712D01*
Y710468D01*
X404288Y723755D01*
X397410Y735668D01*
X387683Y745396D01*
X375770Y752274D01*
X362482Y755834D01*
D02*
G37*
G36*
X-355604Y689448D02*
X-388544Y656508D01*
X-377700Y650247D01*
X-363141Y646346D01*
X-348068D01*
X-333509Y650247D01*
X-322665Y656508D01*
X-355604Y689448D01*
D02*
G37*
G36*
X223946Y621640D02*
X208874D01*
X194315Y617739D01*
X183470Y611478D01*
X216410Y578538D01*
X249350Y611478D01*
X238506Y617739D01*
X223946Y621640D01*
D02*
G37*
G36*
X263492Y597335D02*
X230552Y564396D01*
X263492Y531456D01*
X269753Y542300D01*
X273654Y556859D01*
Y571932D01*
X269753Y586491D01*
X263492Y597335D01*
D02*
G37*
G36*
X169328Y597336D02*
X163067Y586491D01*
X159166Y571932D01*
Y556859D01*
X163067Y542300D01*
X169328Y531456D01*
X202268Y564396D01*
X169328Y597336D01*
D02*
G37*
G36*
X-209532Y616640D02*
X-223288D01*
X-236576Y613080D01*
X-248489Y606202D01*
X-258216Y596474D01*
X-265094Y584561D01*
X-268654Y571274D01*
Y557518D01*
X-265094Y544230D01*
X-258216Y532317D01*
X-248489Y522590D01*
X-236576Y515712D01*
X-223288Y512152D01*
X-209532D01*
X-196245Y515712D01*
X-184332Y522590D01*
X-174604Y532317D01*
X-167726Y544230D01*
X-164166Y557518D01*
Y571274D01*
X-167726Y584561D01*
X-174604Y596474D01*
X-184332Y606202D01*
X-196245Y613080D01*
X-209532Y616640D01*
D02*
G37*
G36*
X216410Y550254D02*
X183470Y517314D01*
X194315Y511053D01*
X208874Y507152D01*
X223946D01*
X238506Y511053D01*
X249350Y517314D01*
X216410Y550254D01*
D02*
G37*
G36*
X-656508Y388544D02*
X-689448Y355604D01*
X-656508Y322664D01*
X-650247Y333509D01*
X-646346Y348068D01*
Y363141D01*
X-650247Y377700D01*
X-656508Y388544D01*
D02*
G37*
G36*
X710468Y407848D02*
X696712D01*
X683424Y404288D01*
X671511Y397410D01*
X661784Y387683D01*
X654906Y375770D01*
X651346Y362482D01*
Y348726D01*
X654906Y335439D01*
X661784Y323526D01*
X671511Y313799D01*
X683424Y306921D01*
X696712Y303360D01*
X710468D01*
X723755Y306921D01*
X735668Y313799D01*
X745396Y323526D01*
X752274Y335439D01*
X755834Y348726D01*
Y362482D01*
X752274Y375770D01*
X745396Y387683D01*
X735668Y397410D01*
X723755Y404288D01*
X710468Y407848D01*
D02*
G37*
G36*
X-703590Y341462D02*
X-736530Y308522D01*
X-725685Y302261D01*
X-711126Y298360D01*
X-696054D01*
X-681495Y302261D01*
X-670650Y308522D01*
X-703590Y341462D01*
D02*
G37*
G36*
X-328943Y378642D02*
X-340507D01*
X-351677Y375650D01*
X-361691Y369868D01*
X-369868Y361691D01*
X-375649Y351677D01*
X-378642Y340507D01*
Y328943D01*
X-375649Y317774D01*
X-369868Y307759D01*
X-361691Y299583D01*
X-351677Y293801D01*
X-340507Y290808D01*
X-328943D01*
X-317774Y293801D01*
X-307759Y299583D01*
X-299582Y307759D01*
X-293801Y317774D01*
X-290808Y328943D01*
Y340507D01*
X-293801Y351677D01*
X-299582Y361691D01*
X-307759Y369868D01*
X-317774Y375650D01*
X-328943Y378642D01*
D02*
G37*
G36*
X340507Y378642D02*
X328943D01*
X317774Y375649D01*
X307759Y369868D01*
X299582Y361691D01*
X293801Y351677D01*
X290808Y340507D01*
Y328943D01*
X293801Y317774D01*
X299582Y307759D01*
X307759Y299582D01*
X317774Y293801D01*
X328943Y290808D01*
X340507D01*
X351677Y293801D01*
X361691Y299582D01*
X369868Y307759D01*
X375649Y317774D01*
X378642Y328943D01*
Y340507D01*
X375649Y351677D01*
X369868Y361691D01*
X361691Y369868D01*
X351677Y375649D01*
X340507Y378642D01*
D02*
G37*
G36*
X571932Y273654D02*
X556859D01*
X542300Y269753D01*
X531456Y263492D01*
X564396Y230552D01*
X597336Y263492D01*
X586491Y269753D01*
X571932Y273654D01*
D02*
G37*
G36*
X611478Y249350D02*
X578538Y216410D01*
X611478Y183470D01*
X617739Y194315D01*
X621640Y208874D01*
Y223946D01*
X617739Y238506D01*
X611478Y249350D01*
D02*
G37*
G36*
X517314Y249350D02*
X511053Y238506D01*
X507152Y223946D01*
Y208874D01*
X511053Y194315D01*
X517314Y183470D01*
X550254Y216410D01*
X517314Y249350D01*
D02*
G37*
G36*
X-557518Y268654D02*
X-571274D01*
X-584561Y265094D01*
X-596474Y258216D01*
X-606201Y248489D01*
X-613079Y236576D01*
X-616640Y223288D01*
Y209532D01*
X-613079Y196245D01*
X-606201Y184332D01*
X-596474Y174605D01*
X-584561Y167726D01*
X-571274Y164166D01*
X-557518D01*
X-544230Y167726D01*
X-532317Y174605D01*
X-522590Y184332D01*
X-515712Y196245D01*
X-512152Y209532D01*
Y223288D01*
X-515712Y236576D01*
X-522590Y248489D01*
X-532317Y258216D01*
X-544230Y265094D01*
X-557518Y268654D01*
D02*
G37*
G36*
X564396Y202268D02*
X531456Y169328D01*
X542300Y163067D01*
X556859Y159166D01*
X571932D01*
X586491Y163067D01*
X597336Y169328D01*
X564396Y202268D01*
D02*
G37*
G36*
X5782Y221083D02*
X-5782D01*
X-16951Y218090D01*
X-26966Y212308D01*
X-35143Y204131D01*
X-40924Y194117D01*
X-43917Y182947D01*
Y171384D01*
X-40924Y160214D01*
X-35143Y150200D01*
X-26966Y142023D01*
X-16951Y136241D01*
X-5782Y133248D01*
X5782D01*
X16951Y136241D01*
X26966Y142023D01*
X35143Y150200D01*
X40924Y160214D01*
X43917Y171384D01*
Y182947D01*
X40924Y194117D01*
X35143Y204131D01*
X26966Y212308D01*
X16951Y218090D01*
X5782Y221083D01*
D02*
G37*
G36*
X256063Y155009D02*
Y108425D01*
X302647D01*
X299406Y120521D01*
X291870Y133574D01*
X281212Y144232D01*
X268158Y151768D01*
X256063Y155009D01*
D02*
G37*
G36*
X-236063Y155010D02*
Y108425D01*
X-189479D01*
X-192720Y120521D01*
X-200256Y133574D01*
X-210914Y144232D01*
X-223968Y151768D01*
X-236063Y155010D01*
D02*
G37*
G36*
X-256063Y155009D02*
X-268158Y151768D01*
X-281212Y144232D01*
X-291870Y133574D01*
X-299406Y120521D01*
X-302647Y108425D01*
X-256063D01*
Y155009D01*
D02*
G37*
G36*
X236063Y155010D02*
X223968Y151768D01*
X210914Y144232D01*
X200256Y133574D01*
X192720Y120521D01*
X189479Y108425D01*
X236063D01*
Y155010D01*
D02*
G37*
G36*
X302647Y88425D02*
X256063D01*
Y41842D01*
X268158Y45082D01*
X281212Y52619D01*
X291870Y63277D01*
X299406Y76330D01*
X302647Y88425D01*
D02*
G37*
G36*
X-256063D02*
X-302647D01*
X-299406Y76330D01*
X-291870Y63277D01*
X-281212Y52619D01*
X-268158Y45082D01*
X-256063Y41842D01*
Y88425D01*
D02*
G37*
G36*
X-189479D02*
X-236063D01*
Y41841D01*
X-223968Y45082D01*
X-210914Y52619D01*
X-200256Y63277D01*
X-192720Y76330D01*
X-189479Y88425D01*
D02*
G37*
G36*
X236063D02*
X189479D01*
X192720Y76330D01*
X200256Y63277D01*
X210914Y52619D01*
X223968Y45082D01*
X236063Y41841D01*
Y88425D01*
D02*
G37*
G36*
X587314Y-83470D02*
X581053Y-94315D01*
X577152Y-108874D01*
Y-123946D01*
X581053Y-138505D01*
X587314Y-149350D01*
X620253Y-116410D01*
X587314Y-83470D01*
D02*
G37*
G36*
X252941Y-46181D02*
X239185D01*
X225898Y-49741D01*
X213984Y-56619D01*
X204257Y-66346D01*
X197379Y-78260D01*
X193819Y-91547D01*
Y-105303D01*
X197379Y-118591D01*
X204257Y-130504D01*
X213984Y-140231D01*
X225898Y-147109D01*
X239185Y-150669D01*
X252941D01*
X266228Y-147109D01*
X278142Y-140231D01*
X287869Y-130504D01*
X294747Y-118591D01*
X298307Y-105303D01*
Y-91547D01*
X294747Y-78260D01*
X287869Y-66346D01*
X278142Y-56619D01*
X266228Y-49741D01*
X252941Y-46181D01*
D02*
G37*
G36*
X-239185D02*
X-252941D01*
X-266228Y-49741D01*
X-278142Y-56619D01*
X-287869Y-66346D01*
X-294747Y-78260D01*
X-298307Y-91547D01*
Y-105303D01*
X-294747Y-118591D01*
X-287869Y-130504D01*
X-278142Y-140231D01*
X-266228Y-147109D01*
X-252941Y-150669D01*
X-239185D01*
X-225898Y-147109D01*
X-213984Y-140231D01*
X-204257Y-130504D01*
X-197379Y-118591D01*
X-193819Y-105303D01*
Y-91547D01*
X-197379Y-78260D01*
X-204257Y-66346D01*
X-213984Y-56619D01*
X-225898Y-49741D01*
X-239185Y-46181D01*
D02*
G37*
G36*
X634395Y-130552D02*
X601456Y-163492D01*
X612300Y-169753D01*
X626859Y-173654D01*
X641932D01*
X656491Y-169753D01*
X667335Y-163492D01*
X634395Y-130552D01*
D02*
G37*
G36*
X5782Y-133248D02*
X-5782D01*
X-16951Y-136241D01*
X-26966Y-142023D01*
X-35143Y-150199D01*
X-40924Y-160214D01*
X-43917Y-171383D01*
Y-182947D01*
X-40924Y-194117D01*
X-35143Y-204131D01*
X-26966Y-212308D01*
X-16951Y-218090D01*
X-5782Y-221083D01*
X5782D01*
X16951Y-218090D01*
X26966Y-212308D01*
X35143Y-204131D01*
X40924Y-194117D01*
X43917Y-182947D01*
Y-171383D01*
X40924Y-160214D01*
X35143Y-150199D01*
X26966Y-142023D01*
X16951Y-136241D01*
X5782Y-133248D01*
D02*
G37*
G36*
X410507Y-190808D02*
X398943D01*
X387774Y-193801D01*
X377759Y-199582D01*
X369582Y-207759D01*
X363801Y-217774D01*
X360808Y-228943D01*
Y-240507D01*
X363801Y-251677D01*
X369582Y-261691D01*
X377759Y-269868D01*
X387774Y-275649D01*
X398943Y-278642D01*
X410507D01*
X421677Y-275649D01*
X431691Y-269868D01*
X439868Y-261691D01*
X445649Y-251677D01*
X448642Y-240507D01*
Y-228943D01*
X445649Y-217774D01*
X439868Y-207759D01*
X431691Y-199582D01*
X421677Y-193801D01*
X410507Y-190808D01*
D02*
G37*
G36*
X-398943Y-190808D02*
X-410507D01*
X-421677Y-193801D01*
X-431691Y-199583D01*
X-439868Y-207759D01*
X-445649Y-217774D01*
X-448642Y-228943D01*
Y-240507D01*
X-445649Y-251677D01*
X-439868Y-261691D01*
X-431691Y-269868D01*
X-421677Y-275649D01*
X-410507Y-278642D01*
X-398943D01*
X-387774Y-275649D01*
X-377759Y-269868D01*
X-369582Y-261691D01*
X-363801Y-251677D01*
X-360808Y-240507D01*
Y-228943D01*
X-363801Y-217774D01*
X-369582Y-207759D01*
X-377759Y-199583D01*
X-387774Y-193801D01*
X-398943Y-190808D01*
D02*
G37*
G36*
X-726508Y-222665D02*
X-759448Y-255604D01*
X-726508Y-288544D01*
X-720247Y-277700D01*
X-716346Y-263141D01*
Y-248068D01*
X-720247Y-233509D01*
X-726508Y-222665D01*
D02*
G37*
G36*
X293946Y-407151D02*
X278874D01*
X264315Y-411053D01*
X253470Y-417314D01*
X286410Y-450253D01*
X319350Y-417314D01*
X308505Y-411053D01*
X293946Y-407151D01*
D02*
G37*
G36*
X154606Y-449125D02*
Y-465866D01*
X171348D01*
X168257Y-458404D01*
X162068Y-452216D01*
X154606Y-449125D01*
D02*
G37*
G36*
X144606D02*
X137144Y-452216D01*
X130956Y-458404D01*
X127865Y-465866D01*
X144606D01*
Y-449125D01*
D02*
G37*
G36*
X171348Y-475866D02*
X154606D01*
Y-492608D01*
X162068Y-489517D01*
X168257Y-483328D01*
X171348Y-475866D01*
D02*
G37*
G36*
X144606D02*
X127865D01*
X130956Y-483328D01*
X137144Y-489517D01*
X144606Y-492608D01*
Y-475866D01*
D02*
G37*
G36*
X239328Y-431456D02*
X233067Y-442300D01*
X229166Y-456859D01*
Y-471932D01*
X233067Y-486491D01*
X239328Y-497335D01*
X272268Y-464396D01*
X239328Y-431456D01*
D02*
G37*
G36*
X333492Y-431456D02*
X300552Y-464396D01*
X333492Y-497336D01*
X339753Y-486491D01*
X343654Y-471932D01*
Y-456859D01*
X339753Y-442300D01*
X333492Y-431456D01*
D02*
G37*
G36*
X-279532Y-412152D02*
X-293288D01*
X-306575Y-415712D01*
X-318489Y-422590D01*
X-328216Y-432317D01*
X-335094Y-444230D01*
X-338654Y-457518D01*
Y-471274D01*
X-335094Y-484561D01*
X-328216Y-496474D01*
X-318489Y-506201D01*
X-306575Y-513079D01*
X-293288Y-516640D01*
X-279532D01*
X-266245Y-513079D01*
X-254332Y-506201D01*
X-244604Y-496474D01*
X-237726Y-484561D01*
X-234166Y-471274D01*
Y-457518D01*
X-237726Y-444230D01*
X-244604Y-432317D01*
X-254332Y-422590D01*
X-266245Y-415712D01*
X-279532Y-412152D01*
D02*
G37*
G36*
X286410Y-478538D02*
X253470Y-511478D01*
X264315Y-517739D01*
X278874Y-521640D01*
X293946D01*
X308505Y-517739D01*
X319350Y-511478D01*
X286410Y-478538D01*
D02*
G37*
G36*
X214213Y-513692D02*
Y-530433D01*
X230954D01*
X227863Y-522971D01*
X221675Y-516782D01*
X214213Y-513692D01*
D02*
G37*
G36*
X204213D02*
X196751Y-516782D01*
X190562Y-522971D01*
X187471Y-530433D01*
X204213D01*
Y-513692D01*
D02*
G37*
G36*
X95000D02*
Y-530433D01*
X111742D01*
X108651Y-522971D01*
X102462Y-516782D01*
X95000Y-513692D01*
D02*
G37*
G36*
X85000D02*
X77538Y-516782D01*
X71349Y-522971D01*
X68258Y-530433D01*
X85000D01*
Y-513692D01*
D02*
G37*
G36*
X230954Y-540433D02*
X214213D01*
Y-557175D01*
X221675Y-554084D01*
X227863Y-547895D01*
X230954Y-540433D01*
D02*
G37*
G36*
X204213D02*
X187471D01*
X190562Y-547895D01*
X196751Y-554084D01*
X204213Y-557175D01*
Y-540433D01*
D02*
G37*
G36*
X111742D02*
X95000D01*
Y-557175D01*
X102462Y-554084D01*
X108651Y-547895D01*
X111742Y-540433D01*
D02*
G37*
G36*
X85000D02*
X68258D01*
X71349Y-547895D01*
X77538Y-554084D01*
X85000Y-557175D01*
Y-540433D01*
D02*
G37*
G36*
X-418068Y-546346D02*
X-433141D01*
X-447700Y-550247D01*
X-458544Y-556508D01*
X-425604Y-589448D01*
X-392664Y-556508D01*
X-403509Y-550247D01*
X-418068Y-546346D01*
D02*
G37*
G36*
X154606Y-578258D02*
Y-595000D01*
X171348D01*
X168257Y-587538D01*
X162068Y-581349D01*
X154606Y-578258D01*
D02*
G37*
G36*
X144606D02*
X137144Y-581349D01*
X130956Y-587538D01*
X127865Y-595000D01*
X144606D01*
Y-578258D01*
D02*
G37*
G36*
X171348Y-605000D02*
X154606D01*
Y-621742D01*
X162068Y-618651D01*
X168257Y-612462D01*
X171348Y-605000D01*
D02*
G37*
G36*
X144606D02*
X127865D01*
X130956Y-612462D01*
X137144Y-618651D01*
X144606Y-621742D01*
Y-605000D01*
D02*
G37*
G36*
X5523Y-544665D02*
X-5523D01*
X-16192Y-547524D01*
X-25757Y-553047D01*
X-33567Y-560857D01*
X-39090Y-570423D01*
X-41949Y-581091D01*
Y-592137D01*
X-39090Y-602806D01*
X-33567Y-612371D01*
X-25757Y-620182D01*
X-16192Y-625704D01*
X-5523Y-628563D01*
X5523D01*
X16192Y-625704D01*
X25757Y-620182D01*
X33567Y-612371D01*
X39090Y-602806D01*
X41949Y-592137D01*
Y-581091D01*
X39090Y-570423D01*
X33567Y-560857D01*
X25757Y-553047D01*
X16192Y-547524D01*
X5523Y-544665D01*
D02*
G37*
G36*
X-378522Y-570650D02*
X-411462Y-603590D01*
X-378522Y-636530D01*
X-372261Y-625685D01*
X-368360Y-611126D01*
Y-596054D01*
X-372261Y-581495D01*
X-378522Y-570650D01*
D02*
G37*
G36*
X-472686Y-570650D02*
X-478947Y-581495D01*
X-482848Y-596054D01*
Y-611126D01*
X-478947Y-625685D01*
X-472686Y-636530D01*
X-439746Y-603590D01*
X-472686Y-570650D01*
D02*
G37*
G36*
X432482Y-551346D02*
X418726D01*
X405439Y-554906D01*
X393526Y-561784D01*
X383799Y-571511D01*
X376921Y-583424D01*
X373360Y-596712D01*
Y-610468D01*
X376921Y-623755D01*
X383799Y-635668D01*
X393526Y-645395D01*
X405439Y-652274D01*
X418726Y-655834D01*
X432482D01*
X445770Y-652274D01*
X457683Y-645395D01*
X467410Y-635668D01*
X474288Y-623755D01*
X477848Y-610468D01*
Y-596712D01*
X474288Y-583424D01*
X467410Y-571511D01*
X457683Y-561784D01*
X445770Y-554906D01*
X432482Y-551346D01*
D02*
G37*
G36*
X-425604Y-617732D02*
X-458544Y-650672D01*
X-447700Y-656933D01*
X-433141Y-660834D01*
X-418068D01*
X-403509Y-656933D01*
X-392664Y-650672D01*
X-425604Y-617732D01*
D02*
G37*
%LPD*%
D19*
X773590Y-255604D02*
D03*
X634396Y-116410D02*
D03*
X425604Y-603590D02*
D03*
X286410Y-464396D02*
D03*
X-634396Y-116410D02*
D03*
X-773590Y-255604D02*
D03*
X-286410Y-464396D02*
D03*
X-425604Y-603590D02*
D03*
X-216410Y564396D02*
D03*
X-355604Y703590D02*
D03*
X-564396Y216410D02*
D03*
X-703590Y355604D02*
D03*
X355604Y703590D02*
D03*
X216410Y564396D02*
D03*
X703590Y355604D02*
D03*
X564396Y216410D02*
D03*
X246063Y-98425D02*
D03*
Y98425D02*
D03*
X-246063Y-98425D02*
D03*
Y98425D02*
D03*
D20*
X655275Y-485275D02*
D03*
X404725Y-234725D02*
D03*
X-404725Y-234725D02*
D03*
X-655275Y-485275D02*
D03*
X-334725Y334725D02*
D03*
X-585275Y585275D02*
D03*
X585275Y585275D02*
D03*
X334725Y334725D02*
D03*
X0Y-177165D02*
D03*
Y177166D02*
D03*
D21*
X209213Y-535433D02*
D03*
X90000D02*
D03*
X149606Y-470866D02*
D03*
Y-600000D02*
D03*
M02*
