G04*
G04 #@! TF.GenerationSoftware,Altium Limited,Altium Designer,23.8.1 (32)*
G04*
G04 Layer_Color=65535*
%FSLAX44Y44*%
%MOMM*%
G71*
G04*
G04 #@! TF.SameCoordinates,8C212BC7-2EBF-43A3-9F74-7BE937482DC7*
G04*
G04*
G04 #@! TF.FilePolarity,Positive*
G04*
G01*
G75*
%ADD10C,0.2540*%
D10*
X12700Y101600D02*
X25400Y114300D01*
X12700Y25400D02*
Y101600D01*
X25400Y114300D02*
X152400D01*
X184150Y12700D02*
X260350D01*
X184150Y114300D02*
X260350D01*
X171450Y25400D02*
X184150Y12700D01*
X171450Y101600D02*
X184150Y114300D01*
X171450Y25400D02*
Y101600D01*
X260350Y12700D02*
X273050Y25400D01*
X260350Y114300D02*
X273050Y101600D01*
Y25400D02*
Y101600D01*
X25400Y12700D02*
X152400D01*
X165100Y25400D02*
Y101600D01*
X152400Y114300D02*
X165100Y101600D01*
X152400Y12700D02*
X165100Y25400D01*
X12700D02*
X25400Y12700D01*
X185425Y45726D02*
Y40647D01*
Y43187D01*
X198121D01*
X200660Y40647D01*
Y38108D01*
X198121Y35569D01*
X200660Y50804D02*
X190503D01*
X185425Y55883D01*
X190503Y60961D01*
X200660D01*
X193043D01*
Y50804D01*
X187964Y76196D02*
X185425Y73657D01*
Y68578D01*
X187964Y66039D01*
X198121D01*
X200660Y68578D01*
Y73657D01*
X198121Y76196D01*
X185425Y81274D02*
X200660D01*
X195582D01*
X185425Y91431D01*
X193043Y83813D01*
X200660Y91431D01*
X96517Y83813D02*
Y73657D01*
Y78735D01*
X81283D01*
X96517Y60961D02*
Y66039D01*
X93978Y68578D01*
X83822D01*
X81283Y66039D01*
Y60961D01*
X83822Y58422D01*
X93978D01*
X96517Y60961D01*
Y53343D02*
X93978D01*
X88900Y48265D01*
X93978Y43187D01*
X96517D01*
X88900Y48265D02*
X81283D01*
M02*
