G04*
G04 #@! TF.GenerationSoftware,Altium Limited,Altium Designer,23.8.1 (32)*
G04*
G04 Layer_Color=32896*
%FSLAX44Y44*%
%MOMM*%
G71*
G04*
G04 #@! TF.SameCoordinates,8C212BC7-2EBF-43A3-9F74-7BE937482DC7*
G04*
G04*
G04 #@! TF.FilePolarity,Positive*
G04*
G01*
G75*
%ADD10C,0.2540*%
D10*
X244689Y19047D02*
X248074D01*
X246382D01*
Y10583D01*
X248074Y8890D01*
X249767D01*
X251460Y10583D01*
X241303Y19047D02*
Y8890D01*
X234532D01*
X224375Y17354D02*
X226068Y19047D01*
X229454D01*
X231147Y17354D01*
Y10583D01*
X229454Y8890D01*
X226068D01*
X224375Y10583D01*
X214219Y19047D02*
X217604D01*
X215912D01*
Y10583D01*
X217604Y8890D01*
X219297D01*
X220990Y10583D01*
X210833Y19047D02*
Y8890D01*
X204062D01*
X193905Y17354D02*
X195598Y19047D01*
X198984D01*
X200676Y17354D01*
Y10583D01*
X198984Y8890D01*
X195598D01*
X193905Y10583D01*
X183748Y19047D02*
X187134D01*
X185441D01*
Y10583D01*
X187134Y8890D01*
X188827D01*
X190520Y10583D01*
X180363Y19047D02*
Y8890D01*
X173592D01*
X163435Y17354D02*
X165128Y19047D01*
X168513D01*
X170206Y17354D01*
Y10583D01*
X168513Y8890D01*
X165128D01*
X163435Y10583D01*
X153278Y19047D02*
X156664D01*
X154971D01*
Y10583D01*
X156664Y8890D01*
X158357D01*
X160049Y10583D01*
X149893Y19047D02*
Y8890D01*
X143122D01*
X132965Y17354D02*
X134658Y19047D01*
X138043D01*
X139736Y17354D01*
Y10583D01*
X138043Y8890D01*
X134658D01*
X132965Y10583D01*
X124460Y112604D02*
X122767Y114297D01*
X119382D01*
X117689Y112604D01*
Y105833D01*
X119382Y104140D01*
X122767D01*
X124460Y105833D01*
Y112604D01*
X114303Y104140D02*
X110918D01*
X112611D01*
Y114297D01*
X114303Y112604D01*
X105839Y104140D02*
X99068Y110911D01*
X95683Y112604D02*
X93990Y114297D01*
X90604D01*
X88912Y112604D01*
Y105833D01*
X90604Y104140D01*
X93990D01*
X95683Y105833D01*
Y112604D01*
X80448Y104140D02*
Y114297D01*
X85526Y109218D01*
X78755D01*
X75369Y104140D02*
X68598Y110911D01*
X58441Y104140D02*
X65212D01*
X58441Y110911D01*
Y112604D01*
X60134Y114297D01*
X63520D01*
X65212Y112604D01*
X55056D02*
X53363Y114297D01*
X49977D01*
X48285Y112604D01*
Y105833D01*
X49977Y104140D01*
X53363D01*
X55056Y105833D01*
Y112604D01*
X38128Y104140D02*
X44899D01*
X38128Y110911D01*
Y112604D01*
X39821Y114297D01*
X43206D01*
X44899Y112604D01*
X29664Y104140D02*
Y114297D01*
X34742Y109218D01*
X27971D01*
X257810Y104140D02*
Y114297D01*
X252732D01*
X251039Y112604D01*
Y109218D01*
X252732Y107526D01*
X257810D01*
X254424D02*
X251039Y104140D01*
X247653D02*
Y110911D01*
X244268Y114297D01*
X240882Y110911D01*
Y104140D01*
Y109218D01*
X247653D01*
X227340Y114297D02*
Y107526D01*
X223954Y104140D01*
X220569Y107526D01*
Y114297D01*
X217183Y104140D02*
X213797D01*
X215490D01*
Y114297D01*
X217183Y112604D01*
X208719Y104140D02*
Y105833D01*
X207026D01*
Y104140D01*
X208719D01*
X200255Y112604D02*
X198562Y114297D01*
X195177D01*
X193484Y112604D01*
Y105833D01*
X195177Y104140D01*
X198562D01*
X200255Y105833D01*
Y112604D01*
M02*
